<svg width="32" height="32" viewBox="0 0 32 32" fill="none" xmlns="http://www.w3.org/2000/svg">
<path d="M23.0051 14.61C23.0051 13.901 22.8965 13.6284 23.2776 13.3559C23.3867 13.3016 23.4415 13.2468 23.4958 13.2468C23.605 13.2468 23.4415 13.2468 26.5484 13.2468C26.9306 13.2468 27.2026 13.5193 27.2026 13.901V14.6642H23.0051V14.61ZM30.6374 17.0627V26.6575C30.6374 27.2574 30.1466 27.7476 29.5473 27.7476H17.39C17.0084 27.7476 16.6816 28.075 16.6816 28.4566C16.6816 28.8383 17.0084 29.1651 17.39 29.1651H29.4925C29.8741 29.1651 30.2558 29.0565 30.5831 28.8925V29.4376C30.5831 30.0375 30.0924 30.5282 29.4925 30.5282H2.5624C1.96197 30.5282 1.47176 30.0375 1.47176 29.4376V28.8925C1.79912 29.0565 2.18075 29.1651 2.5624 29.1651H13.2468C13.629 29.1651 13.9558 28.8383 13.9558 28.4566C13.9558 28.075 13.629 27.7476 13.2468 27.7476H2.5624C1.96197 27.7476 1.47176 27.2574 1.47176 26.6575V17.0627C1.47176 16.4633 1.96197 15.9726 2.5624 15.9726C14.446 15.9726 18.3716 15.9726 29.5473 15.9726C30.1466 15.9726 30.6374 16.4633 30.6374 17.0627ZM5.01511 13.5193C5.12477 13.3559 5.23336 13.2468 5.39677 13.192C5.50589 13.192 5.34249 13.192 8.44993 13.192C8.77674 13.192 9.10409 13.465 9.10409 13.8467V14.61H4.96082C4.90599 13.9558 4.8517 13.7924 5.01511 13.5193ZM10.4667 14.61V13.901H21.5881V14.61H10.4667ZM1.41695 11.3934V2.50756C1.41695 1.90767 1.90824 1.41745 2.50758 1.41745H29.4925C30.0924 1.41745 30.5831 1.90767 30.5831 2.50756V11.3934C30.5831 11.9927 30.0924 12.4835 29.4925 12.4835H28.0202C27.6391 12.0476 27.0935 11.775 26.4941 11.775C23.3324 11.775 23.3867 11.7202 23.0051 11.8842C22.6234 12.0476 22.4057 12.1567 22.0784 12.4835H9.97598C9.59434 12.0476 9.10408 11.8293 8.55904 11.775C8.44992 11.775 5.50589 11.775 5.39677 11.775C4.906 11.775 4.36099 12.0476 3.97934 12.4835H2.50758C1.90824 12.4835 1.41695 11.9927 1.41695 11.3934ZM29.4925 13.901C30.8556 13.901 32 12.756 32 11.3934V2.50756C32 1.14439 30.8556 0 29.4925 0H2.5624C1.19923 0 0.054871 1.14439 0.054871 2.50756V11.3934C0.054871 12.756 1.19923 13.901 2.5624 13.901H3.48911V14.61H2.50758C1.14441 14.61 0 15.7543 0 17.1175V29.4924C0 30.8551 1.14441 32 2.50758 32H29.4925C30.8556 32 32 30.8551 32 29.4924V17.0627C32 15.7 30.8556 14.5551 29.4925 14.5551H28.5658V13.8467H29.4925V13.901Z" fill="#016EDC"/>
<path d="M6.65092 25.6766C6.10533 25.6766 5.61511 25.1858 5.61511 24.6402C5.61511 24.0952 6.10533 23.6049 6.65092 23.6049C7.25081 23.6049 7.68669 24.0952 7.68669 24.6402C7.68669 25.2401 7.19598 25.6766 6.65092 25.6766ZM6.65092 22.2418C5.28776 22.2418 4.19763 23.3324 4.19763 24.695C4.19763 26.0582 5.28776 27.1483 6.65092 27.1483C8.01355 27.1483 9.10416 26.0582 9.10416 24.695C9.10416 23.3324 7.95926 22.2418 6.65092 22.2418Z" fill="#016EDC"/>
<path d="M6.65092 20.1702C6.10533 20.1702 5.61511 19.68 5.61511 19.1344C5.61511 18.5893 6.10533 18.0991 6.65092 18.0991C7.25081 18.0991 7.68669 18.5893 7.68669 19.1344C7.68669 19.68 7.19598 20.1702 6.65092 20.1702ZM6.65092 16.6816C5.28776 16.6816 4.19763 17.7718 4.19763 19.1344C4.19763 20.4975 5.28776 21.5876 6.65092 21.5876C8.01355 21.5876 9.10416 20.4975 9.10416 19.1344C9.10416 17.7718 7.95926 16.6816 6.65092 16.6816Z" fill="#016EDC"/>
<path d="M12.9201 25.6766C12.375 25.6766 11.8843 25.1858 11.8843 24.6402C11.8843 24.0952 12.375 23.6049 12.9201 23.6049C13.4651 23.6049 13.9559 24.0952 13.9559 24.6402C13.9559 25.2401 13.4651 25.6766 12.9201 25.6766ZM12.9201 22.2418C11.5569 22.2418 10.4669 23.3324 10.4669 24.695C10.4669 26.0582 11.5569 27.1483 12.9201 27.1483C14.2833 27.1483 15.3728 26.0582 15.3728 24.695C15.3191 23.3324 14.2284 22.2418 12.9201 22.2418Z" fill="#016EDC"/>
<path d="M12.9201 20.1702C12.375 20.1702 11.8843 19.68 11.8843 19.1344C11.8843 18.5893 12.375 18.0991 12.9201 18.0991C13.4651 18.0991 13.9559 18.5893 13.9559 19.1344C13.9559 19.68 13.4651 20.1702 12.9201 20.1702ZM12.9201 16.6816C11.5569 16.6816 10.4669 17.7718 10.4669 19.1344C10.4669 20.4975 11.5569 21.5876 12.9201 21.5876C14.2833 21.5876 15.3728 20.4975 15.3728 19.1344C15.3728 17.7718 14.2284 16.6816 12.9201 16.6816Z" fill="#016EDC"/>
<path d="M19.1343 25.6766C18.5892 25.6766 18.0991 25.1858 18.0991 24.6402C18.0991 24.0952 18.5892 23.6049 19.1343 23.6049C19.6799 23.6049 20.1701 24.0952 20.1701 24.6402C20.2249 25.2401 19.7347 25.6766 19.1343 25.6766ZM19.1343 22.2418C17.7717 22.2418 16.6816 23.3324 16.6816 24.695C16.6816 26.0582 17.7717 27.1483 19.1343 27.1483C20.4975 27.1483 21.5881 26.0582 21.5881 24.695C21.5881 23.3324 20.4975 22.2418 19.1343 22.2418Z" fill="#016EDC"/>
<path d="M19.1343 20.1702C18.5892 20.1702 18.0991 19.68 18.0991 19.1344C18.0991 18.5893 18.5892 18.0991 19.1343 18.0991C19.6799 18.0991 20.1701 18.5893 20.1701 19.1344C20.2249 19.68 19.7347 20.1702 19.1343 20.1702ZM19.1343 16.6816C17.7717 16.6816 16.6816 17.7718 16.6816 19.1344C16.6816 20.4975 17.7717 21.5876 19.1343 21.5876C20.4975 21.5876 21.5881 20.4975 21.5881 19.1344C21.5881 17.7718 20.4975 16.6816 19.1343 16.6816Z" fill="#016EDC"/>
<path d="M25.4038 25.6766C24.8582 25.6766 24.368 25.1858 24.368 24.6402C24.368 24.0952 24.8582 23.6049 25.4038 23.6049C25.9489 23.6049 26.4391 24.0952 26.4391 24.6402C26.4391 25.2401 26.0032 25.6766 25.4038 25.6766ZM25.4038 22.2418C24.0407 22.2418 22.95 23.3324 22.95 24.695C22.95 26.0582 24.0407 27.1483 25.4038 27.1483C26.7665 27.1483 27.8571 26.0582 27.8571 24.695C27.8571 23.3324 26.7665 22.2418 25.4038 22.2418Z" fill="#016EDC"/>
<path d="M25.4038 20.1702C24.8582 20.1702 24.368 19.68 24.368 19.1344C24.368 18.5893 24.8582 18.0991 25.4038 18.0991C25.9489 18.0991 26.4391 18.5893 26.4391 19.1344C26.4391 19.68 26.0032 20.1702 25.4038 20.1702ZM25.4038 16.6816C24.0407 16.6816 22.95 17.7718 22.95 19.1344C22.95 20.4975 24.0407 21.5876 25.4038 21.5876C26.7665 21.5876 27.8571 20.4975 27.8571 19.1344C27.8571 17.7718 26.7665 16.6816 25.4038 16.6816Z" fill="#016EDC"/>
<path d="M9.59437 4.14262C11.5031 4.25174 12.4836 6.48676 11.2843 7.95904C10.8484 8.50355 10.14 8.83092 9.37669 8.77609C8.55912 8.72181 6.97824 6.81413 5.28771 5.94173C6.21441 5.45096 8.50427 4.08833 9.59437 4.14262ZM13.084 5.56007L14.3918 5.77831L14.2832 7.74081L12.9743 7.84938C13.4103 6.65016 13.084 5.56007 13.084 5.56007ZM27.0398 7.25004C27.2026 7.25004 27.3123 7.41345 27.3123 7.57686C27.3123 7.74081 27.1483 7.84938 26.9849 7.84938L15.5915 7.68599L15.7001 5.94173L27.0398 7.25004ZM9.26753 10.1935C10.3033 10.2484 11.23 9.92103 11.9385 9.26686L14.9374 9.04915C17.5541 9.10344 8.39513 8.94004 27.0398 9.21257C27.9665 9.21257 28.6744 8.50356 28.7292 7.6317C28.784 6.70501 28.1293 5.94171 27.2026 5.83259L15.2099 4.46943L12.2111 3.9792C11.5031 3.16162 10.4668 2.77999 9.54008 2.77999C7.74098 2.77999 4.90606 4.63337 3.16179 5.56007C2.56245 5.88742 2.78017 6.81412 3.43434 6.86841C4.47015 6.9227 5.56021 7.8494 6.54174 8.66752C7.52272 9.43081 8.3403 10.1393 9.26753 10.1935Z" fill="#016EDC"/>
<path d="M4.90597 9.70342C4.90597 9.32178 4.57916 8.99442 4.19752 8.99442C3.81588 8.99442 3.48907 9.32178 3.48907 9.70342C3.48907 10.0851 3.81588 10.4119 4.19752 10.4119C4.57916 10.4119 4.90597 10.0851 4.90597 9.70342Z" fill="#016EDC"/>
<path d="M16.0274 10.4119C15.6452 10.4119 15.319 10.7392 15.319 11.1203C15.319 11.5025 15.6452 11.8293 16.0274 11.8293C16.4091 11.8293 16.7359 11.5025 16.7359 11.1203C16.7359 10.7392 16.4091 10.4119 16.0274 10.4119Z" fill="#016EDC"/>
<path d="M23.0053 4.14282C23.3869 4.14282 23.7142 3.81602 23.7142 3.43438C23.7142 3.05273 23.3869 2.72537 23.0053 2.72537C22.6236 2.72537 22.2968 3.05273 22.2968 3.43438C22.2968 3.87031 22.5693 4.14282 23.0053 4.14282Z" fill="#016EDC"/>
<path d="M27.8575 4.8512C28.2391 4.8512 28.5659 4.52439 28.5659 4.14275C28.5659 3.76111 28.2391 3.4343 27.8575 3.4343C27.4753 3.4343 27.1484 3.76111 27.1484 4.14275C27.1484 4.52439 27.4753 4.8512 27.8575 4.8512Z" fill="#016EDC"/>
</svg>
