<svg width="33" height="36" viewBox="0 0 33 36" fill="none" xmlns="http://www.w3.org/2000/svg">
<path d="M18.1846 32C17.7348 32 17.3713 31.6296 17.3713 31.1737V20.4832L0.839078 15.1556C0.510436 15.0495 0.282637 14.7446 0.271755 14.3941L0.000419722 5.85327C-0.00683507 5.62349 0.0802289 5.40181 0.24056 5.23979C0.400165 5.0785 0.619985 4.99307 0.845609 5.00044L7.90307 5.27588C8.35214 5.29282 8.70255 5.67652 8.68514 6.13386C8.66845 6.58973 8.28829 6.96165 7.83995 6.92777L1.65741 6.68621L1.88159 13.7563L18.4319 19.0905C18.77 19.1995 19 19.5184 19 19.8785V31.1744C18.9993 31.6303 18.6344 32 18.1846 32Z" fill="#00BDC7"/>
<path d="M21 34.385C21 35.2774 20.2916 36 19.4207 36H18.5786C18.1425 36 17.7478 35.8194 17.4622 35.5272C17.1766 35.235 17 34.8312 17 34.385V23.6157C17 22.7233 17.7063 22 18.5786 22H19.4207C20.2916 22 21 22.7233 21 23.6157V34.385Z" fill="#B60000"/>
<path d="M33 11.2609C33 12.3115 32.9644 10.3279 32.8948 11.2609C32.8266 12.1163 32.7243 11.4792 32.5917 11.2609C32.459 12.2184 32.2953 11.5202 32.1048 11.2609C31.9129 11.4784 31.6936 11.5276 31.449 11.2609C31.2037 12.6401 30.934 11.3816 30.6398 11.2609C30.3471 11.6528 30.0307 11.5135 29.6942 11.2609C29.3571 10.6923 29.0006 10.1796 28.6257 11.2609C28.25 10.9479 27.858 10.3928 27.4489 11.2609C27.0406 11.9613 26.6167 10.9032 26.181 11.2609C25.7445 10.7094 25.2955 13.1714 24.8368 11.2609C24.3781 12.1781 23.9082 10.0925 23.4318 11.2609C22.9545 11.0425 22.4699 11.167 21.9801 11.2609C21.491 12.2437 20.996 10.7027 20.498 11.2609C20.0008 10.4755 19.5006 12.0887 19.0011 11.2609C18.5009 10.3965 18.0007 10.5977 17.5035 11.2609C17.0055 11.0999 16.5105 12.0395 16.0214 11.2609C15.5316 11.2474 15.047 11.1126 14.5697 11.2609C14.0932 10.9352 13.6227 10.0097 13.1632 11.2609C12.7053 11.2989 12.2555 11.1036 11.819 11.2609C11.3833 11.5753 10.9601 12.3525 10.5518 11.2609C10.1435 10.9702 9.75003 11.4598 9.37581 11.2609C9.0001 11.3547 8.64293 11.1849 8.30724 11.2609C7.97081 11.1431 7.65365 10.6416 7.36094 11.2609C7.06749 10.8175 6.79702 10.5366 6.55173 11.2609C6.30719 12.2325 6.0871 11.3518 5.89666 11.2609C5.70473 11.6394 5.5417 11.0738 5.40905 11.2609C5.27641 11.4807 5.17489 10.5314 5.10597 11.2609C5.03631 11.4822 5 10.398 5 11.2609C5 11.3868 5 10.6558 5 10.9881C5 10.6059 5 10.67 5 10.2467C5 9.35923 5 9.06489 5 9.15431C5 8.49932 5 7.99634 5 7.82719C5 7.59321 5 7.42705 5 7.22213C5 7.01721 5 6.77281 5 6.38309C5 5.86968 5 4.67446 5 4.93899C5 4.2758 5 4.2989 5 3.61262C5 3.43601 5 3.1223 5 2.52022C5 3.61187 5 1.0776 5 1.77804C5 2.03363 5 0.432296 5 1.50457C5 1.50457 5.03631 1.81232 5.10597 1.50457C5.17489 0.11188 5.27641 1.9308 5.40905 1.50457C5.5417 1.89801 5.70473 0.412922 5.89666 1.50457C6.0871 1.89876 6.30719 0.84064 6.55173 1.50457C6.79702 2.86149 7.06675 1.46806 7.36094 1.50457C7.65439 1.92782 7.97081 2.11187 8.30724 1.50457C8.64293 -0.00808931 9.00085 1.98743 9.37581 1.50457C9.75003 1.34511 10.1435 0.774321 10.5518 1.50457C10.9601 -1.26591 11.3833 2.75568 11.819 1.50457C12.2555 1.39205 12.7045 2.93899 13.1632 1.50457C13.6227 1.97029 14.0932 2.80114 14.5697 1.50457C15.047 1.78028 15.5316 0.759418 16.0214 1.50457C16.5105 0.778047 17.0055 2.25345 17.5035 1.50457C18.0007 2.10814 18.5009 1.41739 19.0011 1.50457C19.5013 1.48296 20.0015 0.567914 20.498 1.50457C20.996 0.79593 21.491 1.3317 21.9801 1.50457C22.4699 2.86447 22.9545 3.48593 23.4318 1.50457C23.909 0.0694065 24.3781 -1.00212 24.8368 1.50457C25.2955 1.84212 25.7453 2.284 26.181 1.50457C26.6167 3.74003 27.0406 1.57238 27.4489 1.50457C27.858 0.38088 28.25 2.24302 28.6257 1.50457C29.0006 1.47849 29.3571 -0.642959 29.6942 1.50457C30.0307 2.85777 30.3471 1.26389 30.6398 1.50457C30.9333 2.91291 31.2037 1.9308 31.449 1.50457C31.6936 1.96806 31.9129 0.381626 32.1048 1.50457C32.2953 0.882368 32.4598 1.50457 32.5917 1.50457C32.8562 1.50457 33 1.50457 33 1.50457C33 1.50457 33 5.01723 33 7.82645C33 8.29515 33 8.74373 33 9.15356C33 9.90095 33 9.61258 33 10.246C33 10.3801 33 11.2184 33 10.9874C33 10.0686 33 11.5798 33 11.2609Z" fill="#E99F00"/>
<path d="M33 8.67618C33 8.85509 32.7747 9 32.4994 9C32.2228 9 32 8.85509 32 8.67618V5.32382C32 5.14491 32.224 5 32.4994 5C32.776 5 33 5.14491 33 5.32382V8.67618Z" fill="#B60000"/>
<path d="M19 34.5175C19 34.7842 18.7762 35 18.5004 35C18.2246 35 18 34.7842 18 34.5175V22.4825C18 22.2166 18.2246 22 18.5004 22C18.7762 22 19 22.2158 19 22.4825V34.5175Z" fill="#DB3E00"/>
</svg>
