<svg width="25" height="36" viewBox="0 0 25 36" fill="none" xmlns="http://www.w3.org/2000/svg">
<path d="M13 6.86518C13 6.93992 12.9124 7 12.8047 7H10.1953C10.0876 7 10 6.93992 10 6.86518V6.13529C10 6.06055 10.0876 6 10.1953 6H12.8047C12.9124 6 13 6.06008 13 6.13529V6.86518Z" fill="#145387"/>
<path d="M17 10.2496C17 10.6639 16.6486 11 16.217 11H11.783C11.35 11 11 10.6645 11 10.2496V5.75042C11 5.33612 11.35 5 11.783 5H16.217C16.6486 5 17 5.33545 17 5.75042V10.2496Z" fill="#145387"/>
<path d="M16 10.3437C16 10.7066 15.7764 11 15.5008 11C15.2241 11 15 10.7066 15 10.3437V5.65627C15 5.29405 15.2241 5 15.5008 5C15.7764 5 16 5.29338 16 5.65627V10.3437Z" fill="#00BDC7"/>
<path d="M19 30.2837C19 30.6791 18.6645 31 18.2495 31H10.7492C10.3355 31 10 30.6798 10 30.2837V10.7157C10 10.3202 10.3355 10 10.7492 10H18.2495C18.6645 10 19 10.3209 19 10.7157V30.2837Z" fill="#E99F00"/>
<path d="M17 30.2743C17 30.675 16.6909 31 16.3112 31H12.6888C12.3079 31 12 30.675 12 30.2743V11.7257C12 11.325 12.3079 11 12.6888 11H16.3112C16.6909 11 17 11.3244 17 11.7257V30.2743Z" fill="#FDC000"/>
<path d="M25 35.2496C25 35.6639 24.6659 36 24.2495 36H16.7492C16.3368 36 16 35.6639 16 35.2496V28.7504C16 28.3361 16.3368 28 16.7492 28H24.2495C24.6659 28 25 28.3354 25 28.7504V35.2496Z" fill="#00BDC7"/>
<path d="M6.78469 8C6.11455 8 6 7.76241 6 7.48635C6 7.2103 6.11516 7 6.78469 7C7.45606 7 8 7.5 8 7.5C8 7.5 7.45606 8 6.78469 8Z" fill="#00BDC7"/>
<path d="M3.78469 8C3.11333 8 3 7.76241 3 7.48635C3 7.2103 3.11394 7 3.78469 7C4.45543 7 5 7.5 5 7.5C5 7.5 4.45605 8 3.78469 8Z" fill="#00BDC7"/>
<path d="M0.785909 8C0.113317 8 0 7.76241 0 7.48635C0 7.2103 0.11393 7 0.785909 7C1.45605 7 2 7.5 2 7.5C2 7.5 1.45605 8 0.785909 8Z" fill="#00BDC7"/>
<path d="M7.34885 10.5509C6.74448 11.1592 6.43177 11.05 6.18534 10.8032C5.9397 10.5556 5.85625 10.2632 6.45984 9.65398C7.0642 9.0448 8 9 8 9C8 9 7.95322 9.94167 7.34885 10.5509Z" fill="#00BDC7"/>
<path d="M5.34861 12.5506C4.74558 13.1597 4.4312 13.0497 4.18624 12.8029C3.93973 12.5554 3.85547 12.2638 4.46084 11.6547C5.06387 11.0464 6 11 6 11C6 11 5.9532 11.9415 5.34861 12.5506Z" fill="#00BDC7"/>
<path d="M3.35072 14.5509C2.74591 15.1592 2.43141 15.05 2.18637 14.8032C1.93977 14.5556 1.8555 14.2639 2.4603 13.6548C3.0651 13.0456 4 13 4 13C4 13 3.95396 13.9417 3.35072 14.5509Z" fill="#00BDC7"/>
<path d="M6.44995 5.35005C5.84108 4.74535 5.9495 4.43168 6.19698 4.18512C6.44367 3.94012 6.73514 3.85585 7.34479 4.45977C7.95366 5.06447 8 6 8 6C8 6 7.05803 5.95475 6.44995 5.35005Z" fill="#00BDC7"/>
<path d="M4.44945 3.34945C3.84039 2.74493 3.95042 2.43135 4.1964 2.18564C4.44553 1.93993 4.73708 1.85569 5.34614 2.46022C5.95442 3.06474 6 4 6 4C6 4 5.05851 3.95398 4.44945 3.34945Z" fill="#00BDC7"/>
<path d="M2.44926 1.34987C1.84013 0.745016 1.95016 0.43127 2.19774 0.185424C2.44454 -0.0596411 2.73614 -0.14471 3.34606 0.460148C3.9552 1.06501 4 2 4 2C4 2 3.0584 1.95473 2.44926 1.34987Z" fill="#00BDC7"/>
<path d="M3.64684 4.93593C2.9864 4.75001 2.94776 4.51636 3.03324 4.28105C3.11999 4.04573 3.29666 3.89866 3.95836 4.08347C4.6188 4.26883 5 4.84547 5 4.84547C5 4.84547 4.30854 5.1213 3.64684 4.93593Z" fill="#00BDC7"/>
<path d="M1.64667 3.93564C0.985533 3.75038 0.947513 3.5163 1.03372 3.28167C1.11803 3.04593 1.2974 2.89839 1.95854 3.08365C2.61967 3.26891 3 3.84578 3 3.84578C3 3.84578 2.3078 4.12146 1.64667 3.93564Z" fill="#00BDC7"/>
<path d="M4.07482 9.86078C3.43044 10.1117 3.20461 9.98447 3.07017 9.78566C2.9344 9.58784 2.94237 9.39404 3.58608 9.14314C4.23179 8.89224 5 9.04749 5 9.04749C5 9.04749 4.72052 9.60938 4.07482 9.86078Z" fill="#00BDC7"/>
<path d="M2.0756 10.8608C1.42997 11.1116 1.20485 10.9844 1.07043 10.7862C0.934679 10.5879 0.941295 10.3941 1.58626 10.1433C2.23188 9.89197 3 10.0477 3 10.0477C3 10.0477 2.72122 10.6094 2.0756 10.8608Z" fill="#00BDC7"/>
<path d="M18 13H11V25H18V13Z" fill="#FFFCF3"/>
<path d="M15.9489 19.8604C16.3358 22.4995 14.412 23.0098 13.9484 22.9999C13.4422 22.9886 11.6738 22.5301 12.0528 19.8604C12.2639 18.3714 14.0009 15 14.0009 15C14.0009 15 15.7326 18.372 15.9489 19.8604Z" fill="#00BDC7"/>
<path d="M16.4187 23.0817C16.0546 23.2879 15.7415 23.5479 15.4335 23.8149C15.4812 23.7494 15.5243 23.6826 15.5565 23.6117C15.6912 23.3177 15.4747 23.0131 15.1133 23.0793C14.5849 23.1771 14.2144 23.5151 13.8008 23.809C13.6197 23.9378 13.3691 24.3068 13.5733 23.9425C13.6661 23.7792 13.7673 23.6266 13.8439 23.4561C13.9651 23.1896 13.6223 22.9469 13.3633 23.0101C12.889 23.1264 12.4915 23.4489 12.1275 23.7416C11.7473 24.0486 12.3027 24.559 12.6809 24.2537C12.6848 24.2501 12.6912 24.246 12.6951 24.2424C12.7041 24.4093 12.793 24.5655 13.0263 24.6967C13.4451 24.9333 13.8633 24.7068 14.2673 24.4177C14.246 24.6126 14.3162 24.7897 14.5578 24.9214C14.9502 25.1337 15.3291 24.8737 15.6236 24.6418C16.0237 24.3259 16.3587 23.9652 16.8143 23.707C17.2441 23.4638 16.8504 22.8366 16.4187 23.0817Z" fill="#00BDC7"/>
<path d="M23 34.3438C23 34.7067 22.7768 35 22.5005 35C22.2238 35 22 34.706 22 34.3438V29.6562C22 29.294 22.2238 29 22.5005 29C22.7773 29 23 29.294 23 29.6562V34.3438Z" fill="#36D2DE"/>
</svg>
