<svg width="32" height="32" viewBox="0 0 32 32" fill="none" xmlns="http://www.w3.org/2000/svg">
<path d="M20.9619 13.7706V23.4713H18.8994V14.9409C18.8994 14.5512 18.5641 14.2164 18.1743 14.2164C17.784 14.2164 17.4498 14.5512 17.4498 14.9409V23.4713H14.4946V14.9409C14.4946 14.5512 14.1604 14.2164 13.7701 14.2164C13.3793 14.2164 13.0451 14.5512 13.0451 14.9409V23.4713H10.9825V13.7706C11.6515 13.3243 12.2089 12.7668 12.5992 12.1539H19.3452C19.791 12.7668 20.3484 13.3243 20.9619 13.7706ZM22.6902 25.5898V26.2588C22.6902 26.6485 22.3554 26.9833 21.9651 26.9833C19.0665 26.9833 12.3766 26.9833 9.9788 26.9833C9.58851 26.9833 9.25427 26.6485 9.25427 26.2588V25.5898C9.25427 25.199 9.58851 24.8648 9.9788 24.8648C12.8779 24.8648 19.5678 24.8648 21.9651 24.8648C22.4115 24.9203 22.6902 25.2551 22.6902 25.5898ZM20.9619 29.8825H11.0386V28.3774H20.9619V29.8825ZM13.603 9.5335H18.3975C18.453 9.92379 18.5641 10.3696 18.6757 10.7038H13.3793C13.4914 10.3696 13.5469 9.97931 13.603 9.5335ZM3.17729 8.86449C3.17729 6.35564 5.23977 4.34868 7.6931 4.34868H24.3068C26.8157 4.34868 28.8227 6.41116 28.8227 8.86449C28.8227 12.3766 24.9758 14.5512 21.9651 12.7113C20.7387 11.9307 19.9021 10.5928 19.791 9.08768C19.9021 7.86073 20.9058 6.91304 22.1328 6.91304C22.5225 6.91304 22.8573 6.57884 22.8573 6.18855C22.8573 5.79826 22.5225 5.46348 22.1328 5.46348C20.46 5.46348 19.0104 6.57882 18.5641 8.08391H13.4914C12.9895 6.57882 11.596 5.46348 9.92328 5.46348C9.53299 5.46348 9.19821 5.79826 9.19821 6.18855C9.19821 6.57884 9.53299 6.91304 9.92328 6.91304C11.1497 6.91304 12.1529 7.86073 12.265 9.08768C12.1529 11.4289 10.1459 13.3803 7.74919 13.3803C5.18482 13.3803 3.17729 11.3173 3.17729 8.86449ZM8.41817 1.45009H23.5818V2.89911H8.41817V1.45009ZM30.2717 8.86449C30.2717 5.79824 27.9866 3.28939 25.0319 2.95517V0.725021C25.0319 0.33473 24.6971 -4.57764e-05 24.3068 -4.57764e-05H7.6931C7.30281 -4.57764e-05 6.96861 0.33473 6.96861 0.725021V2.89911C4.01339 3.23388 1.72772 5.74218 1.72772 8.80843C1.72772 12.8785 5.74221 15.7776 9.58849 14.4396V23.4713C8.58529 23.6384 7.86023 24.53 7.86023 25.5898V26.2588C7.86023 27.3175 8.58529 28.1542 9.58849 28.3774V30.607C9.58849 30.9973 9.92327 31.332 10.3136 31.332H21.6864C22.0767 31.332 22.4115 30.9973 22.4115 30.607V28.3774C23.4152 28.2097 24.1392 27.3175 24.1392 26.2588V25.5898C24.1392 24.53 23.3592 23.6939 22.4115 23.4713V14.4951C26.2583 15.7776 30.2717 12.8784 30.2717 8.86449Z" fill="#016EDC"/>
<path d="M3.56833 22.0774C3.17749 22.0774 2.84327 21.7432 2.84327 21.3529C2.84327 20.9626 3.17749 20.6278 3.56833 20.6278C3.95807 20.6278 4.29229 20.9626 4.29229 21.3529C4.29229 21.7432 3.95807 22.0774 3.56833 22.0774ZM3.56833 19.2343C2.3969 19.2343 1.44922 20.182 1.44922 21.3529C1.44922 22.5237 2.3969 23.4714 3.56833 23.4714C4.73865 23.4714 5.68634 22.5237 5.68634 21.3529C5.68634 20.182 4.73865 19.2343 3.56833 19.2343Z" fill="#016EDC"/>
<path d="M29.4917 28.4885C28.9343 28.4885 28.4324 27.9867 28.4324 27.4293C28.4324 26.8719 28.9343 26.37 29.4917 26.37C30.0491 26.37 30.551 26.8719 30.551 27.4293C30.6065 27.9867 30.1046 28.4885 29.4917 28.4885ZM29.4917 24.9204C28.0976 24.9204 26.9828 26.0358 26.9828 27.4293C26.9828 28.8233 28.0976 29.9381 29.4917 29.9381C30.8858 29.9381 32 28.8233 32 27.4293C32 26.0358 30.8858 24.9204 29.4917 24.9204Z" fill="#016EDC"/>
<path d="M0.724525 4.29272C0.334234 4.29272 0 4.62749 0 5.01778C0 5.40808 0.334234 5.74231 0.724525 5.74231C1.11482 5.74231 1.44902 5.40808 1.44902 5.01778C1.44902 4.62749 1.11482 4.29272 0.724525 4.29272Z" fill="#016EDC"/>
<path d="M28.4324 19.9588C28.4324 20.3491 28.7667 20.6838 29.157 20.6838C29.5478 20.6838 29.882 20.3491 29.882 19.9588C29.882 19.5685 29.5478 19.2343 29.157 19.2343C28.7667 19.2343 28.4324 19.5685 28.4324 19.9588Z" fill="#016EDC"/>
<path d="M28.4325 2.84375C28.8228 2.84375 29.1571 2.50897 29.1571 2.11868C29.1571 1.72895 28.8228 1.39416 28.4325 1.39416C28.0422 1.39416 27.7075 1.72895 27.7075 2.11868C27.7635 2.56505 28.0422 2.84375 28.4325 2.84375Z" fill="#016EDC"/>
<path d="M6.41129 28.4885C6.02099 28.4885 5.68622 28.8233 5.68622 29.2136C5.68622 29.6033 6.02099 29.9381 6.41129 29.9381C6.80158 29.9381 7.13581 29.6033 7.13581 29.2136C7.13581 28.7672 6.80158 28.4885 6.41129 28.4885Z" fill="#016EDC"/>
<path d="M4.96102 15.6662C4.96102 15.2759 4.6268 14.9411 4.23706 14.9411C3.84677 14.9411 3.51202 15.2759 3.51202 15.6662C3.51202 16.0565 3.84677 16.3912 4.23706 16.3912C4.68232 16.3912 4.96102 16.0565 4.96102 15.6662Z" fill="#016EDC"/>
</svg>
