<svg width="20" height="20" viewBox="0 0 20 20" fill="none" xmlns="http://www.w3.org/2000/svg">
<path d="M11.2417 8C10.7925 8 10.4444 8.4475 10.4444 9C10.4444 9.5525 10.7925 10 11.2417 10C11.6519 10 12 9.5525 12 9C12 8.4475 11.6519 8 11.2417 8ZM5.79722 8C5.34806 8 5 8.4475 5 9C5 9.5525 5.34806 10 5.79722 10C6.2075 10 6.55556 9.5525 6.55556 9C6.55556 8.4475 6.2075 8 5.79722 8Z" fill="#505659"/>
<path d="M17.6728 6.88196C16.7066 5.60358 15.3567 4.74939 13.8762 4.36393V4.36587C13.5327 3.99785 13.145 3.65889 12.7111 3.35673C9.42265 1.05177 4.80642 1.75488 2.4059 4.92565C0.471416 7.50178 0.553777 10.967 2.52642 13.4288L2.54249 15.9972C2.54249 16.0592 2.55254 16.1212 2.57263 16.1793C2.67909 16.5066 3.04068 16.6868 3.37816 16.5841L5.92131 15.8113C6.59425 16.0418 7.2893 16.1735 7.98033 16.2103L7.97029 16.218C9.76013 17.4751 12.1064 17.8528 14.2578 17.1671L16.811 17.969C16.8753 17.9884 16.9416 18 17.0099 18C17.3655 18 17.6527 17.723 17.6527 17.3802V14.7847C19.4225 12.4681 19.4687 9.26633 17.6728 6.88196ZM6.20254 14.436L5.96148 14.3392L3.97276 14.9396L3.95268 12.9252L3.79197 12.7509C2.09252 10.752 1.98003 7.87173 3.571 5.75853C5.50749 3.1979 9.21976 2.63231 11.8674 4.48015C14.523 6.34155 15.1116 9.91521 13.1932 12.4603C11.5841 14.589 8.7035 15.3754 6.20254 14.436ZM16.347 14.1067L16.1863 14.3004L16.2064 16.3149L14.2378 15.6757L13.9967 15.7725C12.8718 16.1754 11.6725 16.2083 10.5616 15.9081L10.5576 15.9062C12.0421 15.4665 13.388 14.5755 14.3583 13.2932C15.893 11.2536 16.1421 8.69106 15.2502 6.50619L15.2622 6.51394C15.7243 6.83353 16.1481 7.23254 16.5077 7.71484C17.9661 9.64404 17.8837 12.2705 16.347 14.1067Z" fill="#505659"/>
<path d="M9.025 8C8.4475 8 8 8.4475 8 9C8 9.5525 8.4475 10 9.025 10C9.5525 10 10 9.5525 10 9C10 8.4475 9.5525 8 9.025 8Z" fill="#505659"/>
</svg>
