<svg width="20" height="20" viewBox="0 0 20 20" fill="none" xmlns="http://www.w3.org/2000/svg">
<mask id="mask0_446_22077" style="mask-type:luminance" maskUnits="userSpaceOnUse" x="0" y="0" width="20" height="20">
<path d="M19.3182 8.18182H10V12.0455H15.3636C14.8636 14.5 12.7727 15.9091 10 15.9091C6.72727 15.9091 4.09091 13.2727 4.09091 10C4.09091 6.72727 6.72727 4.09091 10 4.09091C11.4091 4.09091 12.6818 4.59092 13.6818 5.4091L16.5909 2.5C14.8182 0.954545 12.5455 0 10 0C4.45455 0 0 4.45455 0 10C0 15.5455 4.45455 20 10 20C15 20 19.5455 16.3636 19.5455 10C19.5455 9.40909 19.4545 8.77273 19.3182 8.18182Z" fill="white"/>
</mask>
<g mask="url(#mask0_446_22077)">
<path d="M-0.90918 15.9105V4.09229L6.81809 10.0014L-0.90918 15.9105Z" fill="#FBBC05"/>
</g>
<mask id="mask1_446_22077" style="mask-type:luminance" maskUnits="userSpaceOnUse" x="0" y="0" width="20" height="20">
<path d="M19.3182 8.18182H10V12.0455H15.3636C14.8636 14.5 12.7727 15.9091 10 15.9091C6.72727 15.9091 4.09091 13.2727 4.09091 10C4.09091 6.72727 6.72727 4.09091 10 4.09091C11.4091 4.09091 12.6818 4.59092 13.6818 5.4091L16.5909 2.5C14.8182 0.954545 12.5455 0 10 0C4.45455 0 0 4.45455 0 10C0 15.5455 4.45455 20 10 20C15 20 19.5455 16.3636 19.5455 10C19.5455 9.40909 19.4545 8.77273 19.3182 8.18182Z" fill="white"/>
</mask>
<g mask="url(#mask1_446_22077)">
<path d="M-0.90918 4.09228L6.81809 10.0014L9.99991 7.22866L20.909 5.45592V-0.907715H-0.90918V4.09228Z" fill="#EA4335"/>
</g>
<mask id="mask2_446_22077" style="mask-type:luminance" maskUnits="userSpaceOnUse" x="0" y="0" width="20" height="20">
<path d="M19.3182 8.18182H10V12.0455H15.3636C14.8636 14.5 12.7727 15.9091 10 15.9091C6.72727 15.9091 4.09091 13.2727 4.09091 10C4.09091 6.72727 6.72727 4.09091 10 4.09091C11.4091 4.09091 12.6818 4.59092 13.6818 5.4091L16.5909 2.5C14.8182 0.954545 12.5455 0 10 0C4.45455 0 0 4.45455 0 10C0 15.5455 4.45455 20 10 20C15 20 19.5455 16.3636 19.5455 10C19.5455 9.40909 19.4545 8.77273 19.3182 8.18182Z" fill="white"/>
</mask>
<g mask="url(#mask2_446_22077)">
<path d="M-0.90918 15.9105L12.7272 5.45592L16.3181 5.91047L20.909 -0.907715V20.9105H-0.90918V15.9105Z" fill="#34A853"/>
</g>
<mask id="mask3_446_22077" style="mask-type:luminance" maskUnits="userSpaceOnUse" x="0" y="0" width="20" height="20">
<path d="M19.3182 8.18182H10V12.0455H15.3636C14.8636 14.5 12.7727 15.9091 10 15.9091C6.72727 15.9091 4.09091 13.2727 4.09091 10C4.09091 6.72727 6.72727 4.09091 10 4.09091C11.4091 4.09091 12.6818 4.59092 13.6818 5.4091L16.5909 2.5C14.8182 0.954545 12.5455 0 10 0C4.45455 0 0 4.45455 0 10C0 15.5455 4.45455 20 10 20C15 20 19.5455 16.3636 19.5455 10C19.5455 9.40909 19.4545 8.77273 19.3182 8.18182Z" fill="white"/>
</mask>
<g mask="url(#mask3_446_22077)">
<path d="M20.9091 20.9105L6.81818 10.0014L5 8.63774L20.9091 4.09229V20.9105Z" fill="#4285F4"/>
</g>
</svg>
