<svg width="20" height="20" viewBox="0 0 20 20" fill="none" xmlns="http://www.w3.org/2000/svg">
<g clip-path="url(#clip0_446_22074)">
<path d="M19.9232 7.52238C19.8359 7.23776 19.6734 6.9846 19.4544 6.79195C19.2355 6.59931 18.9688 6.475 18.6852 6.43329L13.6342 5.66758L11.3753 0.892898C11.2487 0.624909 11.0527 0.399241 10.8095 0.241438C10.5663 0.0836349 10.2857 0 9.99929 0C9.7129 0 9.43223 0.0836349 9.18906 0.241438C8.94588 0.399241 8.7499 0.624909 8.62331 0.892898L6.36433 5.66758L1.31339 6.43329C1.03018 6.47639 0.764165 6.60123 0.545377 6.79373C0.326589 6.98622 0.163748 7.23869 0.0752398 7.52262C-0.013268 7.80656 -0.0239161 8.11066 0.0444978 8.40058C0.112912 8.6905 0.257662 8.95469 0.462405 9.16332L4.11836 12.8802L3.25537 18.1275C3.20617 18.422 3.23715 18.725 3.34478 19.0021C3.45241 19.2791 3.63238 19.5192 3.86424 19.6949C4.09609 19.8706 4.37054 19.9749 4.6564 19.996C4.94226 20.0171 5.22807 19.9542 5.48134 19.8143L9.99929 17.3367L14.5172 19.8143C14.7706 19.9529 15.0561 20.0148 15.3414 19.9932C15.6268 19.9715 15.9006 19.8671 16.1321 19.6917C16.3636 19.5162 16.5435 19.2768 16.6514 19.0005C16.7594 18.7241 16.7912 18.4217 16.7432 18.1275L15.8802 12.8802L19.5362 9.16228C19.7419 8.95453 19.8874 8.69048 19.9558 8.40041C20.0243 8.11035 20.013 7.80603 19.9232 7.52238Z" fill="#FF5E15"/>
</g>
<defs>
<clipPath id="clip0_446_22074">
<rect width="20" height="20" fill="white"/>
</clipPath>
</defs>
</svg>
