<svg width="25" height="25" viewBox="0 0 25 25" fill="none" xmlns="http://www.w3.org/2000/svg">
<path fill-rule="evenodd" clip-rule="evenodd" d="M20.3853 3.13896C20.5845 3.13182 20.7783 3.2041 20.9242 3.3399C21.0701 3.47569 21.156 3.66388 21.1632 3.86305L21.4859 12.8749C21.493 13.0741 21.4208 13.2679 21.285 13.4138C21.1492 13.5597 20.961 13.6457 20.7618 13.6528C20.5626 13.6599 20.3688 13.5877 20.2229 13.4519C20.077 13.3161 19.9911 13.1279 19.9839 12.9287L19.7261 5.72973L5.03284 21.516C4.96551 21.5883 4.8846 21.6467 4.79473 21.6878C4.70485 21.7288 4.60777 21.7518 4.50902 21.7553C4.41028 21.7588 4.3118 21.7429 4.21922 21.7084C4.12664 21.6738 4.04176 21.6214 3.96944 21.5541C3.89711 21.4868 3.83876 21.4059 3.7977 21.316C3.75664 21.2261 3.73369 21.129 3.73016 21.0303C3.72662 20.9315 3.74257 20.8331 3.77709 20.7405C3.81161 20.6479 3.86403 20.563 3.93135 20.4907L18.6262 4.70586L11.4272 4.96366C11.228 4.97079 11.0342 4.89851 10.8883 4.76272C10.7424 4.62692 10.6565 4.43874 10.6493 4.23956C10.6422 4.04039 10.7145 3.84654 10.8503 3.70066C10.9861 3.55478 11.1743 3.46881 11.3734 3.46168L20.3853 3.13896Z" fill="white"/>
</svg>
