<svg width="24" height="24" viewBox="0 0 24 24" fill="none" xmlns="http://www.w3.org/2000/svg">
<path d="M13.052 7C14.0288 7.19057 14.9264 7.66826 15.6301 8.37194C16.3338 9.07561 16.8115 9.97326 17.002 10.95M13.052 3C15.0813 3.22544 16.9736 4.13417 18.4183 5.57701C19.8629 7.01984 20.7741 8.91101 21.002 10.94M17.502 22C8.94154 22 2.00195 15.0604 2.00195 6.5C2.00195 6.11378 2.01608 5.73086 2.04384 5.35173C2.0757 4.91662 2.09163 4.69907 2.20565 4.50103C2.30009 4.33701 2.46745 4.18146 2.63793 4.09925C2.84376 4 3.08383 4 3.56396 4H6.38127C6.78503 4 6.98691 4 7.15997 4.06645C7.31284 4.12515 7.44896 4.22049 7.55637 4.3441C7.67796 4.48403 7.74695 4.67376 7.88494 5.05321L9.05105 8.26005C9.21155 8.70153 9.29185 8.92227 9.27825 9.1317C9.26625 9.31637 9.20315 9.49408 9.09615 9.64506C8.97481 9.81628 8.7734 9.93713 8.37058 10.1788L7.00195 11C8.20385 13.6489 10.3521 15.7999 13.002 17L13.8232 15.6314C14.0649 15.2285 14.1857 15.0271 14.3569 14.9058C14.5079 14.7988 14.6856 14.7357 14.8703 14.7237C15.0797 14.7101 15.3005 14.7904 15.742 14.9509L18.9488 16.117C19.3282 16.255 19.518 16.324 19.6579 16.4456C19.7815 16.553 19.8769 16.6891 19.9355 16.842C20.002 17.015 20.002 17.2169 20.002 17.6207V20.438C20.002 20.9181 20.002 21.1582 19.9027 21.364C19.8205 21.5345 19.665 21.7019 19.501 21.7963C19.3029 21.9103 19.0854 21.9262 18.6503 21.9581C18.2711 21.9859 17.8882 22 17.502 22Z" stroke="white" stroke-width="1.4" stroke-linecap="round" stroke-linejoin="round"/>
</svg>
