<svg width="17" height="16" viewBox="0 0 17 16" fill="none" xmlns="http://www.w3.org/2000/svg">
<path d="M4.03019 0.851064C4.11266 0.851064 4.19514 0.914894 4.19514 1L5.80342 10.8298C5.88589 11.3191 6.29827 11.7021 6.79313 11.7021H14.649C15.1232 11.7021 15.5356 11.3404 15.6387 10.8511L16.8552 4.19149C16.917 3.89362 16.8346 3.57447 16.649 3.34043C16.4634 3.10638 16.1748 2.97872 15.8655 2.97872H7.47355C7.24675 2.97872 7.06117 3.17021 7.06117 3.40426C7.06117 3.6383 7.24675 3.82979 7.47355 3.82979H15.8655C15.9479 3.82979 15.9892 3.87234 16.0098 3.89362C16.0304 3.91489 16.051 3.97872 16.051 4.04255L15.783 5.53191H7.88593C7.65912 5.53191 7.47355 5.7234 7.47355 5.95745C7.47355 6.19149 7.65912 6.38298 7.88593 6.38298H15.618L15.3088 8.08511H8.29831C8.0715 8.08511 7.88593 8.2766 7.88593 8.51064C7.88593 8.74468 8.0715 8.93617 8.29831 8.93617H15.1438L14.8139 10.7021C14.7933 10.7872 14.7314 10.8511 14.649 10.8511H6.79313C6.71065 10.8511 6.62818 10.7872 6.62818 10.7021L5.0199 0.87234C4.93742 0.382979 4.52504 0 4.03019 0H1.28787C1.06106 0 0.875488 0.191489 0.875488 0.425532C0.875488 0.659574 1.06106 0.851064 1.28787 0.851064H4.03019Z" fill="#016EDC"/>
<path d="M7.80379 16C8.60793 16 9.26774 15.3192 9.26774 14.4894C9.26774 13.6596 8.60793 12.9788 7.80379 12.9788C6.99965 12.9788 6.33984 13.6596 6.33984 14.4894C6.33984 15.3192 6.99965 16 7.80379 16ZM7.80379 13.8298C8.15431 13.8298 8.44298 14.1277 8.44298 14.4894C8.44298 14.8511 8.15431 15.149 7.80379 15.149C7.45327 15.149 7.1646 14.8511 7.1646 14.4894C7.1646 14.1277 7.45327 13.8298 7.80379 13.8298Z" fill="#016EDC"/>
<path d="M14.6515 14.4894C14.6515 13.6596 13.9917 12.9788 13.1876 12.9788C12.3834 12.9788 11.7236 13.6596 11.7236 14.4894C11.7236 15.3192 12.3834 16 13.1876 16C13.9917 16 14.6515 15.3192 14.6515 14.4894ZM12.5278 14.4894C12.5278 14.1277 12.8164 13.8298 13.167 13.8298C13.5175 13.8298 13.8061 14.1277 13.8061 14.4894C13.8061 14.8511 13.5175 15.149 13.167 15.149C12.8164 15.149 12.5278 14.8511 12.5278 14.4894Z" fill="#016EDC"/>
</svg>
