<svg width="32" height="32" viewBox="0 0 32 32" fill="none" xmlns="http://www.w3.org/2000/svg">
<path d="M20.9447 16.9467C22.2519 15.9182 23.206 14.5079 23.6744 12.9119C24.1427 11.316 24.1019 9.61371 23.5578 8.04198C23.0136 6.47025 21.993 5.10721 20.6381 4.1425C19.2832 3.17778 17.6613 2.65936 15.998 2.65936C14.3348 2.65936 12.7129 3.17778 11.3579 4.1425C10.003 5.10721 8.9825 6.47025 8.43833 8.04198C7.89415 9.61371 7.85339 11.316 8.32172 12.9119C8.79006 14.5079 9.74419 15.9182 11.0514 16.9467C8.81148 17.8441 6.85709 19.3325 5.39657 21.2532C3.93604 23.174 3.02413 25.4551 2.75804 27.8534C2.73878 28.0285 2.7542 28.2056 2.80341 28.3748C2.85262 28.5439 2.93467 28.7017 3.04486 28.8391C3.2674 29.1167 3.59109 29.2945 3.94471 29.3334C4.29833 29.3723 4.65292 29.2691 4.93048 29.0465C5.20803 28.824 5.38581 28.5003 5.42471 28.1467C5.71749 25.5403 6.96029 23.1331 8.91567 21.3851C10.871 19.6371 13.4019 18.6707 16.0247 18.6707C18.6475 18.6707 21.1784 19.6371 23.1337 21.3851C25.0891 23.1331 26.3319 25.5403 26.6247 28.1467C26.661 28.4743 26.8173 28.7769 27.0635 28.996C27.3097 29.2152 27.6284 29.3354 27.958 29.3334H28.1047C28.4542 29.2931 28.7737 29.1164 28.9935 28.8417C29.2132 28.567 29.3155 28.2165 29.278 27.8667C29.0107 25.4616 28.0939 23.1747 26.6258 21.251C25.1578 19.3273 23.1939 17.8393 20.9447 16.9467ZM15.998 16C14.9432 16 13.9121 15.6872 13.035 15.1012C12.1579 14.5152 11.4744 13.6822 11.0707 12.7077C10.667 11.7331 10.5614 10.6608 10.7672 9.62621C10.973 8.59164 11.4809 7.64133 12.2268 6.89545C12.9727 6.14957 13.923 5.64162 14.9576 5.43584C15.9921 5.23005 17.0645 5.33567 18.039 5.73933C19.0136 6.143 19.8465 6.82659 20.4325 7.70365C21.0186 8.58071 21.3314 9.61186 21.3314 10.6667C21.3314 12.0812 20.7695 13.4377 19.7693 14.4379C18.7691 15.4381 17.4125 16 15.998 16Z" fill="#016EDC"/>
</svg>
