<svg width="32" height="32" viewBox="0 0 32 32" fill="none" xmlns="http://www.w3.org/2000/svg">
<path d="M20.9627 13.7706V23.4713H18.9002V14.9409C18.9002 14.5512 18.5649 14.2164 18.1751 14.2164C17.7848 14.2164 17.4506 14.5512 17.4506 14.9409V23.4713H14.4954V14.9409C14.4954 14.5512 14.1612 14.2164 13.7709 14.2164C13.3801 14.2164 13.0458 14.5512 13.0458 14.9409V23.4713H10.9833V13.7706C11.6523 13.3243 12.2097 12.7668 12.6 12.1539H19.346C19.7918 12.7668 20.3492 13.3243 20.9627 13.7706ZM22.691 25.5898V26.2588C22.691 26.6485 22.3562 26.9833 21.9659 26.9833C19.0673 26.9833 12.3774 26.9833 9.97959 26.9833C9.5893 26.9833 9.25507 26.6485 9.25507 26.2588V25.5898C9.25507 25.199 9.5893 24.8648 9.97959 24.8648C12.8787 24.8648 19.5686 24.8648 21.9659 24.8648C22.4123 24.9203 22.691 25.2551 22.691 25.5898ZM20.9627 29.8825H11.0394V28.3774H20.9627V29.8825ZM13.6038 9.5335H18.3983C18.4538 9.92379 18.5649 10.3696 18.6765 10.7038H13.3801C13.4922 10.3696 13.5477 9.97931 13.6038 9.5335ZM3.17808 8.86449C3.17808 6.35564 5.24056 4.34868 7.6939 4.34868H24.3076C26.8165 4.34868 28.8235 6.41116 28.8235 8.86449C28.8235 12.3766 24.9766 14.5512 21.9659 12.7113C20.7395 11.9307 19.9028 10.5928 19.7918 9.08768C19.9028 7.86073 20.9066 6.91304 22.1336 6.91304C22.5233 6.91304 22.8581 6.57884 22.8581 6.18855C22.8581 5.79826 22.5233 5.46348 22.1336 5.46348C20.4608 5.46348 19.0112 6.57882 18.5649 8.08391H13.4922C12.9903 6.57882 11.5968 5.46348 9.92408 5.46348C9.53378 5.46348 9.19901 5.79826 9.19901 6.18855C9.19901 6.57884 9.53378 6.91304 9.92408 6.91304C11.1505 6.91304 12.1537 7.86073 12.2658 9.08768C12.1537 11.4289 10.1467 13.3803 7.74999 13.3803C5.18561 13.3803 3.17808 11.3173 3.17808 8.86449ZM8.41897 1.45009H23.5826V2.89911H8.41897V1.45009ZM30.2725 8.86449C30.2725 5.79824 27.9874 3.28939 25.0327 2.95517V0.725021C25.0327 0.33473 24.6979 -4.57764e-05 24.3076 -4.57764e-05H7.6939C7.30361 -4.57764e-05 6.9694 0.33473 6.9694 0.725021V2.89911C4.01418 3.23388 1.72852 5.74218 1.72852 8.80843C1.72852 12.8785 5.74301 15.7776 9.58929 14.4396V23.4713C8.58608 23.6384 7.86102 24.53 7.86102 25.5898V26.2588C7.86102 27.3175 8.58608 28.1542 9.58929 28.3774V30.607C9.58929 30.9973 9.92406 31.332 10.3144 31.332H21.6872C22.0775 31.332 22.4123 30.9973 22.4123 30.607V28.3774C23.416 28.2097 24.14 27.3175 24.14 26.2588V25.5898C24.14 24.53 23.36 23.6939 22.4123 23.4713V14.4951C26.2591 15.7776 30.2725 12.8784 30.2725 8.86449Z" fill="#016EDC"/>
<path d="M3.56833 22.0774C3.17749 22.0774 2.84327 21.7432 2.84327 21.3529C2.84327 20.9626 3.17749 20.6278 3.56833 20.6278C3.95807 20.6278 4.29229 20.9626 4.29229 21.3529C4.29229 21.7432 3.95807 22.0774 3.56833 22.0774ZM3.56833 19.2343C2.3969 19.2343 1.44922 20.182 1.44922 21.3529C1.44922 22.5237 2.3969 23.4714 3.56833 23.4714C4.73865 23.4714 5.68634 22.5237 5.68634 21.3529C5.68634 20.182 4.73865 19.2343 3.56833 19.2343Z" fill="#016EDC"/>
<path d="M29.4913 28.4887C28.9339 28.4887 28.432 27.9868 28.432 27.4294C28.432 26.872 28.9339 26.3701 29.4913 26.3701C30.0487 26.3701 30.5506 26.872 30.5506 27.4294C30.6061 27.9868 30.1042 28.4887 29.4913 28.4887ZM29.4913 24.9205C28.0972 24.9205 26.9824 26.0359 26.9824 27.4294C26.9824 28.8234 28.0972 29.9382 29.4913 29.9382C30.8853 29.9382 31.9996 28.8234 31.9996 27.4294C31.9996 26.0359 30.8853 24.9205 29.4913 24.9205Z" fill="#016EDC"/>
<path d="M0.724525 4.29284C0.334234 4.29284 0 4.62762 0 5.01791C0 5.4082 0.334234 5.74243 0.724525 5.74243C1.11482 5.74243 1.44902 5.4082 1.44902 5.01791C1.44902 4.62762 1.11482 4.29284 0.724525 4.29284Z" fill="#016EDC"/>
<path d="M28.4316 19.9588C28.4316 20.3491 28.7659 20.6838 29.1562 20.6838C29.547 20.6838 29.8812 20.3491 29.8812 19.9588C29.8812 19.5685 29.547 19.2343 29.1562 19.2343C28.7659 19.2343 28.4316 19.5685 28.4316 19.9588Z" fill="#016EDC"/>
<path d="M28.4321 2.84375C28.8224 2.84375 29.1566 2.50897 29.1566 2.11868C29.1566 1.72895 28.8224 1.39416 28.4321 1.39416C28.0418 1.39416 27.707 1.72895 27.707 2.11868C27.7631 2.56505 28.0418 2.84375 28.4321 2.84375Z" fill="#016EDC"/>
<path d="M6.41061 28.4887C6.02032 28.4887 5.68555 28.8234 5.68555 29.2137C5.68555 29.6035 6.02032 29.9382 6.41061 29.9382C6.8009 29.9382 7.13514 29.6035 7.13514 29.2137C7.13514 28.7674 6.8009 28.4887 6.41061 28.4887Z" fill="#016EDC"/>
<path d="M4.96071 15.6663C4.96071 15.276 4.62649 14.9413 4.23676 14.9413C3.84647 14.9413 3.51172 15.276 3.51172 15.6663C3.51172 16.0566 3.84647 16.3914 4.23676 16.3914C4.68201 16.3914 4.96071 16.0566 4.96071 15.6663Z" fill="#016EDC"/>
</svg>
