<svg width="32" height="36" viewBox="0 0 32 36" fill="none" xmlns="http://www.w3.org/2000/svg">
<path d="M16.7761 14.8656C18.0301 14.8656 19.0451 15.8806 19.0451 17.1345C19.0451 18.3879 18.0301 19.4035 16.7761 19.4035C15.5222 19.4035 14.5078 18.3879 14.5078 17.1345C14.5078 15.8806 15.5222 14.8656 16.7761 14.8656ZM16.7761 20.9556C18.8659 20.9556 20.5972 19.2237 20.5972 17.1345C20.5972 15.0448 18.8659 13.3732 16.7761 13.3732C14.6864 13.3732 12.9551 15.1045 12.9551 17.1943C12.9551 19.284 14.6864 20.9556 16.7761 20.9556Z" fill="#016EDC"/>
<path d="M30.4479 26.8059C30.4479 27.1643 30.1492 27.463 29.7914 27.463H27.3432V6.92525H29.7316C30.0901 6.92525 30.3888 7.22395 30.3888 7.58181L30.4479 26.8059ZM7.64166 17.9104H9.19434C9.55219 21.4925 12.418 24.3583 16.0001 24.7167V27.4033H7.64166V17.9104ZM3.04459 26.8059V7.52206C3.04459 7.16421 3.34328 6.8655 3.70173 6.8655H6.0896V27.4033H3.70173C3.34328 27.463 3.04459 27.1643 3.04459 26.8059ZM25.9106 16.4181H24.3579C24 12.836 21.1343 9.97024 17.5528 9.61179V6.92525H25.9106V16.4181ZM17.4924 24.7167C21.0751 24.3583 23.9403 21.4925 24.2987 17.9104H25.8508V27.4033H17.4924V24.7167ZM11.403 16.4181H10.6867C11.0451 13.6718 13.194 11.4626 16.0001 11.1041V11.4028C16.0001 11.821 16.3579 12.1789 16.7761 12.1789C17.1943 12.1789 17.5528 11.821 17.5528 11.4028V11.1041C20.2985 11.4626 22.5071 13.6121 22.8662 16.4181H22.1493C21.7317 16.4181 21.3732 16.7759 21.3732 17.1941C21.3732 17.6117 21.7317 17.9702 22.1493 17.9702H22.8662C22.5071 20.7164 20.3588 22.9257 17.6119 23.2835V22.9848C17.6119 22.5672 17.2541 22.2088 16.8365 22.2088C16.4183 22.2088 16.0001 22.4477 16.0001 22.8659V23.1646C13.2538 22.8062 11.0451 20.6567 10.7464 17.9104H11.4627C11.8809 17.9104 12.2388 17.552 12.2388 17.1344C12.179 16.7759 11.8212 16.4181 11.403 16.4181ZM7.64166 16.4181V6.92525H16.0001V9.61179C12.418 9.97024 9.55219 12.836 9.19434 16.4181H7.64166ZM29.8511 5.37317C21.6122 5.37317 11.9401 5.37317 3.70173 5.37317C2.5075 5.37317 1.55225 6.32844 1.55225 7.52206V26.8059C1.55225 28.0001 2.5075 28.9553 3.70173 28.9553C11.9401 28.9553 21.6122 28.9553 29.8511 28.9553C31.0447 28.9553 32 28.0001 32 26.8059V7.52206C32 6.32844 31.0447 5.37317 29.8511 5.37317Z" fill="#016EDC"/>
<path d="M28.179 8.41797H29.6719V9.91089H28.179V8.41797Z" fill="#016EDC"/>
<path d="M9.91054 3.10449C10.3281 3.10449 10.6866 2.74665 10.6866 2.32846C10.6866 1.91028 10.3281 1.55242 9.91054 1.55242C9.49235 1.55242 9.13452 1.91028 9.13452 2.32846C9.13452 2.74665 9.49235 3.10449 9.91054 3.10449Z" fill="#016EDC"/>
<path d="M16.7763 31.2846C16.3581 31.2846 16.0002 31.6424 16.0002 32.0606C16.0002 32.4782 16.3581 32.8367 16.7763 32.8367C17.1945 32.8367 17.5529 32.4782 17.5529 32.0606C17.4926 31.5827 17.1945 31.2846 16.7763 31.2846Z" fill="#016EDC"/>
<path d="M26.6867 30.5074C26.2691 30.5074 25.9106 30.8658 25.9106 31.284C25.9106 31.7016 26.2691 32.0601 26.6867 32.0601C27.1049 32.0601 27.4627 31.7016 27.4627 31.284C27.4036 30.8658 27.1049 30.5074 26.6867 30.5074Z" fill="#016EDC"/>
<path d="M0.776048 29.732C0.357861 29.732 0 30.0904 0 30.508C0 30.9262 0.357861 31.2847 0.776048 31.2847C1.19364 31.2847 1.5521 30.9262 1.5521 30.508C1.5521 30.0904 1.19364 29.732 0.776048 29.732Z" fill="#016EDC"/>
<path d="M28.179 10.6869H29.6719V12.1792H28.179V10.6869Z" fill="#016EDC"/>
<path d="M28.179 13.0146H29.6719V14.5076H28.179V13.0146Z" fill="#016EDC"/>
<path d="M28.179 15.2835H29.6719V16.7759H28.179V15.2835Z" fill="#016EDC"/>
<path d="M28.179 17.5525H29.6719V19.0454H28.179V17.5525Z" fill="#016EDC"/>
<path d="M28.179 19.8214H29.6719V21.3137H28.179V19.8214Z" fill="#016EDC"/>
<path d="M28.179 22.1492H29.6719V23.6421H28.179V22.1492Z" fill="#016EDC"/>
<path d="M28.179 24.4181H29.6719V25.9104H28.179V24.4181Z" fill="#016EDC"/>
<path d="M3.82056 8.41797H5.37323V9.91089H3.82056V8.41797Z" fill="#016EDC"/>
<path d="M3.82056 10.6869H5.37323V12.1792H3.82056V10.6869Z" fill="#016EDC"/>
<path d="M3.82056 13.0146H5.37323V14.5076H3.82056V13.0146Z" fill="#016EDC"/>
<path d="M3.82056 15.2835H5.37323V16.7759H3.82056V15.2835Z" fill="#016EDC"/>
<path d="M3.82056 17.5525H5.37323V19.0454H3.82056V17.5525Z" fill="#016EDC"/>
<path d="M3.82056 19.8214H5.37323V21.3137H3.82056V19.8214Z" fill="#016EDC"/>
<path d="M3.82056 22.1492H5.37323V23.6421H3.82056V22.1492Z" fill="#016EDC"/>
<path d="M3.82056 24.4181H5.37323V25.9104H3.82056V24.4181Z" fill="#016EDC"/>
<path d="M7.64168 33.5528C7.22408 33.5528 6.86563 33.195 6.86563 32.7768C6.86563 32.3586 7.22408 32.0008 7.64168 32.0008C8.05987 32.0008 8.41773 32.3586 8.41773 32.7768C8.41773 33.195 8.05987 33.5528 7.64168 33.5528ZM7.64168 30.5078C6.3883 30.5078 5.37329 31.5228 5.37329 32.7768C5.37329 34.0308 6.3883 35.0452 7.64168 35.0452C8.89565 35.0452 9.91064 34.0308 9.91064 32.7768C9.91064 31.5228 8.89565 30.5078 7.64168 30.5078Z" fill="#016EDC"/>
<path d="M27.0453 1.55267C27.2245 1.55267 27.4037 1.7319 27.4037 1.91053C27.4037 2.09034 27.2245 2.26897 27.0453 2.26897C26.8063 2.26897 26.6868 2.09034 26.6868 1.91053C26.6868 1.7319 26.8063 1.55267 27.0453 1.55267ZM27.0453 3.82104C28.12 3.82104 28.9558 2.98527 28.9558 1.91053C28.9558 0.836379 28.12 7.86781e-06 27.0453 7.86781e-06C25.9705 7.86781e-06 25.1348 0.836379 25.1348 1.91053C25.1348 2.98527 25.9705 3.82104 27.0453 3.82104Z" fill="#016EDC"/>
</svg>
