<svg width="32" height="31" viewBox="0 0 32 31" fill="none" xmlns="http://www.w3.org/2000/svg">
<path d="M26.5755 26.0491C25.6714 26.9533 26.2928 28.4795 27.5922 28.4795C28.8928 28.4795 29.5137 26.8973 28.6101 26.0491C28.0446 25.4843 27.1404 25.4843 26.5755 26.0491Z" fill="#016EDC"/>
<path d="M27.4798 29.2707C26.8012 29.2707 26.1798 28.988 25.728 28.4797L22.2244 24.2975L24.8238 21.6987L29.0054 25.2583C29.5137 25.6541 29.7964 26.2755 29.7964 26.8975C29.853 28.1969 28.7798 29.2707 27.4798 29.2707ZM24.7673 15.5951L24.0893 20.3422L20.8685 23.5636L15.7828 24.5803C16.4042 24.0154 13.9179 26.5017 24.7673 15.5951ZM11.7703 26.5582C11.7138 26.6713 11.6007 26.6713 11.5441 26.6713C11.2054 26.6713 11.0358 26.2755 11.2614 26.0493L26.0673 11.2445C26.2369 11.0749 26.4625 11.0749 26.5756 11.2445C26.6887 11.4141 26.7452 11.6398 26.5756 11.7529L25.2762 13.0523C11.2054 27.1231 26.8012 11.5272 13.0132 25.3154L11.7703 26.5582ZM5.15901 20.4553C4.98938 20.2856 4.98938 20.06 5.15901 19.9469C18.7209 6.38439 10.3013 14.8041 19.9638 5.14095C20.0774 5.02842 20.1334 5.02842 20.2465 5.02842C20.5858 5.02842 20.6988 5.42369 20.5292 5.65043C18.9471 7.17548 24.8804 1.24268 5.66736 20.4553C5.55427 20.5683 5.32865 20.5683 5.15901 20.4553ZM1.59892 14.2957C1.768 14.1261 1.99473 14.1261 2.1638 14.2957C2.61561 14.7481 3.40726 14.4088 3.40726 13.7874C3.40726 13.6177 3.35071 13.3921 3.18108 13.279C3.01144 13.1094 3.01144 12.8832 3.18108 12.7136C3.35071 12.5439 3.57687 12.5439 3.74651 12.7136L7.02334 15.991L4.8763 18.1386L1.59892 14.8612C1.48583 14.6915 1.48583 14.4654 1.59892 14.2957ZM4.81977 11.1314C4.9894 10.9618 5.21557 10.9618 5.38465 11.1314C5.66737 11.4141 6.11974 11.4141 6.40247 11.1314C6.68464 10.8487 6.68464 10.3969 6.40247 10.1142C6.23227 9.94508 6.23227 9.71834 6.40247 9.54926C6.5721 9.37962 6.79772 9.37962 6.96735 9.54926L10.2447 12.8267L9.67927 13.3921L8.66257 12.3743C8.37985 12.0921 7.92749 12.0921 7.64532 12.3743C7.3626 12.657 7.3626 13.1094 7.64532 13.3921L8.66257 14.4088L8.09714 14.9737L4.81977 11.6963C4.65013 11.5272 4.65013 11.3005 4.81977 11.1314ZM8.26677 7.85401C8.4364 7.85401 8.54948 7.96655 8.54948 7.96655L9.79236 9.20998C10.0751 9.49271 10.5274 9.49271 10.8096 9.20998C11.0923 8.92726 11.0923 8.47546 10.8096 8.19329L9.56618 6.94985C9.34056 6.66713 9.51018 6.27186 9.8489 6.27186C9.96198 6.27186 10.0751 6.32841 10.1316 6.38439L12.3918 8.6451C12.6745 8.92727 13.1268 8.92727 13.409 8.6451C13.6912 8.36237 13.6912 7.91056 13.409 7.62783L11.1483 5.3677C10.9227 5.14096 11.0923 4.68971 11.4311 4.68971C11.5441 4.68971 11.6572 4.74569 11.7138 4.80224L14.9917 8.07964L11.2614 11.81L7.98405 8.53201C7.70189 8.24928 7.9275 7.85401 8.26677 7.85401ZM13.2959 3.22009L16.5738 6.49748L16.0084 7.06294L12.7305 3.78555C12.6745 3.6719 12.6179 3.61591 12.6179 3.50282C12.6179 3.10756 13.0703 2.93792 13.2959 3.22009ZM14.8781 1.63793L18.156 4.91533L17.5905 5.48023L14.3132 2.20283C14.2566 2.14629 14.2001 2.03375 14.2001 1.92066C14.2001 1.52485 14.5959 1.35521 14.8781 1.63793ZM11.0358 24.2975L7.4757 20.738L20.6988 7.45819L24.2584 11.0189C22.1114 13.1654 14.087 21.1898 11.0358 24.2975ZM29.9095 24.185L25.5589 20.4553L26.5191 13.957L27.5923 12.8267C28.7226 11.6963 27.9316 9.77544 26.2929 9.77544C25.9542 9.77544 25.6149 9.88798 25.2762 10.0576L21.6596 6.4415C21.8286 6.15877 21.9423 5.8195 21.9423 5.42369C21.9423 3.95462 20.303 3.16355 19.1167 3.89864L15.7828 0.564135C14.709 -0.509109 12.8441 0.112326 12.6745 1.63793C11.8269 1.75102 11.2054 2.42901 11.0924 3.22009C10.3013 3.33318 9.62329 3.95462 9.5102 4.80224C8.71856 4.91533 8.04114 5.53733 7.92749 6.38439C7.13642 6.49748 6.45845 7.11948 6.34536 7.96655C5.55429 8.07964 4.8763 8.70164 4.76321 9.54926C3.91559 9.66235 3.29417 10.2838 3.18108 11.1314C2.33346 11.2445 1.71201 11.9225 1.59892 12.7136C0.129871 12.8832 -0.548092 14.7481 0.525144 15.8219L3.85905 19.1558C3.06798 20.3422 3.9156 21.9814 5.38465 21.9814C5.72392 21.9814 6.06264 21.8678 6.40247 21.6987L10.0185 25.3154C9.84891 25.5981 9.73638 25.9368 9.73638 26.3321C9.73638 27.9142 11.6572 28.7624 12.7876 27.6315L13.9179 26.5017L20.9245 25.0886L24.6542 29.4404C26.0673 31.0791 28.553 31.1922 30.1351 29.666C31.6613 28.0838 31.6048 25.5981 29.9095 24.185Z" fill="#016EDC"/>
<path d="M21.2071 11.0196C20.9243 10.7369 20.4725 10.7369 20.1904 11.0196L11.0357 20.1733C10.7529 20.456 10.7529 20.9084 11.0357 21.1905C11.3184 21.4733 11.7702 21.4733 12.0529 21.1905L21.2071 12.0363C21.4898 11.7536 21.4898 11.3013 21.2071 11.0196Z" fill="#016EDC"/>
<path d="M4.59353 28.8751C4.19772 28.8751 3.859 28.5364 3.859 28.1411C3.859 27.7447 4.19772 27.406 4.59353 27.406C4.98935 27.406 5.32861 27.7447 5.32861 28.1411C5.27151 28.5364 4.98935 28.8751 4.59353 28.8751ZM4.59353 25.9935C3.40721 25.9935 2.44592 26.9537 2.44592 28.1411C2.44592 29.3274 3.40721 30.2876 4.59353 30.2876C5.78042 30.2876 6.74112 29.3274 6.74112 28.1411C6.74112 26.9537 5.78042 25.9935 4.59353 25.9935Z" fill="#016EDC"/>
<path d="M4.19753 2.20305C4.42427 2.20305 4.53738 2.37268 4.53738 2.54232C4.53738 2.76794 4.36773 2.88102 4.19753 2.88102C4.02846 2.88102 3.85884 2.71196 3.85884 2.54232C3.85884 2.37268 4.02846 2.20305 4.19753 2.20305ZM4.19753 4.3501C5.21535 4.3501 6.00642 3.55902 6.00642 2.54232C6.00642 1.52506 5.21535 0.733984 4.19753 0.733984C3.18084 0.733984 2.38977 1.52506 2.38977 2.54232C2.38977 3.55902 3.23683 4.3501 4.19753 4.3501Z" fill="#016EDC"/>
<path d="M29.4572 1.46902C30.0791 1.46902 30.531 1.97738 30.531 2.54283C30.531 3.16427 30.0226 3.61663 29.4572 3.61663C28.8928 3.61663 28.3833 3.10829 28.3833 2.54283C28.3274 1.97738 28.8357 1.46902 29.4572 1.46902ZM29.4572 5.08569C30.8702 5.08569 32 3.95535 32 2.54283C32 1.12976 30.8702 -4.19617e-05 29.4572 -4.19617e-05C28.0446 -4.19617e-05 26.9143 1.12976 26.9143 2.54283C26.9143 3.95535 28.0446 5.08569 29.4572 5.08569Z" fill="#016EDC"/>
<path d="M30.5309 7.17554C30.475 6.72373 30.1351 6.44156 29.6833 6.49754C29.2315 6.55409 28.9488 6.89281 29.0053 7.34517C29.0619 7.79754 29.4011 8.0797 29.8529 8.02371C30.2488 8.02371 30.5309 7.6279 30.5309 7.17554Z" fill="#016EDC"/>
<path d="M28.9489 16.4997C28.4971 16.5557 28.2144 16.8955 28.271 17.3473C28.3275 17.7991 28.6662 18.0818 29.1186 18.0253C29.5709 17.9688 29.8531 17.6295 29.7966 17.1771C29.74 16.7819 29.3442 16.4997 28.9489 16.4997Z" fill="#016EDC"/>
<path d="M21.1511 1.58154C21.6024 1.525 21.8851 1.18573 21.8285 0.733927C21.7726 0.282124 21.4327 -0.000610113 20.9815 0.0553755C20.5291 0.112481 20.2464 0.451762 20.3029 0.903565C20.3595 1.29882 20.7548 1.58154 21.1511 1.58154Z" fill="#016EDC"/>
<path d="M3.18097 7.34497C3.63277 7.28843 3.91548 6.9497 3.85894 6.49734C3.80239 6.04554 3.46368 5.76282 3.01132 5.81936C2.55951 5.87591 2.2768 6.21462 2.33334 6.66698C2.33334 7.0628 2.72861 7.34497 3.18097 7.34497Z" fill="#016EDC"/>
<path d="M0.807833 22.3766C0.355473 22.4332 0.072755 22.7724 0.12986 23.2243C0.185845 23.6766 0.525109 23.9588 0.976909 23.9022C1.42927 23.8463 1.712 23.5064 1.65546 23.0552C1.65546 22.6594 1.25963 22.3201 0.807833 22.3766Z" fill="#016EDC"/>
<path d="M18.9471 28.8752C18.4947 28.9323 18.2125 29.271 18.2685 29.7234C18.3256 30.1752 18.6643 30.4574 19.1167 30.4014C19.5685 30.3449 19.8507 30.0056 19.7947 29.5538C19.7382 29.1014 19.3994 28.8187 18.9471 28.8752Z" fill="#016EDC"/>
</svg>
