<svg width="26" height="26" viewBox="0 0 26 26" fill="none" xmlns="http://www.w3.org/2000/svg">
<path d="M4.85595 17.6343C3.12558 15.9028 2.25983 15.0382 1.93839 13.9148C1.61583 12.7915 1.89135 11.5987 2.44238 9.21425L2.75934 7.8389C3.22189 5.83189 3.45373 4.82838 4.14028 4.14071C4.82683 3.45304 5.83146 3.22232 7.83848 2.75976L9.21382 2.44169C11.5994 1.89177 12.7911 1.61626 13.9144 1.93769C15.0377 2.26025 15.9024 3.126 17.6328 4.85638L19.6823 6.90595C22.6962 9.91872 24.2004 11.424 24.2004 13.2944C24.2004 15.1659 22.6951 16.6711 19.6834 19.6828C16.6707 22.6955 15.1654 24.2008 13.2939 24.2008C11.4236 24.2008 9.91717 22.6955 6.90553 19.6839L4.85595 17.6343Z" stroke="#016EDC" stroke-width="2"/>
<path d="M10.7829 11.0888C11.6577 10.214 11.6577 8.79575 10.7829 7.92098C9.90819 7.04622 8.48991 7.04622 7.61515 7.92098C6.74039 8.79575 6.74039 10.214 7.61515 11.0888C8.48991 11.9635 9.90819 11.9635 10.7829 11.0888Z" stroke="#016EDC" stroke-width="2"/>
<path d="M12.4863 20.2802L20.3027 12.4627" stroke="#016EDC" stroke-width="2" stroke-linecap="round"/>
</svg>
