<svg width="33" height="34" viewBox="0 0 33 34" fill="none" xmlns="http://www.w3.org/2000/svg">
<path d="M16.7748 32.212C8.71866 32.212 2.18657 25.6795 2.18657 17.6234C2.18657 9.56731 8.71866 3.03476 16.7748 3.03476C24.8316 3.03476 31.3636 9.56731 31.3636 17.6234C31.3636 25.6795 24.8316 32.212 16.7748 32.212ZM28.0431 6.35578C21.7828 0.0955696 11.7129 0.0955696 5.45262 6.35578C-0.807123 12.6154 -0.807123 22.6858 5.45262 28.9455C11.7129 35.2057 21.7828 35.2057 28.0431 28.9455C34.3029 22.6858 34.3029 12.6154 28.0431 6.35578Z" fill="#016EDC"/>
<path d="M16.774 5.15733C16.3932 5.15733 16.0664 5.4836 16.0664 5.86489C16.0664 6.24617 16.3932 6.57246 16.774 6.57246C22.9253 6.57246 27.8788 11.5265 27.8788 17.6772C27.8788 18.0579 28.2057 18.3848 28.5864 18.3848C28.9677 18.3848 29.2945 18.0579 29.2945 17.6772C29.2945 10.7639 23.6874 5.15733 16.774 5.15733Z" fill="#016EDC"/>
<path d="M16.7739 28.7277C10.6231 28.7277 5.66959 23.7198 5.66959 17.623C5.66959 17.2422 5.34276 16.9154 4.96147 16.9154C4.58072 16.9154 4.25391 17.2422 4.25391 17.623C4.25391 24.5363 9.86108 30.1428 16.7739 30.1428C17.1552 30.1428 17.482 29.8166 17.482 29.4353C17.482 29.0545 17.1552 28.7277 16.7739 28.7277Z" fill="#016EDC"/>
<path d="M16.774 7.22554C16.3932 7.22554 16.0664 7.55236 16.0664 7.93365C16.0664 8.3144 16.3932 8.64121 16.774 8.64121C21.7275 8.64121 25.8106 12.6692 25.8106 17.6772C25.8106 18.0579 26.1369 18.3848 26.5182 18.3848C26.8989 18.3848 27.2258 18.0579 27.2258 17.6772C27.1713 11.9072 22.4896 7.22554 16.774 7.22554Z" fill="#016EDC"/>
<path d="M16.7755 26.6591C11.8219 26.6591 7.73936 22.631 7.73936 17.6231C7.73936 17.2423 7.41309 16.9155 7.0318 16.9155C6.65051 16.9155 6.32422 17.2423 6.32422 17.6231C6.32422 23.3386 11.006 28.0203 16.7215 28.0203C17.1023 28.0203 17.4291 27.6934 17.4291 27.3127C17.4836 26.9859 17.1568 26.6591 16.7755 26.6591Z" fill="#016EDC"/>
<path d="M16.774 9.2943C16.3932 9.2943 16.0664 9.62111 16.0664 10.0019C16.0664 10.3831 16.3932 10.7094 16.774 10.7094C20.5847 10.7094 23.7418 13.8126 23.7418 17.6772C23.7418 18.0579 24.0687 18.3848 24.4494 18.3848C24.8307 18.3848 25.157 18.0579 25.157 17.6772C25.1025 13.0505 21.3468 9.2943 16.774 9.2943Z" fill="#016EDC"/>
<path d="M16.7756 24.5905C12.9654 24.5905 9.80826 21.4874 9.80826 17.6228C9.80826 17.242 9.48143 16.9152 9.10068 16.9152C8.71939 16.9152 8.39258 17.242 8.39258 17.6228C8.39258 22.1955 12.1489 25.9512 16.7216 25.9512C17.1024 25.9512 17.4292 25.6249 17.4292 25.2436C17.4837 24.9168 17.1569 24.5905 16.7756 24.5905Z" fill="#016EDC"/>
<path d="M16.7743 21.1074C14.8695 21.1074 13.2909 19.5288 13.2909 17.6235C13.2909 15.7187 14.8695 14.1396 16.7743 14.1396C18.6797 14.1396 20.2582 15.7187 20.2582 17.6235C20.2582 19.5288 18.6797 21.1074 16.7743 21.1074ZM16.7743 12.7789C14.1069 12.7789 11.9297 14.9561 11.9297 17.6235C11.9297 20.2909 14.1069 22.468 16.7743 22.468C19.4417 22.468 21.6194 20.2909 21.6194 17.6235C21.6194 14.9561 19.4417 12.7789 16.7743 12.7789Z" fill="#016EDC"/>
<path d="M16.7753 18.3302C16.3945 18.3302 16.0677 18.0039 16.0677 17.6226C16.0677 17.2419 16.3945 16.9151 16.7753 16.9151C17.1566 16.9151 17.4834 17.2419 17.4834 17.6226C17.4834 18.0039 17.1566 18.3302 16.7753 18.3302ZM16.7753 15.5544C15.6325 15.5544 14.707 16.4799 14.707 17.6226C14.707 18.766 15.6325 19.6914 16.7753 19.6914C17.9186 19.6914 18.8441 18.766 18.8441 17.6226C18.8441 16.4799 17.9186 15.5544 16.7753 15.5544Z" fill="#016EDC"/>
<path d="M4.2538 2.38193C4.63509 2.38193 4.96136 2.7082 4.96136 3.08949C4.96136 3.47024 4.63509 3.79706 4.2538 3.79706C3.87305 3.79706 3.54622 3.47024 3.54622 3.08949C3.54622 2.7082 3.87305 2.38193 4.2538 2.38193ZM4.2538 5.15771C5.39713 5.15771 6.32257 4.23227 6.32257 3.08949C6.32257 1.94617 5.39713 0.966269 4.2538 0.966269C3.111 0.966269 2.18555 1.8917 2.18555 3.03448C2.18555 4.1778 3.111 5.15771 4.2538 5.15771Z" fill="#016EDC"/>
<path d="M29.6209 32.2118C29.4575 32.2118 29.2946 32.0484 29.2946 31.885C29.2946 31.7216 29.4575 31.5587 29.6209 31.5587C29.7843 31.5587 29.9477 31.7216 29.9477 31.885C29.9477 32.0484 29.7843 32.2118 29.6209 32.2118ZM29.6209 30.1431C28.641 30.1431 27.8789 30.9051 27.8789 31.885C27.8789 32.8649 28.641 33.627 29.6209 33.627C30.6008 33.627 31.3628 32.8649 31.3628 31.885C31.3628 30.9051 30.5463 30.1431 29.6209 30.1431Z" fill="#016EDC"/>
<path d="M28.5869 4.4502C28.9685 4.4502 29.2955 4.12318 29.2955 3.74219C29.2955 3.36066 28.9685 3.03363 28.5869 3.03363C28.2059 3.03363 27.8789 3.36066 27.8789 3.74219C27.8789 4.12318 28.2059 4.4502 28.5869 4.4502Z" fill="#016EDC"/>
<path d="M31.3643 5.80981C31.7555 5.80981 32.0723 6.12712 32.0723 6.51783C32.0723 6.90907 31.7555 7.22583 31.3643 7.22583C30.973 7.22583 30.6562 6.90907 30.6562 6.51783C30.6562 6.12712 30.973 5.80981 31.3643 5.80981Z" fill="#016EDC"/>
<path d="M1.53419 7.93433C1.91518 7.93433 2.24219 7.6073 2.24219 7.22577C2.24219 6.84478 1.91518 6.51776 1.53419 6.51776C1.15266 6.51776 0.826172 6.84478 0.826172 7.22577C0.826172 7.6073 1.09816 7.93433 1.53419 7.93433Z" fill="#016EDC"/>
<path d="M31.3643 27.3659C30.9833 27.3659 30.6562 27.6929 30.6562 28.0745C30.6562 28.4555 30.9833 28.7825 31.3643 28.7825C31.7458 28.7825 32.0723 28.4555 32.0723 28.0745C32.0723 27.6929 31.7458 27.3659 31.3643 27.3659Z" fill="#016EDC"/>
<path d="M6.37793 31.5034C5.9964 31.5034 5.66992 31.8299 5.66992 32.2114C5.66992 32.5924 5.9964 32.9194 6.37793 32.9194C6.75891 32.9194 7.08594 32.5924 7.08594 32.2114C7.08594 31.8299 6.75891 31.5034 6.37793 31.5034Z" fill="#016EDC"/>
<path d="M2.89356 28.074C2.51204 28.074 2.18555 28.4004 2.18555 28.782C2.18555 29.163 2.51204 29.49 2.89356 29.49C3.27509 29.49 3.60157 29.163 3.60157 28.782C3.60157 28.3459 3.27509 28.074 2.89356 28.074Z" fill="#016EDC"/>
</svg>
