<svg width="32" height="31" viewBox="0 0 32 31" fill="none" xmlns="http://www.w3.org/2000/svg">
<path d="M25.6878 29.1157H24.218C26.1774 27.2113 26.1774 24.055 24.218 22.1495H25.6878C27.5921 22.1495 29.1708 23.7283 29.1708 25.6326C29.1708 27.592 27.6471 29.1157 25.6878 29.1157ZM3.15732 29.1157C2.94003 29.1157 2.83058 28.9529 2.83058 28.7895C2.83058 28.6261 2.99395 28.4628 3.15732 28.4628H20.8444C21.2256 28.4628 21.5518 28.1366 21.5518 27.7554C21.5518 27.3747 21.2256 27.0474 20.8444 27.0474H3.86472V26.3406H18.7761C19.1573 26.3406 19.4835 26.0138 19.4835 25.6326C19.4835 25.252 19.1573 24.9258 18.7761 24.9258H3.86472V24.2178H8.38138C8.76257 24.2178 9.08931 23.8916 9.08931 23.5104C9.08931 23.1298 8.76257 22.803 8.38138 22.803H3.15732C2.94003 22.803 2.83058 22.6402 2.83058 22.4763C2.83058 22.3129 2.99395 22.1495 3.15732 22.1495C8.65365 22.1495 15.6742 22.1495 20.8444 22.1495C22.7493 22.1495 24.3274 23.7283 24.3274 25.6326C24.3274 27.5381 22.7493 29.1157 20.8444 29.1157C15.6742 29.1157 8.65365 29.1157 3.15732 29.1157ZM25.6878 20.7892C17.7425 20.7892 11.0487 20.7892 3.10287 20.7892C2.1232 20.7892 1.36133 21.5511 1.36133 22.5307C1.36133 23.2387 1.79645 23.8366 2.39547 24.1089V27.2113C1.79645 27.4831 1.36133 28.0816 1.36133 28.7895C1.36133 29.7687 2.1232 30.5305 3.10287 30.5305C17.0896 30.5305 17.7964 30.5305 25.6878 30.5305C28.354 30.5305 30.5312 28.3539 30.5312 25.6876C30.5856 22.9664 28.409 20.7892 25.6878 20.7892Z" fill="#016EDC"/>
<path d="M22.2589 25.6326C22.2589 26.0138 22.5852 26.3406 22.9663 26.3406C23.347 26.3406 23.6743 26.0138 23.6743 25.6326C23.6743 24.1089 22.4218 22.8575 20.8981 22.8575H12.5172C12.1365 22.8575 11.8103 23.1837 11.8103 23.5649C11.8103 23.9455 12.1365 24.2723 12.5172 24.2723H20.8441C21.606 24.2723 22.2589 24.8708 22.2589 25.6326Z" fill="#016EDC"/>
<path d="M11.1571 16.5994C10.667 16.5994 10.1769 16.3277 9.95958 15.892H28.1906V16.5994H11.1571ZM28.8441 18.7222C23.3467 18.7222 16.3267 18.7222 11.1571 18.7222C9.25218 18.7222 7.67401 17.144 7.67401 15.2391C7.67401 13.3347 9.25218 11.756 11.1571 11.756C16.3267 11.756 23.3467 11.756 28.8441 11.756C29.007 11.756 29.1703 11.9194 29.1703 12.0827C29.1703 12.3006 29.007 12.4089 28.8441 12.4089H21.5513C21.1701 12.4089 20.8439 12.7357 20.8439 13.1164C20.8439 13.4981 21.1701 13.8243 21.5513 13.8243H28.1362V14.5317H9.95958C10.1769 14.0966 10.667 13.8243 11.1571 13.8243H14.6396C15.0208 13.8243 15.347 13.4981 15.347 13.1164C15.347 12.7357 15.0208 12.4089 14.6396 12.4089H11.1571C9.63337 12.4089 8.38086 13.6609 8.38086 15.1846C8.38086 16.7089 9.63337 17.9603 11.1571 17.9603H28.8441C29.007 17.9603 29.1703 18.1237 29.1703 18.2865C29.1703 18.5588 29.007 18.7222 28.8441 18.7222ZM6.25868 18.7222C4.35432 18.7222 2.77614 17.144 2.77614 15.2391C2.77614 13.3347 4.35432 11.756 6.25868 11.756H7.72793C5.76911 13.6609 5.76911 16.7628 7.72793 18.7222H6.25868ZM30.5851 12.1372C30.5851 11.1575 29.8233 10.3957 28.8441 10.3957C20.8978 10.3957 14.2045 10.3957 6.25868 10.3957C3.59247 10.3957 1.41528 12.5729 1.41528 15.2391C1.41528 17.9059 3.59247 20.0825 6.25868 20.0825C14.0406 20.0825 14.803 20.0825 28.8441 20.0825C29.8233 20.0825 30.5851 19.3207 30.5851 18.341C30.5851 17.6336 30.1495 17.0351 29.551 16.7628V13.7154C30.1495 13.4431 30.5851 12.8446 30.5851 12.1372Z" fill="#016EDC"/>
<path d="M7.29295 5.55094H16.6536C17.0342 5.55094 17.3609 5.22473 17.3609 4.84407C17.3609 4.46287 17.0342 4.13614 16.6536 4.13614H7.29295V3.42927H18.7213C19.4832 3.42927 20.0822 4.02722 20.0822 4.84407C20.0822 5.60593 19.4292 6.25887 18.7213 6.25887H7.29295V5.55094ZM6.64002 1.36099C8.54438 1.36099 16.109 1.36099 18.7757 1.36099C19.7554 1.36099 20.6807 1.79611 21.3881 2.50351C21.6598 2.77579 22.0954 2.83025 22.3677 2.55796C22.64 2.28622 22.6939 1.85057 22.4216 1.57828C22.3677 1.52383 22.2588 1.41491 22.2043 1.36099H23.6191C25.524 1.36099 27.1022 2.93862 27.1022 4.84407C27.1022 6.74844 25.524 8.32716 23.6191 8.32716H22.1499C23.0751 7.45585 23.6191 6.20441 23.6191 4.84407C23.6191 4.46287 23.293 4.13614 22.9123 4.13614C22.5311 4.13614 22.2043 4.46287 22.2043 4.84407C22.2043 6.74844 20.6262 8.32716 18.7213 8.32716C17.4699 8.32716 9.46962 8.32716 6.58558 8.32716C6.42275 8.32716 6.25884 8.16378 6.25884 8.00041C6.25884 7.8365 6.42275 7.67367 6.58558 7.67367H18.7213C20.245 7.67367 21.497 6.4217 21.497 4.89799C21.497 3.37427 20.245 2.12284 18.7213 2.12284H6.64002C6.42274 2.12284 6.31328 1.95947 6.31328 1.7961C6.31328 1.63327 6.42274 1.36099 6.64002 1.36099ZM4.89795 7.94596C4.89795 8.92564 5.66034 9.6875 6.64002 9.6875C12.3542 9.6875 18.6124 9.6875 23.6741 9.6875C26.3404 9.6875 28.517 7.5103 28.517 4.84407C28.517 2.17676 26.3404 0.00011158 23.6741 0.00011158C20.4084 0.00011158 10.0142 0.00011158 6.64002 0.00011158C5.66034 0.00011158 4.89795 0.761958 4.89795 1.74164C4.89795 2.44904 5.33361 3.04807 5.93209 3.32035V6.36778C5.33361 6.64007 4.89795 7.23856 4.89795 7.94596Z" fill="#016EDC"/>
<path d="M2.449 5.55062C2.66737 5.55062 2.77627 5.714 2.77627 5.87791C2.77627 6.09519 2.61291 6.2041 2.449 6.2041C2.28617 6.2041 2.12281 6.04074 2.12281 5.87791C2.12281 5.65954 2.28617 5.55062 2.449 5.55062ZM2.449 7.6189C3.42922 7.6189 4.19107 6.85705 4.19107 5.87791C4.19107 4.89768 3.42922 4.13582 2.449 4.13582C1.46986 4.13582 0.708008 4.89768 0.708008 5.87791C0.708008 6.80259 1.52432 7.6189 2.449 7.6189Z" fill="#016EDC"/>
<path d="M30.2044 7.61921C30.4217 7.61921 30.5306 7.78259 30.5306 7.94596C30.5306 8.10879 30.3678 8.27216 30.2044 8.27216C30.0405 8.27216 29.8777 8.10879 29.8777 7.94596C29.8777 7.78259 30.0405 7.61921 30.2044 7.61921ZM30.2044 9.6875C31.1836 9.6875 31.9454 8.92564 31.9454 7.94596C31.9454 6.96627 31.1836 6.20441 30.2044 6.20441C29.2248 6.20441 28.4629 6.96627 28.4629 7.94596C28.4629 8.92564 29.2787 9.6875 30.2044 9.6875Z" fill="#016EDC"/>
<path d="M0.708008 10.3951C0.708008 10.7763 1.03421 11.1025 1.41541 11.1025C1.79607 11.1025 2.12281 10.7763 2.12281 10.3951C2.12281 10.0145 1.79607 9.68774 1.41541 9.68774C1.03421 9.68774 0.708008 10.0145 0.708008 10.3951Z" fill="#016EDC"/>
<path d="M31.2932 20.7895C31.6835 20.7895 32 21.1065 32 21.4969C32 21.8878 31.6835 22.2048 31.2932 22.2048C30.9023 22.2048 30.5852 21.8878 30.5852 21.4969C30.5852 21.1065 30.9023 20.7895 31.2932 20.7895Z" fill="#016EDC"/>
<path d="M0.707928 19.4282C0.326733 19.4282 0 19.7555 0 20.1361C0 20.5173 0.326733 20.8435 0.707928 20.8435C1.08912 20.8435 1.41533 20.5173 1.41533 20.1361C1.41533 19.7555 1.08912 19.4282 0.707928 19.4282Z" fill="#016EDC"/>
<path d="M29.8781 2.72192C30.2593 2.72192 30.5854 2.39572 30.5854 2.01452C30.5854 1.63386 30.2593 1.30712 29.8781 1.30712C29.4969 1.30712 29.1707 1.63386 29.1707 2.01452C29.1707 2.44963 29.4969 2.72192 29.8781 2.72192Z" fill="#016EDC"/>
</svg>
