<svg width="32" height="32" viewBox="0 0 32 32" fill="none" xmlns="http://www.w3.org/2000/svg">
<path d="M11.3327 18.6663C11.7747 18.6663 12.1986 18.4907 12.5112 18.1782C12.8238 17.8656 12.9993 17.4417 12.9993 16.9997C12.9993 16.5576 12.8238 16.1337 12.5112 15.8212C12.1986 15.5086 11.7747 15.333 11.3327 15.333C10.8907 15.333 10.4667 15.5086 10.1542 15.8212C9.84161 16.1337 9.66602 16.5576 9.66602 16.9997C9.66602 17.4417 9.84161 17.8656 10.1542 18.1782C10.4667 18.4907 10.8907 18.6663 11.3327 18.6663ZM11.3327 23.333C11.7747 23.333 12.1986 23.1574 12.5112 22.8449C12.8238 22.5323 12.9993 22.1084 12.9993 21.6663C12.9993 21.2243 12.8238 20.8004 12.5112 20.4878C12.1986 20.1753 11.7747 19.9997 11.3327 19.9997C10.8907 19.9997 10.4667 20.1753 10.1542 20.4878C9.84161 20.8004 9.66602 21.2243 9.66602 21.6663C9.66602 22.1084 9.84161 22.5323 10.1542 22.8449C10.4667 23.1574 10.8907 23.333 11.3327 23.333ZM17.666 16.9997C17.666 17.4417 17.4904 17.8656 17.1779 18.1782C16.8653 18.4907 16.4414 18.6663 15.9993 18.6663C15.5573 18.6663 15.1334 18.4907 14.8208 18.1782C14.5083 17.8656 14.3327 17.4417 14.3327 16.9997C14.3327 16.5576 14.5083 16.1337 14.8208 15.8212C15.1334 15.5086 15.5573 15.333 15.9993 15.333C16.4414 15.333 16.8653 15.5086 17.1779 15.8212C17.4904 16.1337 17.666 16.5576 17.666 16.9997ZM15.9993 23.333C16.4414 23.333 16.8653 23.1574 17.1779 22.8449C17.4904 22.5323 17.666 22.1084 17.666 21.6663C17.666 21.2243 17.4904 20.8004 17.1779 20.4878C16.8653 20.1753 16.4414 19.9997 15.9993 19.9997C15.5573 19.9997 15.1334 20.1753 14.8208 20.4878C14.5083 20.8004 14.3327 21.2243 14.3327 21.6663C14.3327 22.1084 14.5083 22.5323 14.8208 22.8449C15.1334 23.1574 15.5573 23.333 15.9993 23.333ZM22.3327 16.9997C22.3327 17.4417 22.1571 17.8656 21.8445 18.1782C21.532 18.4907 21.108 18.6663 20.666 18.6663C20.224 18.6663 19.8001 18.4907 19.4875 18.1782C19.1749 17.8656 18.9993 17.4417 18.9993 16.9997C18.9993 16.5576 19.1749 16.1337 19.4875 15.8212C19.8001 15.5086 20.224 15.333 20.666 15.333C21.108 15.333 21.532 15.5086 21.8445 15.8212C22.1571 16.1337 22.3327 16.5576 22.3327 16.9997Z" fill="#016EDC"/>
<path fill-rule="evenodd" clip-rule="evenodd" d="M10.666 4.33301C10.9312 4.33301 11.1856 4.43836 11.3731 4.6259C11.5607 4.81344 11.666 5.06779 11.666 5.33301V6.33301H20.3327V5.33301C20.3327 5.06779 20.438 4.81344 20.6256 4.6259C20.8131 4.43836 21.0675 4.33301 21.3327 4.33301C21.5979 4.33301 21.8523 4.43836 22.0398 4.6259C22.2273 4.81344 22.3327 5.06779 22.3327 5.33301V6.34367C22.5353 6.34901 22.7242 6.35879 22.8993 6.37301C23.406 6.41301 23.8807 6.50367 24.33 6.73301C25.0201 7.08457 25.5811 7.6456 25.9327 8.33567C26.162 8.78501 26.2527 9.25967 26.2927 9.76634C26.3327 10.253 26.3327 10.8463 26.3327 11.5597V21.773C26.3327 22.4863 26.3327 23.0797 26.2927 23.5663C26.2527 24.073 26.162 24.5477 25.9327 24.997C25.5815 25.6869 25.0209 26.2479 24.3313 26.5997C23.8807 26.829 23.406 26.9197 22.8993 26.9597C22.4127 26.9997 21.8193 26.9997 21.1073 26.9997H10.8927C10.1793 26.9997 9.58602 26.9997 9.09935 26.9597C8.59268 26.9197 8.11802 26.829 7.66868 26.5997C6.97902 26.2488 6.41803 25.6888 6.06602 24.9997C5.83668 24.549 5.74602 24.0743 5.70602 23.5677C5.66602 23.081 5.66602 22.4877 5.66602 21.7757V11.5597C5.66602 10.8463 5.66602 10.253 5.70602 9.76634C5.74602 9.25967 5.83668 8.78501 6.06602 8.33567C6.41758 7.6456 6.97861 7.08457 7.66868 6.73301C8.11802 6.50367 8.59268 6.41301 9.09935 6.37301C9.27446 6.35879 9.46335 6.34901 9.66602 6.34367V5.33301C9.66602 5.20169 9.69188 5.07165 9.74214 4.95032C9.79239 4.829 9.86605 4.71876 9.95891 4.6259C10.0518 4.53304 10.162 4.45938 10.2833 4.40913C10.4047 4.35887 10.5347 4.33301 10.666 4.33301ZM9.66602 8.66634V8.34367C9.53118 8.34782 9.39647 8.35538 9.26202 8.36634C8.87935 8.39701 8.69668 8.45301 8.57668 8.51434C8.26257 8.67422 8.00723 8.92956 7.84735 9.24367C7.78602 9.36367 7.73002 9.54634 7.69935 9.92901C7.66735 10.3237 7.66602 10.8357 7.66602 11.5997V12.333H24.3327V11.5997C24.3327 10.837 24.3327 10.3237 24.2993 9.92901C24.2687 9.54634 24.2127 9.36367 24.1513 9.24367C23.9915 8.92956 23.7361 8.67422 23.422 8.51434C23.302 8.45301 23.1193 8.39701 22.7353 8.36634C22.6013 8.3554 22.4671 8.34784 22.3327 8.34367V8.66634C22.3327 8.93156 22.2273 9.18591 22.0398 9.37345C21.8523 9.56098 21.5979 9.66634 21.3327 9.66634C21.0675 9.66634 20.8131 9.56098 20.6256 9.37345C20.438 9.18591 20.3327 8.93156 20.3327 8.66634V8.33301H11.666V8.66634C11.666 8.93156 11.5607 9.18591 11.3731 9.37345C11.1856 9.56098 10.9312 9.66634 10.666 9.66634C10.4008 9.66634 10.1464 9.56098 9.95891 9.37345C9.77137 9.18591 9.66602 8.93156 9.66602 8.66634ZM24.3327 13.6663H7.66602V21.733C7.66602 22.4957 7.66602 23.009 7.69935 23.4023C7.73002 23.7863 7.78602 23.969 7.84735 24.089C8.00735 24.4037 8.26202 24.6583 8.57668 24.8183C8.69668 24.8797 8.87935 24.9357 9.26202 24.9663C9.65668 24.9983 10.1687 24.9997 10.9327 24.9997H21.066C21.8287 24.9997 22.342 24.9997 22.7353 24.9663C23.1193 24.9357 23.302 24.8797 23.422 24.8183C23.7361 24.6585 23.9915 24.4031 24.1513 24.089C24.2127 23.969 24.2687 23.7863 24.2993 23.4023C24.3313 23.009 24.3327 22.4957 24.3327 21.733V13.6663Z" fill="#016EDC"/>
<path fill-rule="evenodd" clip-rule="evenodd" d="M13 10.333C13 10.0678 13.1054 9.81344 13.2929 9.6259C13.4804 9.43836 13.7348 9.33301 14 9.33301H18C18.2652 9.33301 18.5196 9.43836 18.7071 9.6259C18.8946 9.81344 19 10.0678 19 10.333C19 10.5982 18.8946 10.8526 18.7071 11.0401C18.5196 11.2277 18.2652 11.333 18 11.333H14C13.7348 11.333 13.4804 11.2277 13.2929 11.0401C13.1054 10.8526 13 10.5982 13 10.333Z" fill="#016EDC"/>
</svg>
