<svg width="32" height="33" viewBox="0 0 32 33" fill="none" xmlns="http://www.w3.org/2000/svg">
<path d="M15.034 25.9453C13.6769 25.8408 12.4243 25.4229 11.2233 24.7966C10.9104 24.6399 10.4925 24.7443 10.3358 25.0578C10.1796 25.3707 10.2841 25.7885 10.597 25.9453C11.9541 26.6761 13.364 27.0934 14.8779 27.2501C15.243 27.3024 15.5564 26.989 15.6086 26.6233C15.6609 26.3104 15.3997 25.997 15.034 25.9453Z" fill="#016EDC"/>
<path d="M22.5512 6.83853C22.2383 6.6301 21.8204 6.68234 21.6115 6.99524C21.403 7.30867 21.4548 7.72604 21.7682 7.93499C24.1173 9.60553 25.6311 12.2158 25.8923 15.0873C25.9445 15.4524 26.258 15.7136 26.6231 15.7136C26.9888 15.6609 27.25 15.348 27.25 14.9823C26.9365 11.6935 25.2137 8.71803 22.5512 6.83853Z" fill="#016EDC"/>
<path d="M30.6429 16.7054C30.5906 16.7054 29.2335 16.7054 29.2858 16.7054V15.4C29.338 15.4 30.6951 15.4 30.6429 15.4V16.7054ZM17.9576 29.1818V28.6594C17.9576 28.2943 17.6442 27.9809 17.279 27.9809H14.6165C14.2514 27.9809 13.9379 28.2943 13.9379 28.6594V29.1818C8.1955 28.2943 3.65399 23.7522 2.76649 18.0103H3.28833C3.65399 18.0103 3.9669 17.6964 3.9669 17.3312V14.6692C3.9669 14.3036 3.65399 13.9902 3.28833 13.9902H2.76649C3.65399 8.24824 8.1955 3.70673 13.9379 2.81923V3.34107C13.9379 3.70673 14.2514 4.01964 14.6165 4.01964H17.279C17.6442 4.01964 17.9576 3.70673 17.9576 3.34107V2.81923C23.7 3.70673 28.2415 8.24824 29.129 13.9902H28.6072C28.2415 13.9902 27.9286 14.3036 27.9286 14.6692V17.3312C27.9286 17.6964 28.2415 18.0103 28.6072 18.0103H29.129C28.2938 23.8045 23.7523 28.346 17.9576 29.1818ZM16.6527 30.6951H15.3473C15.3473 30.6434 15.3473 29.2862 15.3473 29.3902H16.6527V30.6951ZM1.30489 15.3478C1.35712 15.3478 2.71425 15.3478 2.60977 15.3478V16.6527C2.55754 16.6527 1.20041 16.6527 1.30489 16.6527V15.3478ZM2.19239 2.71475C1.87897 2.71475 1.61778 2.45356 1.61778 2.08842C1.61778 1.775 1.87897 1.51382 2.19239 1.51382C2.5053 1.51382 2.76649 1.775 2.76649 2.08842C2.81872 2.45356 2.5053 2.71475 2.19239 2.71475ZM16.6527 1.35763V2.71475H15.3473C15.3473 2.66251 15.3473 1.30487 15.3473 1.35763H16.6527ZM29.4942 1.51382C29.8076 1.51382 30.121 1.775 30.121 2.08842C30.121 2.40132 29.8598 2.71475 29.4942 2.71475C29.129 2.71475 28.8679 2.45356 28.8679 2.08842C28.8679 1.775 29.1813 1.51382 29.4942 1.51382ZM31.2692 14.0424H30.4862C29.8076 9.03128 26.6232 4.85491 22.2384 2.76647H27.7197C27.9809 3.49727 28.7117 4.01964 29.5464 4.01964C30.6429 4.01964 31.4781 3.13212 31.4781 2.08842C31.4781 1.0442 30.5906 0.156696 29.5464 0.156696C28.7117 0.156696 27.9809 0.678547 27.7197 1.40935H17.9576V0.678539C17.9576 0.313398 17.6442 -1.52588e-05 17.279 -1.52588e-05H14.6165C14.2514 -1.52588e-05 13.9379 0.313398 13.9379 0.678539V1.40935H4.01913C3.75847 0.678547 3.02766 0.156696 2.19239 0.156696C1.14817 0.156696 0.260657 1.0442 0.260657 2.08842C0.260657 3.13212 1.14817 4.01964 2.19239 4.01964C3.02766 4.01964 3.75847 3.49727 4.01913 2.76647H9.70933C5.32454 4.85491 2.14015 9.03128 1.46159 14.0424H0.678556C0.312898 14.0424 0 14.3563 0 14.7215V17.3835C0 17.7491 0.312898 18.0626 0.678556 18.0626H1.46159C2.3491 24.5353 7.4647 29.7036 13.9902 30.5911V31.3742C13.9902 31.7393 14.3031 32.0527 14.6687 32.0527H17.3313C17.6964 32.0527 18.0098 31.7393 18.0098 31.3742V30.5911C24.4831 29.7036 29.6509 24.5875 30.5384 18.0626H31.3214C31.6871 18.0626 32 17.7491 32 17.3835V14.7215C31.9478 14.3563 31.6349 14.0424 31.2692 14.0424Z" fill="#016EDC"/>
<path d="M28.9199 6.73377C28.9199 7.09943 29.2333 7.41284 29.599 7.41284C29.9641 7.41284 30.2776 7.09943 30.2776 6.73377C30.2776 6.36863 29.9641 6.05572 29.599 6.05572C29.1811 6.05572 28.9199 6.31691 28.9199 6.73377Z" fill="#016EDC"/>
<path d="M6.943 29.3379C6.57734 29.3379 6.26392 29.6514 6.26392 30.017C6.26392 30.3822 6.57734 30.6951 6.943 30.6951C7.30814 30.6951 7.62156 30.3822 7.62156 30.017C7.56932 29.6514 7.30814 29.3379 6.943 29.3379Z" fill="#016EDC"/>
<path d="M2.24424 6.05572C2.61921 6.05572 2.92332 6.35932 2.92332 6.73377C2.92332 7.10925 2.61921 7.41284 2.24424 7.41284C1.86979 7.41284 1.56567 7.10925 1.56567 6.73377C1.56567 6.35932 1.86979 6.05572 2.24424 6.05572Z" fill="#016EDC"/>
<path d="M2.60951 28.0333C2.4528 28.0333 2.29609 27.8765 2.29609 27.7198C2.29609 27.5636 2.4528 27.4069 2.60951 27.4069C2.81846 27.4069 2.92292 27.5636 2.92292 27.7198C2.92292 27.8765 2.76622 28.0333 2.60951 28.0333ZM2.60951 25.997C1.67028 25.997 0.938965 26.7278 0.938965 27.6681C0.938965 28.6073 1.67028 29.3381 2.60951 29.3381C3.54926 29.3381 4.28005 28.6073 4.28005 27.6681C4.22781 26.7806 3.49702 25.997 2.60951 25.997Z" fill="#016EDC"/>
<path d="M29.5464 28.0332C29.1813 28.0332 28.8679 27.7198 28.8679 27.3541C28.8679 26.989 29.1813 26.6761 29.5464 26.6761C29.9121 26.6761 30.225 26.989 30.225 27.3541C30.225 27.7198 29.9121 28.0332 29.5464 28.0332ZM29.5464 25.319C28.4505 25.319 27.563 26.2065 27.563 27.3024C27.563 28.3989 28.4505 29.2864 29.5464 29.2864C30.6429 29.2864 31.5304 28.3989 31.5304 27.3024C31.5304 26.2582 30.6429 25.319 29.5464 25.319Z" fill="#016EDC"/>
<path d="M23.0214 19.1586C22.9169 18.7935 22.499 18.6367 22.1856 18.7412C21.8727 18.8452 21.6637 19.2631 21.7682 19.576L22.6557 22.0296H20.4633L18.845 17.9577C18.7405 17.6965 18.4794 17.5403 18.2187 17.5403H13.7289C13.4682 17.5403 13.2071 17.6965 13.1026 17.9577L11.4843 22.0296H9.18741L14.1468 8.03938H17.6963L20.5678 16.2349C20.6723 16.6005 21.0897 16.7573 21.4031 16.6528C21.716 16.5488 21.9249 16.1309 21.8205 15.818L18.7928 7.15188C18.6883 6.89069 18.4271 6.73398 18.1665 6.73398H13.6767C13.4155 6.73398 13.1548 6.89069 13.0503 7.15188L7.62133 22.4475C7.46462 22.8654 7.77805 23.335 8.24766 23.335H11.8499C12.1111 23.335 12.3718 23.1782 12.4763 22.9171L14.0946 18.8452H17.6963L19.3146 22.9171C19.4191 23.1782 19.6803 23.335 19.9415 23.335H23.5432C24.0129 23.335 24.3263 22.8654 24.1696 22.4475L23.0214 19.1586Z" fill="#016EDC"/>
<path d="M15.452 14.8262L15.9221 13.3119L16.3917 14.8262H15.452ZM15.2953 10.806L13.9382 15.2958C13.7814 15.7137 14.1471 16.1311 14.5645 16.1311H17.2792C17.6966 16.1311 18.0623 15.7137 17.9056 15.2958L16.5484 10.806C16.3395 10.1797 15.452 10.1797 15.2953 10.806Z" fill="#016EDC"/>
</svg>
