<svg width="32" height="34" viewBox="0 0 32 34" fill="none" xmlns="http://www.w3.org/2000/svg">
<path d="M3.38089 26.721C2.82811 27.2738 2.82811 28.16 3.38089 28.7128C3.93477 29.2666 4.81987 29.2666 5.37374 28.7128C5.92762 28.16 5.92762 27.2738 5.37374 26.721C5.09681 26.4441 3.93477 26.1118 3.38089 26.721Z" fill="#016EDC"/>
<path d="M29.7286 26.3336C29.3414 26.3336 29.0096 26.0013 29.0096 25.6136C29.0096 21.9053 29.0096 23.7315 29.0096 18.972L30.4486 17.5879V25.6136C30.4486 26.0013 30.1163 26.3336 29.7286 26.3336ZM26.906 23.5105C26.5183 23.5105 26.186 23.1787 26.186 22.791V21.7946L27.6255 20.411V22.791C27.6255 23.1787 27.2932 23.5105 26.906 23.5105ZM16.2227 25.6136C13.7319 23.1228 11.7945 21.1859 9.30367 18.6951L6.42573 15.8166C5.65086 15.0417 5.42931 13.9904 5.65086 13.0489L14.3412 21.6838C14.5074 21.85 14.673 21.9054 14.8392 21.9054C15.4479 21.9054 15.7802 21.1305 15.3371 20.6879L6.3709 11.7207C6.42573 11.6099 6.42574 11.6647 7.36679 10.7242C9.02732 12.3848 19.7654 23.1228 21.3705 24.7285L20.4854 25.6136C19.2674 26.7761 17.3853 26.7761 16.2227 25.6136ZM11.8504 23.1787L10.8535 24.1746L7.86473 21.1859L8.86169 20.1894L11.8504 23.1787ZM6.81288 29.3777C6.25955 30.1526 5.37393 30.5957 4.43288 30.5957C2.71751 30.5957 1.33335 29.1008 1.49952 27.4402C1.55436 26.5551 1.99747 25.7803 2.66212 25.2818L6.75804 22.1817L9.91296 25.3372L6.81288 29.3777ZM16.3341 1.75752L16.832 2.25546L10.9094 8.17807C10.6324 8.455 10.6324 8.8981 10.9094 9.17394C11.1863 9.45087 11.6289 9.45087 11.9053 9.17394L17.7177 3.36266L15.2269 8.8981C14.95 9.50681 15.614 10.1155 16.2227 9.83859L21.6474 6.96009L21.8136 7.12626L17.9941 10.9458C17.5515 11.3889 17.8839 12.1638 18.4926 12.1638C18.6587 12.1638 18.8797 12.1078 18.9905 11.9417L22.81 8.12268L23.2526 8.56578L17.9941 13.8237C17.5515 14.2668 17.8839 15.0417 18.4926 15.0417C18.6587 15.0417 18.8797 14.9863 18.9905 14.8202L24.249 9.56165L24.8583 10.1709L23.2526 12.8279C22.9203 13.4366 23.5296 14.1007 24.1383 13.8237L27.127 12.4407L28.124 13.4366L22.5331 19.1376C22.2562 19.4146 22.2562 19.8571 22.5331 20.1341C22.8101 20.411 23.2526 20.411 23.5295 20.1341L29.1199 14.4884L30.3379 15.7064C30.2825 15.7612 25.1347 20.9089 25.0239 21.0197L22.3675 23.6766L8.36262 9.72782L16.3341 1.75752ZM31.8322 15.2073L27.7363 11.1668C27.5147 10.9458 27.2378 10.8904 26.9614 11.0012L25.5772 11.6099L26.2973 10.4478C26.4629 10.1709 26.4081 9.83859 26.186 9.56165L22.2013 5.57651C21.9798 5.35551 21.6474 5.29957 21.3705 5.46628L17.2746 7.62419L19.2121 3.25188C19.3228 2.97494 19.2674 2.64262 19.0459 2.47701L16.7766 0.207767C16.4997 -0.0691681 16.0572 -0.0691681 15.7802 0.207767C15.0053 0.982643 8.03084 7.95706 5.37388 10.6135C3.65796 12.3294 3.65796 15.0971 5.37388 16.813L7.75393 19.193L6.31493 20.632L1.77645 24.0638C-0.382577 25.6695 -0.603571 28.769 1.27797 30.6511C3.16005 32.5326 6.25959 32.3664 7.86473 30.208L11.2965 25.6695L12.7355 24.2305L15.1161 26.61C16.832 28.3259 19.5998 28.3259 21.3157 26.61C25.9649 21.9607 24.3598 23.5659 24.6921 23.2336C24.9131 24.5064 26.2419 25.2818 27.4599 24.8392V25.6695C27.4599 26.8315 28.4009 27.7726 29.563 27.7726C30.7256 27.7726 31.6666 26.8315 31.6666 25.6695V16.1484C32.1086 15.872 32.0538 15.4843 31.8322 15.2073Z" fill="#016EDC"/>
<path d="M23.031 29.8756C22.8654 29.8756 22.6992 29.71 22.6992 29.5439C22.6992 29.3777 22.8654 29.2121 23.031 29.2121C23.1972 29.2121 23.3633 29.3777 23.3633 29.5439C23.3633 29.71 23.2526 29.8756 23.031 29.8756ZM23.031 27.7172C22.0346 27.7172 21.2603 28.492 21.2603 29.4885C21.2603 30.4849 22.0346 31.2598 23.031 31.2598C24.0274 31.2598 24.8023 30.4849 24.8023 29.4885C24.8023 28.492 24.0274 27.7172 23.031 27.7172Z" fill="#016EDC"/>
<path d="M27.2933 4.41429C27.46 4.41429 27.6256 4.58045 27.6256 4.74607C27.6256 4.91223 27.46 5.07839 27.2933 5.07839C27.1271 5.07839 26.9615 4.91223 26.9615 4.74607C26.9061 4.58045 27.0723 4.41429 27.2933 4.41429ZM27.2933 6.57275C28.2897 6.57275 29.0646 5.79788 29.0646 4.80145C29.0646 3.80503 28.2897 3.03015 27.2933 3.03015C26.2974 3.03015 25.522 3.80503 25.522 4.80145C25.522 5.79788 26.2974 6.57275 27.2933 6.57275Z" fill="#016EDC"/>
<path d="M5.04208 5.13313C5.42924 5.13313 5.76157 5.46601 5.76157 5.85317C5.76157 6.24088 5.42924 6.57265 5.04208 6.57265C4.65436 6.57265 4.32204 6.24088 4.32204 5.85317C4.32204 5.46601 4.65436 5.13313 5.04208 5.13313ZM5.04208 7.95679C6.20412 7.95679 7.1452 7.01521 7.1452 5.85317C7.1452 4.69113 6.20412 3.74954 5.04208 3.74954C3.87948 3.74954 2.93848 4.69113 2.93848 5.85317C2.93848 7.01521 3.87948 7.95679 5.04208 7.95679Z" fill="#016EDC"/>
<path d="M2.21901 14.3218C2.61659 14.3218 2.93851 14.6437 2.93851 15.0412C2.93851 15.4383 2.61659 15.7607 2.21901 15.7607C1.82197 15.7607 1.49951 15.4383 1.49951 15.0412C1.49951 14.6437 1.82197 14.3218 2.21901 14.3218Z" fill="#016EDC"/>
<path d="M13.511 28.4368C13.1233 28.4368 12.7915 28.7691 12.7915 29.1563C12.7915 29.544 13.1233 29.8757 13.511 29.8757C13.8982 29.8757 14.2304 29.544 14.2304 29.1563C14.2304 28.7691 13.8982 28.4368 13.511 28.4368Z" fill="#016EDC"/>
<path d="M9.24884 31.9792C8.86168 31.9792 8.52881 32.3116 8.52881 32.6987C8.52881 33.0864 8.86168 33.4182 9.24884 33.4182C9.63656 33.4182 9.96834 33.0864 9.96834 32.6987C9.96834 32.3116 9.63656 31.9792 9.24884 31.9792Z" fill="#016EDC"/>
<path d="M28.345 8.67571C27.9578 8.67571 27.6255 9.00803 27.6255 9.39574C27.6255 9.7829 27.9578 10.1152 28.345 10.1152C28.7327 10.1152 29.0644 9.7829 29.0644 9.39574C29.0096 9.00803 28.7327 8.67571 28.345 8.67571Z" fill="#016EDC"/>
<path d="M9.24884 4.41406C9.63656 4.41406 9.96834 4.08174 9.96834 3.69403C9.96834 3.30687 9.63656 2.97454 9.24884 2.97454C8.86168 2.97454 8.52881 3.30687 8.52881 3.69403C8.58474 4.13713 8.86168 4.41406 9.24884 4.41406Z" fill="#016EDC"/>
<path d="M29.7287 30.5397C30.1263 30.5397 30.4488 30.8622 30.4488 31.2598C30.4488 31.6573 30.1263 31.9792 29.7287 31.9792C29.3317 31.9792 29.0098 31.6573 29.0098 31.2598C29.0098 30.8622 29.3317 30.5397 29.7287 30.5397Z" fill="#016EDC"/>
</svg>
