<svg width="32" height="32" viewBox="0 0 32 32" fill="none" xmlns="http://www.w3.org/2000/svg">
<path d="M16.0272 30.5705C7.9661 30.5705 1.4295 24.0339 1.4295 15.9729C1.4295 7.91127 7.9661 1.37521 16.0272 1.37521C24.0882 1.37521 30.6249 7.91127 30.6249 15.9729C30.6249 24.0339 24.0882 30.5705 16.0272 30.5705ZM27.3023 4.69775C21.0382 -1.5658 10.9616 -1.5658 4.69807 4.69775C-1.56602 10.9618 -1.56602 21.0379 4.69807 27.3019C7.69358 30.2981 11.7241 31.9866 15.9727 31.9866H31.2784C31.6599 31.9866 31.9864 31.6594 31.9864 31.2779C31.9864 30.897 31.6599 30.5705 31.2784 30.5705H22.5632C24.3063 29.807 25.9403 28.6634 27.3023 27.3019C33.5659 21.0379 33.5659 10.9073 27.3023 4.69775Z" fill="white"/>
<path d="M16.0271 27.0846C9.8726 27.0846 4.91553 22.0729 4.91553 15.9729C4.91553 9.87232 9.92657 4.86127 16.0271 4.86127C22.1277 4.86127 27.1388 9.87232 27.1388 15.9729C27.1388 22.0729 22.1817 27.0846 16.0271 27.0846ZM16.0271 3.49923C9.1101 3.49923 3.49951 9.10982 3.49951 15.9729C3.49951 22.8899 9.1101 28.5005 16.0271 28.5005C22.9442 28.5005 28.5548 22.8899 28.5548 15.9729C28.5548 9.10982 22.9442 3.49923 16.0271 3.49923Z" fill="white"/>
<path d="M16.027 17.3343C15.2645 17.3343 14.6655 16.7353 14.6655 15.9728C14.6655 15.2103 15.2645 14.6108 16.027 14.6108C16.7895 14.6108 17.3885 15.2643 17.3885 15.9728C17.3885 16.7353 16.7895 17.3343 16.027 17.3343ZM16.027 13.1948C14.502 13.1948 13.2495 14.4478 13.2495 15.9728C13.2495 17.4977 14.502 18.7502 16.027 18.7502C17.552 18.7502 18.8045 17.4977 18.8045 15.9728C18.8045 14.4478 17.552 13.1948 16.027 13.1948Z" fill="white"/>
<path d="M16.027 6.93127C17.0075 6.93127 17.879 7.63873 18.097 8.61979C16.7895 8.23826 15.3735 8.23826 14.012 8.61979C14.175 7.63873 15.047 6.93127 16.027 6.93127ZM14.175 9.98129C15.3185 9.59976 16.626 9.59976 17.879 9.98129C17.4981 10.6893 14.9375 11.5063 14.175 9.98129ZM16.027 12.4868C17.77 12.4868 19.186 11.1793 19.4585 9.70877C19.8946 7.53027 18.2055 5.56923 16.027 5.56923C13.8485 5.56923 12.2145 7.58477 12.596 9.70877C12.8674 11.1793 14.284 12.4868 16.027 12.4868Z" fill="white"/>
<path d="M16.027 25.0147C15.0471 25.0147 14.175 24.306 13.9576 23.326C15.3185 23.7076 16.7351 23.7076 18.0421 23.326C17.8791 24.306 17.0076 25.0147 16.027 25.0147ZM17.8791 21.9641C16.6806 22.3456 15.3736 22.3456 14.175 21.9641C14.5565 21.3107 17.0621 20.4936 17.8791 21.9641ZM16.027 19.459C14.121 19.459 12.541 21.0381 12.541 22.9452C12.541 24.8511 14.121 26.4307 16.027 26.4307C18.2055 26.4307 19.8396 24.415 19.4586 22.2911C19.1861 20.7662 17.7701 19.459 16.027 19.459Z" fill="white"/>
<path d="M23.3802 18.0422C23.7617 16.7353 23.7617 15.3193 23.3802 13.9573C24.3062 14.1753 25.0687 14.9917 25.0687 16.0268C25.0687 16.9528 24.3607 17.8242 23.3802 18.0422ZM22.0187 14.1208C22.4002 15.3193 22.4002 16.6263 22.0187 17.8242C21.3652 17.4977 20.5482 14.9378 22.0187 14.1208ZM22.2907 12.5958C20.7117 12.9222 19.5132 14.3382 19.5132 16.0268C19.5132 17.9338 21.0927 19.5127 22.9992 19.5127C24.9052 19.5127 26.4853 17.9338 26.4853 16.0268C26.4302 13.7943 24.4697 12.1597 22.2907 12.5958Z" fill="white"/>
<path d="M6.98552 15.9727C6.98552 14.9916 7.69353 14.1207 8.67404 13.9026C8.29252 15.2102 8.29252 16.6801 8.67404 17.9877C7.69353 17.8241 6.98552 16.9527 6.98552 15.9727ZM10.0355 17.8241C9.65402 16.6262 9.65402 15.3192 10.0355 14.1207C10.689 14.5016 11.5611 17.0617 10.0355 17.8241ZM12.5411 15.9727C12.5411 14.2291 11.2341 12.8131 9.76357 12.5406C7.63902 12.1596 5.62402 13.7942 5.62402 15.9727C5.62402 18.1511 7.63902 19.8398 9.81753 19.4036C11.3425 19.0771 12.5411 17.6612 12.5411 15.9727Z" fill="white"/>
<path d="M1.81084 29.1538C1.59337 29.1538 1.48438 28.9904 1.48438 28.8269C1.48438 28.6632 1.64733 28.5003 1.81084 28.5003C1.97435 28.5003 2.13787 28.6632 2.13787 28.8269C2.13787 29.0448 1.97435 29.1538 1.81084 29.1538ZM1.81084 27.0844C0.830866 27.0844 0.0683594 27.8469 0.0683594 28.8269C0.0683594 29.8068 0.830866 30.5703 1.81084 30.5703C2.79136 30.5703 3.55388 29.8068 3.55388 28.8269C3.49938 27.8469 2.73686 27.0844 1.81084 27.0844Z" fill="white"/>
<path d="M29.9162 1.37533C30.2977 1.37533 30.6247 1.70181 30.6247 2.08333C30.6247 2.46485 30.2977 2.79133 29.9162 2.79133C29.5352 2.79133 29.2082 2.46485 29.2082 2.08333C29.2082 1.70181 29.5352 1.37533 29.9162 1.37533ZM29.9162 4.15283C31.0602 4.15283 31.9862 3.22736 31.9862 2.08333C31.9862 0.939304 31.0602 0.0138302 29.9162 0.0138302C28.7727 0.0138302 27.8467 0.939304 27.8467 2.08333C27.8467 3.22736 28.7727 4.15283 29.9162 4.15283Z" fill="white"/>
<path d="M29.2085 27.792C29.2085 28.1735 29.5355 28.5005 29.9165 28.5005C30.298 28.5005 30.625 28.1735 30.625 27.792C30.625 27.4109 30.298 27.0846 29.9165 27.0846C29.5355 27.0846 29.2085 27.4109 29.2085 27.792Z" fill="white"/>
<path d="M5.62357 29.1538C5.24205 29.1538 4.91504 29.4803 4.91504 29.8618C4.91504 30.2428 5.24205 30.5703 5.62357 30.5703C6.00456 30.5703 6.33158 30.2428 6.33158 29.8618C6.33158 29.4803 6.00456 29.1538 5.62357 29.1538Z" fill="white"/>
<path d="M0.77584 5.56934C1.15736 5.56934 1.48438 5.24232 1.48438 4.86133C1.48438 4.48035 1.15736 4.15279 0.77584 4.15279C0.394858 4.15279 0.0683594 4.48035 0.0683594 4.86133C0.0683594 5.24232 0.340355 5.56934 0.77584 5.56934Z" fill="white"/>
<path d="M4.915 2.08325C5.29652 2.08325 5.62354 1.75677 5.62354 1.37525C5.62354 0.994268 5.29652 0.721753 4.915 0.721753C4.53402 0.721753 4.20752 1.04823 4.20752 1.43029C4.20752 1.81128 4.53402 2.08325 4.915 2.08325Z" fill="white"/>
<path d="M25.7764 2.08325C26.1579 2.08325 26.4849 1.75677 26.4849 1.37525C26.4849 0.994268 26.1579 0.721753 25.7764 0.721753C25.3954 0.721753 25.0684 1.04823 25.0684 1.43029C25.0684 1.75677 25.3954 2.08325 25.7764 2.08325Z" fill="white"/>
</svg>
