<svg width="32" height="34" viewBox="0 0 32 34" fill="none" xmlns="http://www.w3.org/2000/svg">
<path d="M16.027 32.212C7.97086 32.212 1.43877 25.6795 1.43877 17.6234C1.43877 9.56731 7.97086 3.03476 16.027 3.03476C24.0838 3.03476 30.6158 9.56731 30.6158 17.6234C30.6158 25.6795 24.0838 32.212 16.027 32.212ZM27.2953 6.35578C21.035 0.0955696 10.9651 0.0955696 4.70482 6.35578C-1.55493 12.6154 -1.55493 22.6858 4.70482 28.9455C10.9651 35.2057 21.035 35.2057 27.2953 28.9455C33.5551 22.6858 33.5551 12.6154 27.2953 6.35578Z" fill="#016EDC"/>
<path d="M16.0269 5.15733C15.6461 5.15733 15.3193 5.4836 15.3193 5.86489C15.3193 6.24617 15.6461 6.57246 16.0269 6.57246C22.1782 6.57246 27.1318 11.5265 27.1318 17.6772C27.1318 18.0579 27.4586 18.3848 27.8394 18.3848C28.2206 18.3848 28.5475 18.0579 28.5475 17.6772C28.5475 10.7639 22.9403 5.15733 16.0269 5.15733Z" fill="#016EDC"/>
<path d="M16.0269 28.7277C9.87605 28.7277 4.92252 23.7198 4.92252 17.623C4.92252 17.2422 4.59569 16.9154 4.2144 16.9154C3.83365 16.9154 3.50684 17.2422 3.50684 17.623C3.50684 24.5363 9.11401 30.1428 16.0269 30.1428C16.4081 30.1428 16.735 29.8166 16.735 29.4353C16.735 29.0545 16.4081 28.7277 16.0269 28.7277Z" fill="#016EDC"/>
<path d="M16.0269 7.22554C15.6461 7.22554 15.3193 7.55236 15.3193 7.93365C15.3193 8.3144 15.6461 8.64121 16.0269 8.64121C20.9804 8.64121 25.0635 12.6692 25.0635 17.6772C25.0635 18.0579 25.3898 18.3848 25.7711 18.3848C26.1519 18.3848 26.4787 18.0579 26.4787 17.6772C26.4242 11.9072 21.7425 7.22554 16.0269 7.22554Z" fill="#016EDC"/>
<path d="M16.0272 26.6591C11.0736 26.6591 6.99107 22.631 6.99107 17.6231C6.99107 17.2423 6.6648 16.9155 6.28351 16.9155C5.90222 16.9155 5.57593 17.2423 5.57593 17.6231C5.57593 23.3386 10.2577 28.0203 15.9732 28.0203C16.354 28.0203 16.6808 27.6934 16.6808 27.3127C16.7353 26.9859 16.4085 26.6591 16.0272 26.6591Z" fill="#016EDC"/>
<path d="M16.0269 9.2943C15.6461 9.2943 15.3193 9.62111 15.3193 10.0019C15.3193 10.3831 15.6461 10.7094 16.0269 10.7094C19.8376 10.7094 22.9948 13.8126 22.9948 17.6772C22.9948 18.0579 23.3216 18.3848 23.7023 18.3848C24.0836 18.3848 24.4099 18.0579 24.4099 17.6772C24.3554 13.0505 20.5997 9.2943 16.0269 9.2943Z" fill="#016EDC"/>
<path d="M16.0273 24.5905C12.2171 24.5905 9.05997 21.4874 9.05997 17.6228C9.05997 17.242 8.73314 16.9152 8.35239 16.9152C7.9711 16.9152 7.64429 17.242 7.64429 17.6228C7.64429 22.1955 11.4006 25.9512 15.9734 25.9512C16.3541 25.9512 16.6809 25.6249 16.6809 25.2436C16.7354 24.9168 16.4086 24.5905 16.0273 24.5905Z" fill="#016EDC"/>
<path d="M16.0272 21.1074C14.1224 21.1074 12.5438 19.5288 12.5438 17.6235C12.5438 15.7187 14.1224 14.1396 16.0272 14.1396C17.9326 14.1396 19.5112 15.7187 19.5112 17.6235C19.5112 19.5288 17.9326 21.1074 16.0272 21.1074ZM16.0272 12.7789C13.3598 12.7789 11.1826 14.9561 11.1826 17.6235C11.1826 20.2909 13.3598 22.468 16.0272 22.468C18.6946 22.468 20.8724 20.2909 20.8724 17.6235C20.8724 14.9561 18.6946 12.7789 16.0272 12.7789Z" fill="#016EDC"/>
<path d="M16.027 18.3302C15.6462 18.3302 15.3194 18.0039 15.3194 17.6226C15.3194 17.2419 15.6462 16.9151 16.027 16.9151C16.4083 16.9151 16.7351 17.2419 16.7351 17.6226C16.7351 18.0039 16.4083 18.3302 16.027 18.3302ZM16.027 15.5544C14.8842 15.5544 13.9587 16.4799 13.9587 17.6226C13.9587 18.766 14.8842 19.6914 16.027 19.6914C17.1703 19.6914 18.0958 18.766 18.0958 17.6226C18.0958 16.4799 17.1703 15.5544 16.027 15.5544Z" fill="#016EDC"/>
<path d="M3.50697 2.38193C3.88826 2.38193 4.21454 2.7082 4.21454 3.08949C4.21454 3.47024 3.88826 3.79706 3.50697 3.79706C3.12622 3.79706 2.79939 3.47024 2.79939 3.08949C2.79939 2.7082 3.12622 2.38193 3.50697 2.38193ZM3.50697 5.15771C4.6503 5.15771 5.57575 4.23227 5.57575 3.08949C5.57575 1.94617 4.6503 0.966269 3.50697 0.966269C2.36418 0.966269 1.43872 1.8917 1.43872 3.03448C1.43872 4.1778 2.36418 5.15771 3.50697 5.15771Z" fill="#016EDC"/>
<path d="M28.8738 32.2118C28.7104 32.2118 28.5475 32.0484 28.5475 31.885C28.5475 31.7216 28.7104 31.5587 28.8738 31.5587C29.0372 31.5587 29.2006 31.7216 29.2006 31.885C29.2006 32.0484 29.0372 32.2118 28.8738 32.2118ZM28.8738 30.1431C27.8939 30.1431 27.1318 30.9051 27.1318 31.885C27.1318 32.8649 27.8939 33.627 28.8738 33.627C29.8537 33.627 30.6158 32.8649 30.6158 31.885C30.6158 30.9051 29.7993 30.1431 28.8738 30.1431Z" fill="#016EDC"/>
<path d="M27.8399 4.4502C28.2214 4.4502 28.5484 4.12318 28.5484 3.74219C28.5484 3.36066 28.2214 3.03363 27.8399 3.03363C27.4589 3.03363 27.1318 3.36066 27.1318 3.74219C27.1318 4.12318 27.4589 4.4502 27.8399 4.4502Z" fill="#016EDC"/>
<path d="M30.6165 5.80981C31.0077 5.80981 31.3245 6.12712 31.3245 6.51783C31.3245 6.90907 31.0077 7.22583 30.6165 7.22583C30.2252 7.22583 29.9084 6.90907 29.9084 6.51783C29.9084 6.12712 30.2252 5.80981 30.6165 5.80981Z" fill="#016EDC"/>
<path d="M0.785899 7.93433C1.16689 7.93433 1.4939 7.6073 1.4939 7.22577C1.4939 6.84478 1.16689 6.51776 0.785899 6.51776C0.404371 6.51776 0.0778809 6.84478 0.0778809 7.22577C0.0778809 7.6073 0.349867 7.93433 0.785899 7.93433Z" fill="#016EDC"/>
<path d="M30.6165 27.3659C30.2355 27.3659 29.9084 27.6929 29.9084 28.0745C29.9084 28.4555 30.2355 28.7825 30.6165 28.7825C30.998 28.7825 31.3245 28.4555 31.3245 28.0745C31.3245 27.6929 30.998 27.3659 30.6165 27.3659Z" fill="#016EDC"/>
<path d="M5.63061 31.5034C5.24908 31.5034 4.92261 31.8299 4.92261 32.2114C4.92261 32.5924 5.24908 32.9194 5.63061 32.9194C6.0116 32.9194 6.33863 32.5924 6.33863 32.2114C6.33863 31.8299 6.0116 31.5034 5.63061 31.5034Z" fill="#016EDC"/>
<path d="M2.14674 28.074C1.76521 28.074 1.43872 28.4004 1.43872 28.782C1.43872 29.163 1.76521 29.49 2.14674 29.49C2.52827 29.49 2.85474 29.163 2.85474 28.782C2.85474 28.3459 2.52827 28.074 2.14674 28.074Z" fill="#016EDC"/>
</svg>
