<svg width="32" height="31" viewBox="0 0 32 31" fill="none" xmlns="http://www.w3.org/2000/svg">
<path d="M30.6424 16.6529H29.2853V15.3475C29.3375 15.3475 30.6946 15.3475 30.6424 15.3475V16.6529ZM16.6524 2.71469H15.3476C15.3476 2.66246 15.3476 1.30536 15.3476 1.35759H16.6524V2.71469ZM2.19236 2.71469C1.87946 2.71469 1.61828 2.45404 1.61828 2.08838C1.61828 1.77549 1.87946 1.5143 2.19236 1.5143C2.50578 1.5143 2.76644 1.77549 2.76644 2.08838C2.81868 2.45404 2.50578 2.71469 2.19236 2.71469ZM29.4942 1.5143C29.8076 1.5143 30.1205 1.77549 30.1205 2.14062C30.1205 2.45404 29.8599 2.71469 29.4942 2.71469C29.1291 2.71469 28.8679 2.45404 28.8679 2.14062C28.9201 1.77549 29.1808 1.5143 29.4942 1.5143ZM2.66197 16.6529H1.3571V15.3475C1.40934 15.3475 2.76645 15.3475 2.66197 15.3475V16.6529ZM31.2692 14.0427H30.4862C29.8076 9.03111 26.6228 4.85534 22.2381 2.76693H27.7192C27.9804 3.49772 28.7112 4.01956 29.5464 4.01956C30.6424 4.01956 31.4782 3.13259 31.4782 2.08838C31.4782 1.0447 30.5901 0.156681 29.5464 0.156681C28.7112 0.156681 27.9804 0.679041 27.7192 1.40983H17.9573V0.679047C17.9573 0.313395 17.6444 -2.86102e-05 17.2787 -2.86102e-05H14.6168C14.2511 -2.86102e-05 13.9377 0.313395 13.9377 0.679047V1.40983H4.01959C3.75841 0.679041 3.02762 0.156681 2.19236 0.156681C1.14816 0.156681 0.261183 1.0447 0.261183 2.08838C0.261183 3.13259 1.14816 4.01956 2.19236 4.01956C3.02762 4.01956 3.75841 3.49772 4.01959 2.76693H9.7097C5.32446 4.85534 2.14013 9.03111 1.46157 14.0427H0.678551C0.312899 14.0427 0 14.3561 0 14.7212V17.3837C0 17.7488 0.312899 18.0623 0.678551 18.0623H3.34104C3.70617 18.0623 4.01959 17.7488 4.01959 17.3837V14.7212C4.01959 14.3561 3.70617 14.0427 3.34104 14.0427H2.81868C3.70617 8.30033 8.24813 3.7589 13.9905 2.8714V3.39325C13.9905 3.7589 14.3034 4.07231 14.669 4.07231H17.331C17.6966 4.07231 18.0095 3.7589 18.0095 3.39325V2.8714C23.7519 3.7589 28.2933 8.30033 29.1808 14.0427H28.659C28.2933 14.0427 27.9804 14.3561 27.9804 14.7212V17.3837C27.9804 17.7488 28.2933 18.0623 28.659 18.0623H31.3214C31.6866 18.0623 32 17.7488 32 17.3837V14.7212C31.9478 14.3039 31.6343 14.0427 31.2692 14.0427Z" fill="#016EDC"/>
<path d="M26.8839 21.3512C26.5187 21.3512 26.2053 21.6646 26.2053 22.0297C26.2053 22.3954 26.5187 22.7083 26.8839 22.7083C27.2495 22.7083 27.5624 22.3954 27.5624 22.0297C27.5624 21.6646 27.2495 21.3512 26.8839 21.3512Z" fill="#016EDC"/>
<path d="M22.2379 10.0233C21.8722 10.0233 21.5593 10.3367 21.5593 10.7018C21.5593 11.0675 21.8722 11.3804 22.2379 11.3804C22.603 11.3804 22.9164 11.0675 22.9164 10.7018C22.9164 10.3367 22.603 10.0233 22.2379 10.0233Z" fill="#016EDC"/>
<path d="M8.24814 10.7015C7.88249 10.7015 7.56958 11.0149 7.56958 11.38C7.56958 11.7457 7.88249 12.0586 8.24814 12.0586C8.61327 12.0586 8.92668 11.7457 8.92668 11.38C8.92668 10.9627 8.61327 10.7015 8.24814 10.7015Z" fill="#016EDC"/>
<path d="M8.24814 25.3184C7.88249 25.3184 7.56958 25.6319 7.56958 25.997C7.56958 26.3626 7.88249 26.6755 8.24814 26.6755C8.61327 26.6755 8.92668 26.3626 8.92668 25.997C8.92668 25.6319 8.61327 25.3184 8.24814 25.3184Z" fill="#016EDC"/>
<path d="M15.9737 15.9743C16.391 15.9743 16.7567 16.3394 16.7567 16.7573C16.7567 17.1747 16.391 17.5403 15.9737 17.5403C15.5558 17.5403 15.1906 17.1747 15.1906 16.7573C15.1906 16.2872 15.5558 15.9743 15.9737 15.9743ZM15.9737 18.793C17.1218 18.793 18.0615 17.8532 18.0615 16.7051C18.0615 15.7653 17.4352 14.9823 16.6522 14.7211V10.7016C16.6522 10.3364 16.3393 10.023 15.9737 10.023C15.608 10.023 15.2951 10.3364 15.2951 10.7016V14.7211C14.4599 14.9823 13.8853 15.7653 13.8853 16.7051C13.8853 17.8532 14.825 18.793 15.9737 18.793Z" fill="#016EDC"/>
<path d="M20.359 23.0218C17.018 23.0218 14.46 23.0218 11.589 23.0218C11.2234 23.0218 10.91 22.7084 10.91 22.3432C10.91 21.9776 11.2234 21.6647 11.589 21.6647C14.6689 21.6647 17.3831 21.6647 20.359 21.6647C20.7241 21.6647 21.0376 21.9776 21.0376 22.3432C21.0376 22.7084 20.7241 23.0218 20.359 23.0218ZM18.8969 29.3382H17.592V24.3267H18.8969V29.3382ZM16.2344 24.3267V29.3382H15.5559V24.3267H16.2344ZM13.0506 24.3267H14.251V29.3382H13.0506V24.3267ZM15.8171 8.35277C16.0782 7.9354 15.7648 7.41304 15.2952 7.3608C15.1385 7.3608 14.9818 7.20461 14.9818 7.0479C14.9818 6.78672 15.3475 6.63001 15.5559 6.78672C15.8171 6.99566 16.1822 6.99566 16.4434 6.78672C16.6523 6.57777 17.018 6.73449 17.018 7.0479C17.018 7.20461 16.8613 7.3608 16.7046 7.3608C16.2344 7.41304 15.9215 7.9354 16.1822 8.35277L20.9848 16.7576L19.7844 20.3071H12.1626L10.9622 16.7576L15.8171 8.35277ZM22.2902 16.392L17.6965 8.35277C18.0617 8.03935 18.3228 7.56974 18.3228 7.0479C18.3228 5.84699 17.0702 5.06396 15.9738 5.53409C14.8773 5.06396 13.6247 5.84699 13.6247 7.0479C13.6247 7.56974 13.8854 8.03935 14.251 8.35277L9.65735 16.392C9.55288 16.5487 9.55288 16.7576 9.60511 16.9143L10.8055 20.4638C10.0747 20.7772 9.60511 21.508 9.60511 22.291C9.60511 23.3869 10.4926 24.2744 11.589 24.2744H11.7452V29.9645C11.7452 30.3302 12.0587 30.6431 12.4238 30.6431H19.6277C19.9934 30.6431 20.3063 30.3302 20.3063 29.9645V24.3267H20.463C21.5594 24.3267 22.4469 23.4392 22.4469 22.3432C22.4469 21.508 21.9245 20.7772 21.246 20.516L22.4469 16.9665C22.3947 16.7576 22.3947 16.5487 22.2902 16.392Z" fill="#016EDC"/>
<path d="M3.23644 28.6593C3.02749 28.6593 2.92302 28.5025 2.92302 28.3458C2.92302 28.1891 3.07973 28.0329 3.23644 28.0329C3.39315 28.0329 3.54985 28.1891 3.54985 28.3458C3.60157 28.5025 3.44487 28.6593 3.23644 28.6593ZM3.23644 26.6753C2.29671 26.6753 1.56592 27.4061 1.56592 28.3458C1.56592 29.2856 2.29671 30.0164 3.23644 30.0164C4.17565 30.0164 4.90695 29.2856 4.90695 28.3458C4.90695 27.4061 4.17565 26.6753 3.23644 26.6753Z" fill="#016EDC"/>
<path d="M5.89902 22.0298C5.74232 22.0298 5.58562 21.8731 5.58562 21.7164C5.58562 21.5597 5.74232 21.4035 5.89902 21.4035C6.10745 21.4035 6.21193 21.5597 6.21193 21.7164C6.21193 21.8731 6.10745 22.0298 5.89902 22.0298ZM5.89902 19.9942C4.95929 19.9942 4.22852 20.725 4.22852 21.6647C4.22852 22.6044 4.95929 23.3352 5.89902 23.3352C6.83824 23.3352 7.56954 22.6044 7.56954 21.6647C7.56954 20.725 6.83824 19.9942 5.89902 19.9942Z" fill="#016EDC"/>
<path d="M29.5462 27.9808C29.1805 27.9808 28.8676 27.6674 28.8676 27.3022C28.8676 26.9366 29.1805 26.6237 29.5462 26.6237C29.9113 26.6237 30.2247 26.9366 30.2247 27.3022C30.2247 27.7196 29.9113 27.9808 29.5462 27.9808ZM29.5462 25.3183C28.4497 25.3183 27.5623 26.2058 27.5623 27.3022C27.5623 28.3982 28.4497 29.2856 29.5462 29.2856C30.6421 29.2856 31.5296 28.3982 31.5296 27.3022C31.5296 26.2058 30.6421 25.3183 29.5462 25.3183Z" fill="#016EDC"/>
</svg>
