<svg width="32" height="33" viewBox="0 0 32 33" fill="none" xmlns="http://www.w3.org/2000/svg">
<path d="M23.7422 25.915C23.6878 25.48 23.3616 25.2083 22.9273 25.2632C22.4929 25.317 22.2211 25.6431 22.2754 26.0775C22.3298 26.5123 22.6555 26.7842 23.0904 26.7293C23.4704 26.6755 23.7422 26.3494 23.7422 25.915Z" fill="#016EDC"/>
<path d="M29.2294 9.50712C29.6638 9.4533 29.9356 9.12711 29.8812 8.69274C29.8269 8.25783 29.5007 7.98601 29.0658 8.04092C28.6314 8.09474 28.3596 8.42092 28.4145 8.8553C28.4145 9.23584 28.7945 9.56203 29.2294 9.50712Z" fill="#016EDC"/>
<path d="M17.4941 5.26953C17.929 5.21571 18.2003 4.88952 18.1465 4.45515C18.0921 4.02024 17.7659 3.74842 17.3316 3.80332C16.8967 3.85715 16.6254 4.18333 16.6798 4.6177C16.7336 4.99825 17.1141 5.26953 17.4941 5.26953Z" fill="#016EDC"/>
<path d="M2.28204 11.5722C2.71641 11.5178 2.98822 11.1916 2.93386 10.7573C2.87949 10.3229 2.55385 10.0511 2.11894 10.1054C1.68403 10.1598 1.41275 10.486 1.46711 10.9203C1.52147 11.3004 1.84766 11.6265 2.28204 11.5722Z" fill="#016EDC"/>
<path d="M0.761101 25.3712C1.18094 25.3712 1.52165 25.712 1.52165 26.1323C1.52165 26.5522 1.18094 26.8928 0.761101 26.8928C0.340723 26.8928 0 26.5522 0 26.1323C0 25.712 0.340723 25.3712 0.761101 25.3712Z" fill="#016EDC"/>
<path d="M30.5876 17.0594L26.4043 19.6666V12.7125L30.5876 15.0491V17.0594ZM15.321 22.4921C15.321 23.5238 14.5061 24.3936 13.4199 24.3936H11.8983L12.4419 21.6227H15.321V22.4921ZM8.6386 30.9131H5.21584C4.78146 30.9131 4.45527 30.4782 4.50964 30.0981L4.72709 28.8483H9.56225L9.29097 30.3693C9.29097 30.696 8.96478 30.9131 8.6386 30.9131ZM3.26035 20.2104H2.49979C2.28233 20.2104 2.11925 20.0472 2.11925 19.8298V15.3209H13.9087C14.1261 15.3209 14.343 15.2121 14.5061 14.9947C14.5061 14.9403 16.2991 12.2786 16.1903 12.4412L16.3534 12.1699H21.5147V18.363C21.5147 18.743 21.8404 19.0693 22.2209 19.0693C22.601 19.0693 22.9271 18.743 22.9271 18.363V12.2237H24.9919V20.2104H20.1562V13.5823C20.1562 13.2023 19.8306 12.8756 19.45 12.8756C19.07 12.8756 18.7438 13.2023 18.7438 13.5823V20.2104C17.1683 20.2104 11.0834 20.2104 8.36677 20.2104C7.98676 20.2104 7.66059 20.5365 7.66059 20.9166C7.66059 21.2972 7.98676 21.6227 8.36677 21.6227H10.9752L9.83406 27.4358H4.99892L5.75947 23.3613C5.92202 22.6001 5.70511 21.7858 5.21584 21.1879C4.78146 20.5903 4.0209 20.2104 3.26035 20.2104ZM13.0937 10.5395L14.7779 12.2237L14.343 12.8217L12.5501 11.0283C12.7676 10.8657 12.9306 10.7026 13.0937 10.5395ZM7.00876 9.39898C7.71495 8.52969 8.74733 7.66041 9.18224 7.76914C10.3228 8.04096 11.5183 6.89986 12.2788 6.03004C13.5281 8.09478 12.007 10.757 9.6166 10.757C7.98676 10.7026 7.28057 9.56207 7.00876 9.39898ZM3.53163 6.35676L8.42114 1.4667C8.58423 1.30361 8.74733 1.30361 8.91042 1.4667C9.07351 1.63033 9.07351 1.79289 8.91042 1.95598L4.0209 6.84549C3.85781 7.00858 3.69472 7.00858 3.53163 6.84549C3.36908 6.73676 3.36908 6.51985 3.53163 6.35676ZM6.03129 8.42097L5.21584 7.60605L9.6166 3.20527L11.4095 4.9982C10.7033 5.81312 9.88843 6.51985 9.50789 6.41059C8.14987 6.08494 6.62875 7.71478 6.03129 8.42097ZM31.62 14.071L26.0781 10.9201C25.8606 10.8114 25.7524 10.8114 25.7524 10.8114H22.4928C22.3297 10.757 22.2209 10.757 22.0579 10.8114H16.0272C15.8647 10.8114 15.6472 10.8657 15.5385 11.0283L13.7999 9.34462C14.4518 7.71478 14.1261 5.81312 12.8219 4.4551C12.8219 4.40073 10.3772 2.01034 10.3772 1.95598C10.5403 0.923605 9.72533 -4.57764e-05 8.6386 -4.57764e-05C8.20422 -4.57764e-05 7.76931 0.16305 7.38931 0.488693L2.49979 5.37821C1.30432 6.57367 2.33669 8.58352 3.96653 8.31224L6.4113 10.757C7.76932 12.115 9.72533 12.3868 11.3008 11.735L13.4738 13.9079H1.46742C1.08741 13.9079 0.76123 14.2341 0.76123 14.6147V19.7754C0.76123 20.7535 1.52178 21.5139 2.49979 21.5139H3.26035C3.96654 21.5139 4.61836 22.1658 4.45527 22.9813L3.20598 29.6637C2.93416 30.9669 3.91217 32.1624 5.27019 32.1624H8.69296C9.67097 32.1624 10.5403 31.4561 10.7034 30.5325C10.7034 30.4244 11.5183 26.4034 11.627 25.6429H13.4738C15.2667 25.6429 16.7334 24.1762 16.7334 22.3834V21.5684C26.2955 21.5684 25.7524 21.5684 25.915 21.5684C26.0781 21.5139 25.8068 21.6771 31.6743 18.037C31.8912 17.9287 32 17.7106 32 17.4394V14.6685C31.9456 14.3967 31.8369 14.1798 31.62 14.071Z" fill="#016EDC"/>
<path d="M29.1751 26.729C28.7946 26.729 28.4689 26.4033 28.4689 26.0234C28.4689 25.6428 28.7946 25.3167 29.1751 25.3167C29.5551 25.3167 29.8813 25.6428 29.8813 26.0234C29.8813 26.4033 29.5551 26.729 29.1751 26.729ZM29.1751 23.9586C28.034 23.9586 27.1104 24.8823 27.1104 26.0234C27.1104 27.164 28.034 28.0876 29.1751 28.0876C30.3157 28.0876 31.2393 27.164 31.2393 26.0234C31.2393 24.8823 30.3157 23.9586 29.1751 23.9586Z" fill="#016EDC"/>
<path d="M24.6653 4.56396C24.8822 4.56396 24.9915 4.72652 24.9915 4.88961C24.9915 5.10707 24.8284 5.21579 24.6653 5.21579C24.5022 5.21579 24.3391 5.0527 24.3391 4.88961C24.3391 4.72652 24.5022 4.56396 24.6653 4.56396ZM24.6653 6.62817C25.6433 6.62817 26.4039 5.86762 26.4039 4.88961C26.4039 3.91214 25.6433 3.15158 24.6653 3.15158C23.6873 3.15158 22.9268 3.91214 22.9268 4.88961C22.9268 5.86762 23.7417 6.62817 24.6653 6.62817Z" fill="#016EDC"/>
<path d="M16.6795 29.5008C16.5164 29.5008 16.3533 29.3376 16.3533 29.1745C16.3533 29.0115 16.5164 28.8483 16.6795 28.8483C16.8426 28.8483 17.0051 29.0119 17.0051 29.1745C17.0595 29.3376 16.8964 29.5008 16.6795 29.5008ZM16.6795 27.4358C15.7015 27.4358 14.9409 28.1966 14.9409 29.1745C14.9409 30.1526 15.7015 30.9131 16.6795 30.9131C17.657 30.9131 18.4175 30.1526 18.4175 29.1745C18.4175 28.1966 17.657 27.4358 16.6795 27.4358Z" fill="#016EDC"/>
</svg>
