<svg width="33" height="31" viewBox="0 0 33 31" fill="none" xmlns="http://www.w3.org/2000/svg">
<path d="M21.3447 12.7444C20.9554 12.7444 20.6218 13.078 20.6218 13.4672C20.6218 13.857 20.9554 14.1912 21.3447 14.1912C21.7345 14.1912 22.0686 13.857 22.0686 13.4672C22.0686 13.078 21.7345 12.7444 21.3447 12.7444Z" fill="white"/>
<path d="M15.6682 14.1914C15.2784 14.1914 14.9448 14.525 14.9448 14.9148C14.9448 15.3041 15.2784 15.6382 15.6682 15.6382C16.0575 15.6382 16.3916 15.3041 16.3916 14.9148C16.3916 14.525 16.0575 14.1914 15.6682 14.1914Z" fill="white"/>
<path d="M9.99138 13.4675C10.3911 13.4675 10.7153 13.7917 10.7153 14.1914C10.7153 14.5906 10.3911 14.9148 9.99138 14.9148C9.5922 14.9148 9.26855 14.5906 9.26855 14.1914C9.26855 13.7917 9.5922 13.4675 9.99138 13.4675Z" fill="white"/>
<path d="M30.5835 29.1065H1.47759V27.7149C10.66 27.7149 21.4562 27.7149 30.5835 27.7149V29.1065ZM3.25794 1.39174H29.4146L30.5835 3.61759C30.5835 4.39666 29.9152 5.06491 29.1361 5.06491C28.3014 5.06491 27.6894 4.39666 27.6894 3.61759C27.6894 3.22833 27.3552 2.89475 26.9654 2.89475C26.5762 2.89475 26.2426 3.22833 26.2426 3.61759C26.2426 4.4529 25.5743 5.06491 24.7953 5.06491C23.9605 5.06491 23.3485 4.39666 23.3485 3.61759C23.3485 3.22833 23.0144 2.89475 22.6246 2.89475C22.2353 2.89475 21.9017 3.22833 21.9017 3.61759C21.9017 4.4529 21.234 5.06491 20.4549 5.06491C19.6196 5.06491 19.0076 4.39666 19.0076 3.61759C19.0076 3.22833 18.6735 2.89475 18.2842 2.89475C17.8944 2.89475 17.5608 3.22833 17.5608 3.61759C17.5608 4.4529 16.8931 5.06491 16.1141 5.06491C15.2787 5.06491 14.6667 4.39666 14.6667 3.61759C14.6667 3.22833 14.3326 2.89475 13.9433 2.89475C13.5535 2.89475 13.2199 3.22833 13.2199 3.61759C13.2199 4.4529 12.5523 5.06491 11.7732 5.06491C10.9379 5.06491 10.3264 4.39666 10.3264 3.61759C10.3264 3.22833 9.99172 2.89475 9.60246 2.89475C9.21265 2.89475 8.87907 3.22833 8.87907 3.61759C8.87907 4.56373 7.98861 5.28711 7.04247 5.00867C6.93165 4.95354 6.81975 4.84216 6.65324 4.84216C6.20774 4.56372 5.92928 4.11822 5.92928 3.5619C5.92928 3.17209 5.59571 2.83851 5.20645 2.83851C4.81663 2.83851 4.48252 3.17209 4.48252 3.5619C4.48252 4.39666 3.8148 5.00867 3.03573 5.00867C2.31234 5.00867 1.69979 4.4529 1.58897 3.72896L3.25794 1.39174ZM26.4648 5.89968C26.6318 5.7883 26.7989 5.62124 26.9103 5.45417C27.8564 6.56737 29.4146 6.73389 30.6391 6.01105V12.6886C28.3571 10.6855 27.0773 7.7914 26.4648 5.89968ZM28.6355 20.5913C28.6355 18.7546 29.4697 16.8072 30.6391 15.5827L30.5835 26.268H28.6355V20.5913ZM25.8528 20.5913C25.8528 18.421 27.0773 16.5287 28.8577 15.5276C27.8564 16.9743 27.1887 18.8108 27.1887 20.5913V26.268H25.8528V20.5913ZM3.14657 15.4713C4.98315 16.4175 6.26397 18.3654 6.26397 20.5913V26.268H4.81664V20.5913C4.87233 18.7546 4.20408 16.9185 3.14657 15.4713ZM1.47759 15.6384C2.64593 16.8623 3.42499 18.8108 3.42499 20.5913V26.268H1.47759V15.6384ZM4.42738 11.4646C5.59572 9.85074 6.26396 8.29259 6.93166 6.45545C7.76588 6.56738 8.54494 6.28894 9.10182 5.84344C8.21137 7.68003 6.76461 9.79505 4.42738 11.4646ZM24.5731 19.1445H7.54368C7.04249 16.751 5.37297 14.7485 3.14657 13.8575C6.26397 12.2993 8.26651 10.0735 9.60246 7.95846C10.4372 10.7412 12.9972 12.7448 16.0578 12.7448C19.119 12.7448 21.7346 10.6855 22.5137 7.90278C23.8491 10.0735 25.8528 12.355 29.0248 13.9132C26.7432 14.8036 25.0737 16.751 24.5731 19.1445ZM25.1294 6.45545C25.5743 7.84709 26.3534 9.68367 27.578 11.4089C25.3521 9.79505 23.9054 7.73627 23.0144 5.89968C23.6269 6.34463 24.406 6.56738 25.1294 6.45545ZM12.2181 6.45545C12.5522 8.2369 14.1661 9.5723 16.0578 9.5723C17.9501 9.5723 19.5082 8.2369 19.8981 6.45545C20.3987 6.56738 20.8993 6.51169 21.4011 6.34462C21.234 9.12735 18.8962 11.3532 16.1141 11.3532C13.3313 11.3532 10.9379 9.12735 10.827 6.34462C11.1606 6.51169 11.6618 6.51169 12.2181 6.45545ZM18.1728 5.50986C18.2842 5.62124 18.3399 5.73261 18.4513 5.7883C18.3956 7.1237 17.2824 8.18122 15.947 8.18122C14.611 8.18122 13.5535 7.1237 13.4422 5.7883C13.5535 5.67637 13.6649 5.62124 13.7206 5.50986C15.0003 6.79012 17.0602 6.79012 18.1728 5.50986ZM5.15021 5.50986C5.31727 5.67637 5.48433 5.84344 5.65139 5.95481C5.03938 7.90278 3.8705 10.1843 2.36803 11.8544C2.03391 12.2442 1.75603 12.4664 1.53273 12.6886V6.06619C2.64593 6.79013 4.20407 6.56737 5.15021 5.50986ZM7.71073 26.268V23.4298H17.1153C17.5052 23.4298 17.8393 23.0955 17.8393 22.7063C17.8393 22.3165 17.5052 21.9829 17.1153 21.9829H7.71073C7.71073 21.9271 7.71073 20.5913 7.71073 20.5913H24.406C24.406 21.1481 24.406 21.2038 24.406 21.9829H20.622C20.2322 21.9829 19.8981 22.3165 19.8981 22.7063C19.8981 23.0955 20.2322 23.4298 20.622 23.4298H24.406V26.268H7.71073ZM31.974 3.28401L30.4721 0.390461C30.3607 0.167159 30.0823 9.82968e-05 29.8595 9.82968e-05H2.92435C2.70215 9.82968e-05 2.47886 0.112021 2.36803 0.278532C0.141633 3.28401 0.197878 3.11695 0.141639 3.39539C0.0859515 3.50676 0.0859375 6.34462 0.0859375 29.7737C0.0859375 30.1639 0.420084 30.4976 0.809897 30.4976H31.3063C31.6967 30.4976 32.0302 30.1639 32.0302 29.7737C32.0302 28.4383 32.0303 35.1163 32.0859 14.0802C32.0303 3.11695 32.1416 3.5619 31.974 3.28401Z" fill="white"/>
</svg>
