<svg width="32" height="32" viewBox="0 0 32 32" fill="none" xmlns="http://www.w3.org/2000/svg">
<path d="M23.637 22.8011H7.6373L5.79756 10.7036H8.52919V16.7244C8.52919 17.7275 9.30978 18.5079 10.3132 18.5079C11.3167 18.5079 12.0973 17.7275 12.0973 16.7244V15.6093C12.3204 15.6651 12.5989 15.6651 12.822 15.6093C12.9892 16.4455 13.7141 17.0586 14.5502 17.0586C15.5536 17.0586 16.3342 16.2782 16.3342 15.2746V14.1595C16.5573 14.2158 16.8357 14.2158 17.0588 14.1595C17.2262 15.1072 18.174 15.7767 19.1775 15.6093V18.5079C19.1775 19.512 19.958 20.2925 20.9615 20.2925C21.9646 20.2925 22.745 19.512 22.745 18.5079V10.7036H25.4768L23.637 22.8011ZM23.8043 29.8808H7.47005C7.24719 29.8808 7.13546 29.714 7.13546 29.5466C7.13546 29.3793 7.30309 29.2119 7.47005 29.2119C12.9335 29.2119 18.3971 29.2119 23.8043 29.2119C23.9717 29.2119 24.1391 29.3793 24.1391 29.5466C24.1948 29.714 24.0275 29.8808 23.8043 29.8808ZM7.916 24.1946H23.4144L22.8566 27.7621H8.41784L7.916 24.1946ZM19.9022 13.1564C19.5117 13.1564 19.1775 13.4906 19.1775 13.8816C19.1775 14.1042 19.0102 14.2158 18.8428 14.2158C18.6755 14.2158 18.5081 14.0484 18.5081 13.8816V12.4876C18.5081 12.0971 18.174 11.7629 17.7835 11.7629C17.3935 11.7629 17.0588 12.0971 17.0588 12.4876C17.0588 12.7102 16.8915 12.8223 16.7241 12.8223C16.5573 12.8223 16.39 12.6549 16.39 12.4876C16.39 12.0971 16.0553 11.7629 15.6651 11.7629C15.2751 11.7629 14.9402 12.0971 14.9402 12.4876V15.3309C14.9402 15.4977 14.773 15.6651 14.6058 15.6651C14.4386 15.6651 14.2714 15.4977 14.2714 15.3309C14.2714 15.1636 14.2714 12.0413 14.2714 12.1534C14.2714 11.7629 13.937 11.4282 13.5469 11.4282C13.1566 11.4282 12.822 11.7629 12.822 12.1534V13.9369C12.822 14.1595 12.6545 14.2716 12.4876 14.2716C12.3204 14.2716 12.0973 14.1042 12.0973 13.8816C12.0973 13.4906 11.7629 13.1564 11.3725 13.1564C10.9823 13.1564 10.6478 13.4906 10.6478 13.8816V16.7244C10.6478 16.8918 10.4804 17.0586 10.3132 17.0586C10.146 17.0586 9.97881 16.8918 9.97881 16.7244V10.7036H21.3515V18.5079C21.3515 18.6753 21.1841 18.8426 21.0168 18.8426C20.85 18.8426 20.6826 18.6753 20.6826 18.5079V13.8816C20.6268 13.4906 20.2921 13.1564 19.9022 13.1564ZM15.6651 1.44941C20.1253 1.44941 23.8043 4.90584 24.1948 9.25428C18.9544 9.25428 12.4317 9.25428 7.1913 9.25428C7.52573 4.90584 11.1495 1.44941 15.6651 1.44941ZM26.313 9.25428H25.5883C25.1984 4.06962 20.9058 0.000114441 15.6651 0.000114441C10.4248 0.000114441 6.13222 4.06962 5.74189 9.25428H5.01697C4.57124 9.25428 4.23659 9.64422 4.29248 10.0899L7.02411 27.8184C6.29941 28.041 5.68622 28.7104 5.68622 29.5466C5.68622 30.5497 6.46659 31.3301 7.47005 31.3301H23.8043C24.8079 31.3301 25.5883 30.5497 25.5883 29.5466C25.5883 28.7104 25.0311 28.041 24.2506 27.8184L27.0376 10.0899C27.0934 9.64422 26.7593 9.25428 26.313 9.25428Z" fill="#016EDC"/>
<path d="M1.78406 25.5885C1.61687 25.5885 1.44963 25.4206 1.44963 25.2533C1.44963 25.0307 1.61687 24.9191 1.78406 24.9191C2.00714 24.9191 2.11849 25.0865 2.11849 25.2533C2.11849 25.477 2.00714 25.5885 1.78406 25.5885ZM1.78406 23.4698C0.7806 23.4698 0 24.2503 0 25.2533C0 26.2574 0.7806 27.0378 1.78406 27.0378C2.78774 27.0378 3.56812 26.2574 3.56812 25.2533C3.56812 24.306 2.78774 23.4698 1.78406 23.4698Z" fill="#016EDC"/>
<path d="M29.8813 14.9405C29.4914 14.9405 29.1567 14.6058 29.1567 14.2158C29.1567 13.8253 29.4914 13.4906 29.8813 13.4906C30.2718 13.4906 30.606 13.8253 30.606 14.2158C30.606 14.6621 30.2718 14.9405 29.8813 14.9405ZM29.8813 12.0971C28.7104 12.0971 27.7632 13.0449 27.7632 14.2158C27.7632 15.3862 28.7104 16.334 29.8813 16.334C31.0523 16.334 32.0001 15.3862 32.0001 14.2158C32.0001 13.0449 31.0523 12.0971 29.8813 12.0971Z" fill="#016EDC"/>
<path d="M30.606 2.84302C30.9965 2.84302 31.3306 2.50886 31.3306 2.11836C31.3306 1.72842 30.9965 1.39372 30.606 1.39372C30.2161 1.39372 29.8813 1.72842 29.8813 2.11836C29.8813 2.56409 30.1597 2.84302 30.606 2.84302Z" fill="#016EDC"/>
<path d="M28.4319 22.0761C28.0414 22.0761 27.7073 22.4108 27.7073 22.8013C27.7073 23.1912 28.0414 23.5254 28.4319 23.5254C28.8219 23.5254 29.1566 23.1912 29.1566 22.8013C29.1566 22.355 28.8219 22.0761 28.4319 22.0761Z" fill="#016EDC"/>
<path d="M3.56794 18.508C3.17761 18.508 2.84302 18.8427 2.84302 19.2332C2.84302 19.6231 3.17761 19.9573 3.56794 19.9573C3.95821 19.9573 4.29264 19.6231 4.29264 19.2332C4.29264 18.8427 3.95821 18.508 3.56794 18.508Z" fill="#016EDC"/>
<path d="M3.56794 4.29224C3.95821 4.29224 4.29264 3.95807 4.29264 3.56813C4.29264 3.17764 3.95821 2.84294 3.56794 2.84294C3.17761 2.84294 2.84302 3.17764 2.84302 3.56813C2.84302 3.95807 3.17761 4.29224 3.56794 4.29224Z" fill="#016EDC"/>
<path d="M14.2157 4.2924C14.6159 4.2924 14.9404 4.61716 14.9404 5.0176C14.9404 5.41748 14.6159 5.7417 14.2157 5.7417C13.8157 5.7417 13.4912 5.41748 13.4912 5.0176C13.4912 4.61716 13.8157 4.2924 14.2157 4.2924Z" fill="#016EDC"/>
<path d="M30.606 27.7621C30.2161 27.7621 29.8813 28.0973 29.8813 28.4873C29.8813 28.8778 30.2161 29.2119 30.606 29.2119C30.9965 29.2119 31.3306 28.8778 31.3306 28.4873C31.2754 28.0973 30.9407 27.7621 30.606 27.7621Z" fill="#016EDC"/>
</svg>
