<svg width="32" height="35" viewBox="0 0 32 35" fill="none" xmlns="http://www.w3.org/2000/svg">
<path d="M15.558 13.8001C16.869 12.4885 18.9778 13.0587 18.8632 14.8254C18.7497 16.6491 16.4699 17.7315 15.3305 16.5921C14.5897 15.9083 14.7032 14.6543 15.558 13.8001ZM19.1484 17.3899C20.5164 16.0224 20.7439 13.8001 19.4335 12.4885C18.1225 11.178 15.9572 11.3491 14.5327 12.7736C13.1076 14.1987 12.9935 16.3646 14.2475 17.675C15.558 18.9855 17.7809 18.8144 19.1484 17.3899Z" fill="#016EDC"/>
<path d="M30.318 12.8307C30.2046 12.8877 30.0335 12.8877 29.9194 12.7737C28.3238 11.1211 34.7632 17.561 19.2054 2.00315C19.0914 1.8891 19.0914 1.71803 19.1484 1.60398C19.2624 1.37644 19.5476 1.31885 19.7186 1.48992L30.4321 12.2034C30.6032 12.4321 30.5461 12.7172 30.318 12.8307ZM12.709 25.1974C12.3098 25.4826 11.7972 25.4826 11.398 25.0834C10.9424 24.6272 13.1076 26.793 6.83934 20.5247C6.49719 20.1825 6.44016 19.6128 6.72472 19.2131L15.6151 7.70179L21.7128 13.8002C21.998 14.0847 22.4536 14.0847 22.7387 13.8002C23.0239 13.515 23.0239 13.0588 22.7387 12.7737L16.4699 6.50537L18.6927 3.59874L28.3238 13.2299L17.2677 21.6641L12.4809 16.8773C12.1958 16.5922 11.7401 16.5922 11.455 16.8773C11.1699 17.1624 11.1699 17.6175 11.455 17.9026L16.1283 22.5759L12.709 25.1974ZM10.4291 26.1663L9.91646 26.679C9.63133 26.9641 9.11867 26.9641 8.83354 26.679C8.77652 26.6225 6.09802 23.9434 6.2691 24.1145L5.75643 23.6018C5.4713 23.3167 5.4713 22.804 5.75643 22.5189L6.2691 22.0062C6.38315 22.0627 10.3721 26.0522 10.4291 26.1663ZM5.81345 27.7054L4.78756 26.679L5.81345 25.6536L6.83934 26.679L5.81345 27.7054ZM31.458 11.1781L20.744 0.521042C19.8892 -0.333782 18.4076 -0.105675 17.8379 0.977251C17.6098 1.43289 17.6098 2.00315 17.7809 2.45879L5.64237 18.3588C5.07268 19.0996 5.01566 20.1255 5.41427 20.9233L4.84459 21.4936C3.98977 22.3478 3.98977 23.7159 4.84459 24.6272L3.30546 26.1663C3.0209 26.4514 3.0209 26.9071 3.30546 27.1916L5.35724 29.2434C5.64237 29.5286 6.09802 29.5286 6.38315 29.2434L7.92171 27.7054C8.77652 28.5597 10.1446 28.5597 10.9994 27.7054L11.8536 26.85C12.4809 26.9071 13.1076 26.793 13.6209 26.3938L29.5202 14.2552C30.6032 14.7114 31.8001 13.9707 31.9707 12.8307C32.0847 12.2034 31.8572 11.6343 31.458 11.1781Z" fill="#016EDC"/>
<path d="M5.24291 33.3468C5.69854 31.9788 7.35172 31.4661 8.4911 32.2639C8.89028 32.549 9.40351 32.3779 9.57402 31.9217C9.85915 31.0675 10.714 30.4402 11.6258 30.4402C12.5377 30.4402 13.3925 31.0099 13.677 31.9217C13.8487 32.3779 14.3613 32.549 14.76 32.2639C15.9569 31.4661 17.5525 32.0358 18.0087 33.3468H5.24291ZM14.76 30.6683C13.3354 28.4454 10.0302 28.4454 8.60515 30.6683C6.21178 29.7559 3.70435 31.5231 3.70435 34.0876C3.70435 34.4862 4.04651 34.8284 4.44512 34.8284H18.9776C19.3762 34.8284 19.7184 34.4862 19.7184 34.0876C19.6608 31.5231 17.0969 29.8135 14.76 30.6683Z" fill="#016EDC"/>
<path d="M2.96394 7.92956C3.36256 7.92956 3.7047 8.27172 3.7047 8.67034C3.7047 9.06952 3.36256 9.4111 2.96394 9.4111C2.56476 9.4111 2.22317 9.06952 2.22317 8.67034C2.22317 8.27172 2.56476 7.92956 2.96394 7.92956ZM2.96394 10.8362C4.16035 10.8362 5.12921 9.86731 5.12921 8.67034C5.12921 7.47392 4.16035 6.50504 2.96394 6.50504C1.76697 6.50504 0.798096 7.47392 0.798096 8.67034C0.798096 9.86731 1.76697 10.8362 2.96394 10.8362Z" fill="#016EDC"/>
<path d="M28.7224 24.6269C28.1527 24.6269 27.6395 24.1142 27.6395 23.5445C27.6395 22.9748 28.1527 22.4616 28.7224 22.4616C29.2927 22.4616 29.8053 22.9748 29.8053 23.5445C29.8053 24.1142 29.3497 24.6269 28.7224 24.6269ZM28.7224 21.0371C27.2979 21.0371 26.158 22.177 26.158 23.6016C26.158 25.0261 27.2979 26.166 28.7224 26.166C30.1475 26.166 31.2869 25.0261 31.2869 23.6016C31.2869 22.177 30.1475 21.0371 28.7224 21.0371Z" fill="#016EDC"/>
<path d="M28.381 3.59863C28.7796 3.59863 29.1217 3.25648 29.1217 2.85787C29.1217 2.45869 28.7796 2.11653 28.381 2.11653C27.9818 2.11653 27.6396 2.45869 27.6396 2.85787C27.6396 3.25648 27.9818 3.59863 28.381 3.59863Z" fill="#016EDC"/>
<path d="M10.2015 5.02368C10.6001 5.02368 10.9422 4.68097 10.9422 4.28235C10.9422 3.88317 10.6001 3.54157 10.2015 3.54157C9.80229 3.54157 9.46069 3.88317 9.46069 4.28235C9.46069 4.68097 9.80229 5.02368 10.2015 5.02368Z" fill="#016EDC"/>
<path d="M2.22301 14.4838C2.63179 14.4838 2.96379 14.8147 2.96379 15.224C2.96379 15.6339 2.63179 15.9653 2.22301 15.9653C1.81367 15.9653 1.48169 15.6339 1.48169 15.224C1.48169 14.8147 1.81367 14.4838 2.22301 14.4838Z" fill="#016EDC"/>
<path d="M24.7334 26.8499C24.3343 26.8499 23.9927 27.1915 23.9927 27.5907C23.9927 27.9893 24.3343 28.332 24.7334 28.332C25.132 28.332 25.4742 27.9893 25.4742 27.5907C25.4742 27.1351 25.132 26.8499 24.7334 26.8499Z" fill="#016EDC"/>
<path d="M0.740767 27.5341C0.342153 27.5341 0 27.8757 0 28.2743C0 28.6735 0.342153 29.0156 0.740767 29.0156C1.13995 29.0156 1.48154 28.6735 1.48154 28.2743C1.48154 27.8757 1.13995 27.5341 0.740767 27.5341Z" fill="#016EDC"/>
<path d="M30.5463 16.6491C30.5463 16.2499 30.2047 15.9084 29.8056 15.9084C29.4064 15.9084 29.1218 16.2499 29.1218 16.6491C29.1218 17.0483 29.4634 17.3899 29.8626 17.3899C30.2612 17.3899 30.5463 17.0483 30.5463 16.6491Z" fill="#016EDC"/>
</svg>
