<svg width="32" height="33" viewBox="0 0 32 33" fill="none" xmlns="http://www.w3.org/2000/svg">
<path d="M30.6429 16.7047C30.5901 16.7047 29.233 16.7047 29.2853 16.7047V15.4003C29.3375 15.4003 30.6946 15.4003 30.6429 15.4003V16.7047ZM17.9573 29.1812V28.6594C17.9573 28.2937 17.6444 27.981 17.2787 27.981H14.6163C14.2511 27.981 13.9377 28.2937 13.9377 28.6594V29.1812C8.19536 28.2937 3.65392 23.7524 2.76643 18.01H3.28879C3.65393 18.01 3.96735 17.6966 3.96735 17.3316V14.6695C3.96735 14.3039 3.65393 13.9905 3.28879 13.9905H2.76643C3.65392 8.24865 8.19536 3.7067 13.9377 2.81972V3.34104C13.9377 3.7067 14.2511 4.02011 14.6163 4.02011H17.2787C17.6444 4.02011 17.9573 3.7067 17.9573 3.34104V2.81972C23.6996 3.7067 28.2411 8.24865 29.1286 13.9905H28.6067C28.2411 13.9905 27.9282 14.3039 27.9282 14.6695V17.3316C27.9282 17.6966 28.2411 18.01 28.6067 18.01H29.1286C28.2938 23.8047 23.7524 28.3461 17.9573 29.1812ZM16.6524 30.695H15.3476C15.3476 30.6429 15.3476 29.2853 15.3476 29.3903H16.6524V30.695ZM1.30487 15.3476C1.3571 15.3476 2.71471 15.3476 2.61024 15.3476V16.653C2.558 16.653 1.20091 16.653 1.30487 16.653V15.3476ZM2.19287 2.71473C1.87946 2.71473 1.61828 2.45407 1.61828 2.08893C1.61828 1.775 1.87946 1.51434 2.19287 1.51434C2.50577 1.51434 2.76643 1.775 2.76643 2.08893C2.81866 2.45407 2.50577 2.71473 2.19287 2.71473ZM16.6524 1.35711V2.71473H15.3476C15.3476 2.66249 15.3476 1.30539 15.3476 1.35711H16.6524ZM29.4942 1.51434C29.8076 1.51434 30.1205 1.775 30.1205 2.08893C30.1205 2.40183 29.8593 2.71473 29.4942 2.71473C29.1286 2.71473 28.8679 2.45407 28.8679 2.08893C28.8679 1.775 29.1813 1.51434 29.4942 1.51434ZM31.2692 14.0427H30.4862C29.8076 9.03115 26.6228 4.85537 22.2381 2.76697H27.7192C27.9804 3.49775 28.7112 4.02011 29.5465 4.02011C30.6429 4.02011 31.4781 3.13262 31.4781 2.08893C31.4781 1.04421 30.5901 0.156717 29.5465 0.156717C28.7112 0.156717 27.9804 0.679077 27.7192 1.40986H17.9573V0.679077C17.9573 0.313425 17.6444 7.62939e-06 17.2787 7.62939e-06H14.6163C14.2511 7.62939e-06 13.9377 0.313425 13.9377 0.679077V1.40986H4.01957C3.75839 0.679077 3.02762 0.156717 2.19287 0.156717C1.14815 0.156717 0.26117 1.04421 0.26117 2.08893C0.26117 3.13262 1.14815 4.02011 2.19287 4.02011C3.02762 4.02011 3.75839 3.49775 4.01957 2.76697H9.70968C5.32444 4.85537 2.14011 9.03115 1.46156 14.0427H0.678532C0.313397 14.0427 0 14.3556 0 14.7213V17.3837C0 17.7493 0.313397 18.0623 0.678532 18.0623H1.46156C2.34906 24.5354 7.46509 29.7031 13.9905 30.5906V31.3742C13.9905 31.7393 14.3034 32.0522 14.669 32.0522H17.3315C17.6966 32.0522 18.0095 31.7393 18.0095 31.3742V30.5906C24.4832 29.7031 29.6509 24.5871 30.5384 18.0623H31.3209C31.6866 18.0623 32 17.7493 32 17.3837V14.7213C31.9478 14.3556 31.6349 14.0427 31.2692 14.0427Z" fill="#016EDC"/>
<path d="M8.24789 9.39705C7.88224 9.39705 7.56934 9.71046 7.56934 10.0756C7.56934 10.4413 7.88224 10.7542 8.24789 10.7542C8.61303 10.7542 8.92645 10.4413 8.92645 10.0756C8.92645 9.65771 8.61303 9.39705 8.24789 9.39705Z" fill="#016EDC"/>
<path d="M23.5428 9.39705C23.1776 9.39705 22.8647 9.71046 22.8647 10.0756C22.8647 10.4413 23.1776 10.7542 23.5428 10.7542C23.9084 10.7542 24.2218 10.4413 24.2218 10.0756C24.2218 9.65771 23.9607 9.39705 23.5428 9.39705Z" fill="#016EDC"/>
<path d="M23.5428 21.3511C23.1776 21.3511 22.8647 21.664 22.8647 22.0297C22.8647 22.3948 23.1776 22.7087 23.5428 22.7087C23.9084 22.7087 24.2218 22.3948 24.2218 22.0297C24.2218 21.664 23.9607 21.3511 23.5428 21.3511Z" fill="#016EDC"/>
<path d="M6.26447 21.3511C5.89933 21.3511 5.58594 21.664 5.58594 22.0297C5.58594 22.3948 5.89933 22.7087 6.26447 22.7087C6.63012 22.7087 6.94303 22.3948 6.94303 22.0297C6.94303 21.664 6.63012 21.3511 6.26447 21.3511Z" fill="#016EDC"/>
<path d="M20.3585 21.6642C17.018 21.6642 14.46 21.6642 11.5885 21.6642C11.2234 21.6642 10.91 21.3513 10.91 20.9862C10.91 20.6205 11.2234 20.307 11.5885 20.307C14.6162 20.307 17.3314 20.307 20.3585 20.307C20.7241 20.307 21.0376 20.6205 21.0376 20.9862C21.0376 21.3513 20.7241 21.6642 20.3585 21.6642ZM18.8969 24.6924H13.0506V23.0218H18.8969V24.6924ZM15.2952 7.88317V13.4166C14.46 13.6777 13.8854 14.4603 13.8854 15.4005C13.8854 16.5487 14.8251 17.4883 15.9738 17.4883C17.1219 17.4883 18.0622 16.5487 18.0622 15.4005C18.0622 14.4603 17.4359 13.6777 16.6523 13.4166V7.88317L20.9853 15.4522L19.7849 19.0021H12.1631L10.9622 15.4522L15.2952 7.88317ZM15.9738 14.617C16.3917 14.617 16.7568 14.9826 16.7568 15.4005C16.7568 15.8174 16.3917 16.183 15.9738 16.183C15.5559 16.183 15.1907 15.8174 15.1907 15.4005C15.1907 14.9826 15.5559 14.617 15.9738 14.617ZM22.2902 15.0866L16.5479 5.06397C16.2867 4.6466 15.7648 4.6466 15.5042 4.90778C15.3997 5.01225 15.7648 4.38542 9.65736 15.0866C9.55288 15.2438 9.55287 15.4522 9.60511 15.6089L10.8055 19.1584C10.0747 19.4718 9.60511 20.2025 9.60511 20.9862C9.60511 22.082 10.4926 22.9695 11.5885 22.9695H11.7453V25.3187C11.7453 25.6843 12.0586 25.9971 12.4238 25.9971H19.6277C19.9934 25.9971 20.3063 25.6843 20.3063 25.3187V22.9695H20.463C21.5594 22.9695 22.4469 22.082 22.4469 20.9862C22.4469 20.1504 21.9246 19.4195 21.2465 19.1584L22.4469 15.6089C22.3947 15.4005 22.3947 15.2438 22.2902 15.0866Z" fill="#016EDC"/>
<path d="M3.23645 28.6592C3.02751 28.6592 2.92303 28.5027 2.92303 28.3459C2.92303 28.1891 3.07974 28.033 3.23645 28.033C3.39316 28.033 3.54985 28.1891 3.54985 28.3459C3.60208 28.5548 3.4454 28.6592 3.23645 28.6592ZM3.23645 26.676C2.29672 26.676 1.56592 27.4067 1.56592 28.3459C1.56592 29.2851 2.29672 30.0168 3.23645 30.0168C4.17618 30.0168 4.90696 29.2851 4.90696 28.3459C4.90696 27.4067 4.17618 26.676 3.23645 26.676Z" fill="#016EDC"/>
<path d="M29.5464 28.0332C29.1813 28.0332 28.8679 27.7199 28.8679 27.3542C28.8679 26.9889 29.1813 26.6762 29.5464 26.6762C29.9121 26.6762 30.2249 26.9889 30.2249 27.3542C30.2249 27.7199 29.9121 28.0332 29.5464 28.0332ZM29.5464 25.3186C28.4505 25.3186 27.563 26.2055 27.563 27.3019C27.563 28.3989 28.4505 29.2854 29.5464 29.2854C30.6429 29.2854 31.5303 28.3989 31.5303 27.3019C31.5303 26.2582 30.6429 25.3186 29.5464 25.3186Z" fill="#016EDC"/>
</svg>
