<svg width="44" height="46" viewBox="0 0 44 46" fill="none" xmlns="http://www.w3.org/2000/svg">
<path d="M2.13363 42.9124V39.7929H41.9473V42.9124H2.13363ZM41.8655 14.5917V34.4573H11.4913C10.9174 34.4573 10.4253 34.9502 10.4253 35.524C10.4253 36.0987 10.9174 36.5917 11.4913 36.5917H41.8655V37.6593H2.13363V36.5917H5.2531C5.82779 36.5917 6.31993 36.0987 6.31993 35.524C6.31993 34.9502 5.82779 34.4573 5.2531 34.4573H2.13363V14.5917C20.9324 14.5917 31.4402 14.5917 41.8655 14.5917ZM4.18631 8.76307C5.90955 9.33776 5.99211 9.42033 6.23898 9.42033C6.56679 9.42033 6.56682 9.33776 8.29007 8.76307V12.5398H4.10376V8.76307H4.18631ZM6.31993 3.34484L7.96224 6.7104L6.31993 7.2859L4.67843 6.7104L6.31993 3.34484ZM12.5589 3.34484L14.2013 6.7104L12.5589 7.2859L10.9174 6.7104L12.5589 3.34484ZM18.8797 3.34484L20.522 6.7104L18.8797 7.2859L17.2382 6.7104L18.8797 3.34484ZM25.1187 3.34484L26.761 6.7104L25.1187 7.2859L23.4764 6.7104L25.1187 3.34484ZM31.4402 3.34484L33.0809 6.7104L31.4402 7.2859L29.7979 6.7104L31.4402 3.34484ZM37.6792 3.34484L39.3199 6.7104L37.6792 7.2859L36.0369 6.7104L37.6792 3.34484ZM35.6265 8.76307C37.3498 9.33776 37.5967 9.50206 38.0888 9.33774L39.8946 8.76307V12.5398H35.7083L35.6265 8.76307ZM10.507 12.5398V8.76307C12.2311 9.33776 12.4764 9.50206 12.9693 9.33774L14.6934 8.76307V12.5398H10.507ZM16.7461 12.5398V8.76307C18.4693 9.33776 18.5519 9.42033 18.7979 9.42033C19.0448 9.42033 19.1266 9.33776 20.8506 8.76307V12.5398H16.7461ZM23.0668 12.5398V8.76307C24.7909 9.33776 25.0369 9.50206 25.529 9.33774L27.3348 8.76307V12.5398H23.0668ZM29.305 12.5398V8.76307C31.0299 9.33776 31.2751 9.50206 31.768 9.33774L33.5739 8.76307V12.5398H29.305ZM42.9324 12.5398H41.8655V7.2859C41.8655 6.79296 41.9473 7.36762 38.5817 0.554756C38.1714 -0.184246 37.1037 -0.184246 36.6933 0.554756L34.4772 4.98714L32.261 0.554756C31.8506 -0.184246 30.783 -0.184246 30.3726 0.554756L28.1564 4.98714L26.1037 0.554756C25.6933 -0.184246 24.6265 -0.184246 24.2162 0.554756L22 4.98714L19.783 0.554756C19.3726 -0.184246 18.305 -0.184246 17.8946 0.554756L15.6784 4.98714L13.4614 0.554756C13.0519 -0.184246 11.9842 -0.184246 11.5739 0.554756L9.3577 4.98714L7.22323 0.554756C6.81286 -0.184246 5.74604 -0.184246 5.33485 0.554756C1.96929 7.20331 2.21619 6.79296 2.13363 6.95728C2.05106 7.20333 2.05104 6.62865 2.05104 12.5398H1.066C0.492125 12.5398 0 13.0319 0 13.6066V43.98C0 44.5547 0.492125 45.0469 1.066 45.0469H42.9324C43.5071 45.0469 44 44.5547 44 43.98V13.6066C44 13.0319 43.5071 12.5398 42.9324 12.5398Z" fill="white"/>
<path d="M33.4918 25.0173V27.2334C32.7528 28.055 31.3574 28.7932 29.3047 29.3679V22.8828C31.3574 23.4575 32.8354 24.2783 33.4918 25.0173ZM10.5067 27.2334V25.0173C11.2457 24.1965 12.6412 23.4575 14.6931 22.8828V29.3679C12.6412 28.7932 11.1632 28.055 10.5067 27.2334ZM20.9321 30.2712C19.3723 30.1886 17.9769 30.0251 16.7458 29.8608V22.3907C17.9769 22.1438 19.3723 21.9803 20.9321 21.9803V30.2712ZM23.0665 21.9803C24.6262 22.0621 26.0217 22.2264 27.2536 22.3907V29.8608C26.0217 30.1069 24.6262 30.2712 23.0665 30.2712V21.9803ZM7.87939 26.1666C7.87939 28.8758 11.1632 30.7633 15.3495 31.7484C15.4321 31.7484 15.5138 31.831 15.5964 31.831C19.5366 32.6517 24.2159 32.7335 28.3196 31.831C28.4022 31.831 28.484 31.8309 28.5665 31.7484C32.7528 30.7633 36.0366 28.8758 36.0366 26.1666C36.0366 23.4575 32.7528 21.57 28.5665 20.5841C28.484 20.5841 28.4022 20.5023 28.3196 20.5023C24.2976 19.6816 19.6192 19.6816 15.5964 20.5023C15.5138 20.5023 15.4321 20.5023 15.3495 20.5841C11.1632 21.4874 7.87939 23.375 7.87939 26.1666Z" fill="white"/>
<path d="M8.37232 34.5399C7.79763 34.5399 7.30469 35.032 7.30469 35.6067C7.30469 36.1814 7.79763 36.6743 8.37232 36.6743C8.94701 36.6743 9.43995 36.1814 9.43995 35.6067C9.43995 34.9502 8.94701 34.5399 8.37232 34.5399Z" fill="white"/>
<path d="M6.81283 17.7936C7.05889 17.7936 7.30495 18.0405 7.30495 18.2857C7.30495 18.6143 7.05889 18.7786 6.81283 18.7786C6.4842 18.7786 6.31991 18.5326 6.31991 18.2857C6.31991 17.9579 6.4842 17.7936 6.81283 17.7936ZM6.81283 20.9131C8.29001 20.9131 9.44022 19.7637 9.44022 18.2857C9.44022 16.8085 8.29001 15.6599 6.81283 15.6599C5.33483 15.6599 4.18628 16.8085 4.18628 18.2857C4.18628 19.7637 5.41739 20.9131 6.81283 20.9131Z" fill="white"/>
<path d="M36.6117 18.7782C37.1863 18.7782 37.6793 19.2711 37.6793 19.8458C37.6793 20.4205 37.1863 20.9127 36.6117 20.9127C36.037 20.9127 35.544 20.4205 35.544 19.8458C35.6266 19.2711 36.1187 18.7782 36.6117 18.7782ZM36.6117 22.9653C38.3349 22.9653 39.7312 21.5699 39.7312 19.8458C39.7312 18.1218 38.3349 16.7263 36.6117 16.7263C34.8876 16.7263 33.4922 18.1218 33.4922 19.8458C33.4922 21.5699 34.9693 22.9653 36.6117 22.9653Z" fill="white"/>
</svg>
