<svg width="44" height="43" viewBox="0 0 44 43" fill="none" xmlns="http://www.w3.org/2000/svg">
<path d="M2.72327 23.3804L3.98311 22.1205L16.0627 34.1994L14.8028 35.4592C13.6171 36.6449 11.764 36.6449 10.5783 35.4592L2.72327 27.6042C1.61171 26.4185 1.61171 24.5654 2.72327 23.3804ZM23.3245 2.85334C24.5102 1.66763 26.3625 1.66763 27.5482 2.85334L35.3291 10.7084C36.5148 11.8941 36.5148 13.7464 35.3291 14.858L25.4 24.862L21.3238 20.7865C20.9531 20.4158 20.3598 20.4158 19.9898 20.7865C19.619 21.1565 19.619 21.7498 19.9898 22.1205L24.0653 26.196L22.732 27.53L10.6525 15.4505L11.9865 14.1165L17.7667 19.8967C17.9892 20.1192 18.2116 20.1933 18.4334 20.1933C19.249 20.1933 19.6932 19.1559 19.1 18.5634L13.3198 12.7832L23.3245 2.85334ZM9.31846 16.7845L21.3238 28.7899L17.3225 32.7912L5.31715 20.7865L9.31846 16.7845ZM39.3312 18.9334L18.8041 39.4605C17.6184 40.6462 15.7653 40.6462 14.5796 39.4605L13.2463 38.1272C14.2837 37.9789 15.3211 37.534 16.0627 36.7191C19.6191 33.1619 19.9898 32.7912 23.3245 29.4565C25.4 27.3817 20.3599 32.4212 36.589 16.192C37.3305 15.4505 37.8488 14.4131 37.9971 13.3757L39.3312 14.7097C40.5162 15.8954 40.5162 17.7477 39.3312 18.9334ZM41.1094 40.2762H20.5823L40.6652 20.1933C42.5175 18.341 42.5917 15.2287 40.6652 13.3022C36.2924 8.92944 32.8094 5.44647 28.8081 1.44516C26.9558 -0.481341 23.8428 -0.481341 21.9163 1.44516L8.65181 14.7838L3.31574 20.1192L1.38926 22.0464C-0.463087 23.8987 -0.463087 27.0109 1.38926 28.9374C1.46341 29.0116 11.9123 39.4605 12.8014 40.3496H9.02256C8.50349 40.3496 8.05858 40.7945 8.05858 41.3136C8.05858 41.8319 8.50349 42.2769 9.02256 42.2769H41.1843C41.7026 42.2769 42.1468 41.8319 42.1468 41.3136C42.0726 40.7204 41.7026 40.2762 41.1094 40.2762Z" fill="white"/>
<path d="M5.24236 6.26266C5.76143 6.26266 6.20634 6.70683 6.20634 7.2259C6.20634 7.74423 5.76143 8.18916 5.24236 8.18916C4.72403 8.18916 4.27982 7.74423 4.27982 7.2259C4.27982 6.70683 4.72403 6.26266 5.24236 6.26266ZM5.24236 10.0415C6.79957 10.0415 8.05869 8.78164 8.05869 7.2259C8.05869 5.66943 6.79957 4.40958 5.24236 4.40958C3.68663 4.40958 2.42676 5.66943 2.42676 7.2259C2.42676 8.78164 3.68663 10.0415 5.24236 10.0415Z" fill="white"/>
<path d="M39.2573 2.48263C39.7763 2.48263 40.2205 2.92753 40.2205 3.44587C40.2205 3.96494 39.7763 4.40913 39.2573 4.40913C38.7389 4.40913 38.294 3.96494 38.294 3.44587C38.294 2.92753 38.7389 2.48263 39.2573 2.48263ZM39.2573 6.26221C40.8137 6.26221 42.0729 5.00234 42.0729 3.44587C42.0729 1.89013 40.8137 0.630279 39.2573 0.630279C37.7008 0.630279 36.4417 1.89013 36.4417 3.44587C36.4417 5.00234 37.7008 6.26221 39.2573 6.26221Z" fill="white"/>
<path d="M39.7016 32.7918C38.8874 32.7918 38.2942 32.1251 38.2942 31.3836C38.2942 30.6428 38.9608 29.9754 39.7016 29.9754C40.4431 29.9754 41.1098 30.6428 41.1098 31.3836C41.1098 32.1251 40.5165 32.7918 39.7016 32.7918ZM39.7016 28.0489C37.8493 28.0489 36.3669 29.5313 36.3669 31.3836C36.3669 33.2367 37.8493 34.7183 39.7016 34.7183C41.554 34.7183 43.037 33.2367 43.037 31.3836C43.037 29.5313 41.554 28.0489 39.7016 28.0489Z" fill="white"/>
<path d="M29.7722 34.6439C29.7722 35.163 30.2164 35.6079 30.7347 35.6079C31.2538 35.6079 31.6987 35.163 31.6987 34.6439C31.6987 34.1256 31.2538 33.6807 30.7347 33.6807C30.2164 33.6807 29.7722 34.1256 29.7722 34.6439Z" fill="white"/>
<path d="M4.27965 35.6077C3.76058 35.6077 3.31567 36.0519 3.31567 36.5709C3.31567 37.0893 3.76058 37.5342 4.27965 37.5342C4.79798 37.5342 5.24219 37.0893 5.24219 36.5709C5.24219 36.0519 4.79798 35.6077 4.27965 35.6077Z" fill="white"/>
<path d="M14.6546 0.631117C15.1862 0.631117 15.6172 1.06207 15.6172 1.59436C15.6172 2.12591 15.1862 2.55762 14.6546 2.55762C14.1224 2.55762 13.6907 2.12591 13.6907 1.59436C13.6907 1.06207 14.1224 0.631117 14.6546 0.631117Z" fill="white"/>
<path d="M4.27965 12.8577C4.81193 12.8577 5.24219 13.2886 5.24219 13.8209C5.24219 14.3532 4.81193 14.7842 4.27965 14.7842C3.74737 14.7842 3.31567 14.3532 3.31567 13.8209C3.31567 13.2886 3.74737 12.8577 4.27965 12.8577Z" fill="white"/>
<path d="M43.0367 9.1526C42.5177 9.1526 42.0728 9.59753 42.0728 10.1159C42.0728 10.6349 42.5177 11.0791 43.0367 11.0791C43.5551 11.0791 44 10.6349 44 10.1159C44 9.52337 43.5551 9.1526 43.0367 9.1526Z" fill="white"/>
</svg>
