<svg width="44" height="46" viewBox="0 0 44 46" fill="none" xmlns="http://www.w3.org/2000/svg">
<path d="M42.0813 37.2746C42.0813 38.8875 40.775 40.193 39.1628 40.193C35.3999 40.193 8.29269 40.193 4.91398 40.193C3.30109 40.193 1.99635 38.8875 1.99635 37.2746V15.7729C1.99635 14.1608 3.30109 12.8552 4.91398 12.8552H39.1628C40.775 12.8552 42.0813 14.1608 42.0813 15.7729V37.2746ZM37.6276 43.1875H33.7109C33.4804 43.1875 33.2499 42.957 33.2499 42.7272C33.2499 42.4959 33.4804 42.2662 33.7109 42.2662H37.6276C37.8573 42.2662 38.0878 42.4959 38.0878 42.7272C38.1647 42.957 37.9342 43.1875 37.6276 43.1875ZM11.6714 42.7272C11.6714 42.957 11.4416 43.1875 11.2111 43.1875H7.29453C6.98716 43.1875 6.83426 42.957 6.83426 42.7272C6.83426 42.4959 7.06476 42.2662 7.29453 42.2662H11.2111C11.4416 42.1893 11.6714 42.4199 11.6714 42.7272ZM13.6677 7.94047C15.5111 7.94047 17.0472 9.16917 17.4314 10.8581H9.82871C10.2898 9.16917 11.825 7.94047 13.6677 7.94047ZM39.0868 10.8581H19.4277C19.1203 8.86181 17.738 7.17283 15.9722 6.40443L22.1156 1.79703C22.5759 1.48966 22.6528 0.875705 22.3461 0.414661C22.038 -0.0456221 21.4241 -0.122464 20.963 0.184898L14.2056 5.25258L7.37135 0.260978C6.91107 -0.0456236 6.29633 0.0304585 5.98973 0.491502C5.6816 0.952546 5.75924 1.56727 6.21953 1.87387L12.0556 6.25074C9.90559 6.86547 8.2927 8.70813 7.90926 10.935H4.91398C2.22608 10.935 0 13.1626 0 15.8497V37.3514C0 40.0393 2.22608 42.2662 4.91398 42.2662H4.99081C4.68421 43.8022 5.8353 45.1838 7.37135 45.1838H11.2111C12.7464 45.1838 13.899 43.8022 13.5916 42.2662H31.3304C31.023 43.8022 32.1749 45.1838 33.7109 45.1838H37.6276C39.1629 45.1838 40.3915 43.7254 40.0073 42.1893C42.2342 41.7283 44 39.732 44 37.3514V15.8497C44 13.0089 41.7739 10.8581 39.0868 10.8581Z" fill="white"/>
<path d="M39.0865 31.4384C38.0108 31.4384 37.1663 32.3597 37.1663 33.4347C37.1663 34.5097 38.0876 35.355 39.0865 35.355C40.1615 35.355 41.0829 34.5097 41.0829 33.4347C41.0829 32.2829 40.1615 31.4384 39.0865 31.4384Z" fill="white"/>
<path d="M39.0865 26.5235C38.0108 26.5235 37.1663 27.4448 37.1663 28.4438C37.1663 29.5188 38.0876 30.3633 39.0865 30.3633C40.1615 30.3633 41.0829 29.4419 41.0829 28.4438C41.0829 27.4448 40.1615 26.5235 39.0865 26.5235Z" fill="white"/>
<path d="M40.084 23.6062H38.1644C37.6273 23.6062 37.1663 24.0665 37.1663 24.6044C37.1663 25.1415 37.6273 25.6025 38.1644 25.6025H40.084C40.6219 25.6025 41.0829 25.1415 41.0829 24.6044C41.0829 23.9896 40.6219 23.6062 40.084 23.6062Z" fill="white"/>
<path d="M40.084 20.688H38.1644C37.6273 20.688 37.1663 21.149 37.1663 21.6862C37.1663 22.2241 37.6273 22.6843 38.1644 22.6843H40.084C40.6219 22.6843 41.0829 22.2241 41.0829 21.6862C41.0829 21.0722 40.6219 20.688 40.084 20.688Z" fill="white"/>
<path d="M40.084 17.6934H38.1644C37.6273 17.6934 37.1663 18.1536 37.1663 18.6915C37.1663 19.2286 37.6273 19.6897 38.1644 19.6897H40.084C40.6219 19.6897 41.0829 19.2286 41.0829 18.6915C41.0829 18.1536 40.6219 17.6934 40.084 17.6934Z" fill="white"/>
<path d="M24.8808 21.4562L22.0385 22.5312C21.5013 22.761 21.2715 23.2988 21.5013 23.8367C21.655 24.2202 22.0384 24.4507 22.4226 24.4507C22.73 24.4507 22.6531 24.3739 25.5716 23.2988C26.1087 23.0683 26.3392 22.5312 26.1087 22.0702C25.955 21.5323 25.4179 21.3017 24.8808 21.4562Z" fill="white"/>
<path d="M16.5103 24.6813L13.7456 25.7563C13.2077 25.9868 12.9771 26.5239 13.2077 27.0618C13.3613 27.4453 13.7456 27.6758 14.1298 27.6758C14.4364 27.6758 14.3603 27.5989 17.2772 26.5239C17.8158 26.2934 18.0456 25.7563 17.8158 25.2184C17.5853 24.6813 16.9706 24.4507 16.5103 24.6813Z" fill="white"/>
<path d="M21.8853 27.6758C21.6547 27.1387 21.1168 26.9082 20.5797 27.1387C20.0418 27.3692 19.812 27.9063 20.0418 28.4442L20.8103 30.5174C21.0408 31.0545 21.5778 31.2851 22.1157 31.0545C22.6528 30.8248 22.8834 30.2869 22.6529 29.749L21.8853 27.6758Z" fill="white"/>
<path d="M34.1723 7.94067C34.7094 7.94067 35.1696 7.47964 35.1696 6.94252C35.1696 6.40463 34.7094 5.94358 34.1723 5.94358C33.6344 5.94358 33.1733 6.40463 33.1733 6.94252C33.2502 7.47964 33.6344 7.94067 34.1723 7.94067Z" fill="white"/>
<path d="M3.83948 6.94263C4.37661 6.94263 4.83766 6.48157 4.83766 5.94369C4.83766 5.40657 4.37661 4.94553 3.83948 4.94553C3.3016 4.94553 2.84131 5.40657 2.84131 5.94369C2.84131 6.48157 3.3016 6.94263 3.83948 6.94263Z" fill="white"/>
<path d="M7.75576 27.5222C7.21787 27.5222 6.75684 27.9832 6.75684 28.5203C6.75684 29.0582 7.21787 29.5193 7.75576 29.5193C8.29288 29.5193 8.75393 29.0582 8.75393 28.5203C8.75393 27.9832 8.29288 27.5222 7.75576 27.5222Z" fill="white"/>
<path d="M7.75576 30.4404C7.21787 30.4404 6.75684 30.9007 6.75684 31.4386C6.75684 31.9757 7.21787 32.4368 7.75576 32.4368C8.29288 32.4368 8.75393 31.9757 8.75393 31.4386C8.75393 30.9007 8.29288 30.4404 7.75576 30.4404Z" fill="white"/>
<path d="M7.75576 33.3579C7.21787 33.3579 6.75684 33.8189 6.75684 34.3568C6.75684 34.8939 7.21787 35.355 7.75576 35.355C8.29288 35.355 8.75393 34.8939 8.75393 34.3568C8.75393 33.8189 8.29288 33.3579 7.75576 33.3579Z" fill="white"/>
<path d="M34.1724 36.2764H32.1753C33.404 33.5885 33.4808 30.4403 32.405 27.7524C26.6465 12.6247 28.6429 17.846 28.1819 16.6949H34.0948V36.2764H34.1724ZM20.8873 36.2764C21.3476 35.1245 22.116 34.2024 23.2679 33.819C23.344 33.819 24.9568 33.0506 27.1069 34.3569C27.5679 34.6635 28.1819 34.5098 28.4892 33.9727C28.7966 33.5116 28.6429 32.8977 28.1058 32.5903C24.1884 30.2866 20.1957 31.9756 18.891 36.1227C18.891 36.1995 18.891 36.1995 18.891 36.2764H14.9736C14.206 34.9708 14.3604 34.9708 9.75226 23.145C9.67542 22.9913 9.82912 22.8376 9.9828 22.7608C14.7431 22.4542 21.5013 20.0736 25.8781 16.6949C26.0318 16.6181 26.1855 16.6181 26.2623 16.8479C30.8697 28.9811 30.7929 28.6737 31.0234 29.6719C31.5613 31.9756 31.1771 34.3569 30.0245 36.2764H20.8873ZM5.83571 16.771H22.4994C18.967 18.8442 13.8994 20.6108 9.90598 20.9181C8.44677 20.995 7.44933 22.531 7.98645 23.9126C12.5931 35.8922 12.3633 35.5848 12.7468 36.3532H5.83571V16.771ZM35.1698 14.7747H4.83753C4.30041 14.7747 3.83936 15.2357 3.83936 15.7729V37.2745C3.83936 37.8124 4.30041 38.2727 4.83753 38.2727C11.6718 38.2727 28.7966 38.2727 35.1698 38.2727C35.7076 38.2727 36.1687 37.8124 36.1687 37.2745V15.7729C36.1687 15.2357 35.7076 14.7747 35.1698 14.7747Z" fill="white"/>
<path d="M39.0869 2.02778C39.624 2.02778 40.0843 2.48807 40.0843 3.02595C40.0843 3.56384 39.624 4.02411 39.0869 4.02411C38.5483 4.02411 38.088 3.56384 38.088 3.02595C38.1648 2.48807 38.5483 2.02778 39.0869 2.02778ZM39.0869 5.9436C40.699 5.9436 42.0038 4.63885 42.0038 3.02595C42.0038 1.41306 40.699 0.108284 39.0869 0.108284C37.4733 0.108284 36.1685 1.41306 36.1685 3.02595C36.1685 4.63885 37.4733 5.9436 39.0869 5.9436Z" fill="white"/>
<path d="M26.8768 5.94345C27.1066 5.94345 27.3372 6.17474 27.3372 6.4045C27.3372 6.63502 27.1066 6.86555 26.8768 6.86555C26.6463 6.86555 26.4158 6.63502 26.4158 6.4045C26.339 6.17474 26.5687 5.94345 26.8768 5.94345ZM26.8768 8.93872C28.2584 8.93872 29.3334 7.86371 29.3334 6.48134C29.3334 5.09973 28.2584 4.02396 26.8768 4.02396C25.4937 4.02396 24.4187 5.09973 24.4187 6.48134C24.4187 7.78687 25.4937 8.93872 26.8768 8.93872Z" fill="white"/>
</svg>
