<svg width="44" height="47" viewBox="0 0 44 47" fill="none" xmlns="http://www.w3.org/2000/svg">
<path d="M4.89745 27.6215L9.15335 28.6652L10.197 32.9202L2.8101 35.0076L4.89745 27.6215ZM26.6574 2.6501C26.737 2.6501 26.8977 2.6501 27.0592 2.81079L27.4609 3.2125L34.6863 10.4388L35.0881 10.8405C35.3291 11.0807 35.3291 11.4021 35.0881 11.5628C34.847 11.7227 34.5257 11.8031 34.365 11.5628L34.0444 11.1611L26.8181 3.93481L26.4164 3.61343C26.0147 3.2125 26.1753 2.6501 26.6574 2.6501ZM35.2487 8.18991L29.6278 2.56975C30.2706 2.16882 30.9929 2.00813 31.7152 2.00813C34.9274 2.00813 36.8541 5.38022 35.2487 8.18991ZM28.102 8.27105L9.71579 26.6573L6.26253 25.7743L25.9351 6.10253L28.102 8.27105ZM11.9638 31.556L11.0808 28.1027L29.4679 9.71566L31.6356 11.8842L11.9638 31.556ZM40.7886 35.4897H8.59176L11.7228 34.6067C12.2049 34.446 10.5184 35.9718 33.2409 13.3288C34.2051 13.9716 35.5701 13.8912 36.4531 13.0082C37.3369 12.1244 37.4165 10.679 36.6942 9.71566C39.5842 5.62125 36.6942 0.000299246 31.716 0.000299246C30.4313 0.000299246 29.1465 0.402015 28.102 1.12432C27.1387 0.402015 25.6941 0.482363 24.8103 1.44571C23.9273 2.32871 23.8477 3.69378 24.4889 4.65792C1.84676 27.2197 3.3717 25.6136 3.21181 26.0957C3.13146 26.4171 0.320992 36.2931 0.320992 36.3735C0.241443 36.9351 0.642375 37.2565 0.642375 37.2565C0.803065 37.4172 0.963741 37.4975 1.28432 37.5771C1.36547 37.5771 -0.561989 37.5771 40.8689 37.5771C41.5117 37.5771 42.0741 38.1395 42.0741 38.7822C42.0741 39.4242 41.5117 39.9866 40.8689 39.9866H14.3718C12.6861 39.9866 11.3211 41.3517 11.3211 43.0373C11.3211 44.7238 12.6861 46.0889 14.3718 46.0889H29.709C30.2706 46.0889 30.7518 45.6068 30.7518 45.0452C30.7518 44.4828 30.2706 44.0015 29.709 44.0015H14.2922C13.7306 44.0015 13.2478 43.5194 13.2478 42.957C13.2478 42.3954 13.7306 41.9133 14.2922 41.9133H40.7886C42.5554 41.9133 44 40.4679 44 38.7011C44 36.9351 42.5554 35.4897 40.7886 35.4897Z" fill="white"/>
<path d="M3.05069 9.15413C3.6131 9.15413 4.09439 9.63539 4.09439 10.1978C4.09439 10.7594 3.6131 11.2415 3.05069 11.2415C2.48907 11.2415 2.00622 10.7594 2.00622 10.1978C2.00622 9.63539 2.48907 9.15413 3.05069 9.15413ZM3.05069 13.2485C4.73714 13.2485 6.10223 11.8843 6.10223 10.1978C6.10223 8.51136 4.73714 7.1463 3.05069 7.1463C1.36504 7.1463 0 8.51136 0 10.1978C0 11.8843 1.36504 13.2485 3.05069 13.2485Z" fill="white"/>
<path d="M38.3798 21.4392C39.1832 21.4392 39.9055 22.1615 39.9055 22.9642C39.9055 23.7676 39.1832 24.49 38.3798 24.49C37.5771 24.49 36.854 23.7676 36.854 22.9642C36.854 22.1615 37.4968 21.4392 38.3798 21.4392ZM34.7666 22.9642C34.7666 24.972 36.3727 26.5781 38.3798 26.5781C40.3876 26.5781 41.9929 24.972 41.9929 22.9642C41.9929 20.9571 40.3876 19.3511 38.3798 19.3511C36.3727 19.3511 34.7666 20.9571 34.7666 22.9642Z" fill="white"/>
<path d="M1.04288 18.3073C1.61962 18.3073 2.08736 18.7751 2.08736 19.351C2.08736 19.9278 1.61962 20.3955 1.04288 20.3955C0.466944 20.3955 0 19.9278 0 19.351C0 18.7751 0.466944 18.3073 1.04288 18.3073Z" fill="white"/>
<path d="M40.95 14.292C41.5117 14.292 41.9929 13.8107 41.9929 13.2483C41.9929 12.6867 41.5117 12.2046 40.95 12.2046C40.3876 12.2046 39.9055 12.6867 39.9055 13.2483C39.9055 13.8107 40.3876 14.292 40.95 14.292Z" fill="white"/>
<path d="M29.7087 27.5413C29.7087 28.1029 30.19 28.585 30.7516 28.585C31.314 28.585 31.7961 28.1029 31.7961 27.5413C31.7961 26.9788 31.314 26.4976 30.7516 26.4976C30.1097 26.5779 29.7087 26.9788 29.7087 27.5413Z" fill="white"/>
<path d="M32.7595 44.0015C32.1979 44.0015 31.7158 44.4828 31.7158 45.0452C31.7158 45.6068 32.1979 46.0889 32.7595 46.0889C33.3219 46.0889 33.8032 45.6068 33.8032 45.0452C33.8032 44.4024 33.3219 44.0015 32.7595 44.0015Z" fill="white"/>
<path d="M35.8111 44.0015C35.2487 44.0015 34.7666 44.4828 34.7666 45.0452C34.7666 45.6068 35.2487 46.0889 35.8111 46.0889C36.3727 46.0889 36.854 45.6068 36.854 45.0452C36.854 44.4024 36.3727 44.0015 35.8111 44.0015Z" fill="white"/>
<path d="M4.09448 40.8701C3.53206 40.8701 3.05078 41.3522 3.05078 41.9138C3.05078 42.4762 3.53206 42.9575 4.09448 42.9575C4.6561 42.9575 5.13818 42.4762 5.13818 41.9138C5.13818 41.3522 4.6561 40.8701 4.09448 40.8701Z" fill="white"/>
<path d="M11.2405 5.05908C11.8029 5.05908 12.2842 4.577 12.2842 4.01538C12.2842 3.45297 11.8029 2.97171 11.2405 2.97171C10.6789 2.97171 10.1968 3.45297 10.1968 4.01538C10.1968 4.577 10.6789 5.05908 11.2405 5.05908Z" fill="white"/>
</svg>
