<svg width="35" height="40" viewBox="0 0 35 40" fill="none" xmlns="http://www.w3.org/2000/svg">
<path d="M17.4998 -0.00195312C7.83516 -0.00195312 0 8.33125 0 18.6131C0 24.4961 1.3185 33.3864 6.57246 33.1495C12.7142 32.8727 9.15002 27.8355 9.12814 25.9179C9.09567 23.106 11.012 21.7061 13.3364 21.7061C15.6601 21.7061 17.5775 23.5926 17.5443 25.9179C17.4998 28.9931 11.7578 33.0075 17.4998 37.2281C23.3931 41.5597 35 28.8941 35 18.6131C35.0004 8.33125 27.1652 -0.00195312 17.4998 -0.00195312ZM14.1574 17.2686C13.7631 18.1874 12.8484 18.6773 12.1142 18.3623C11.3796 18.0469 11.1039 17.0459 11.4985 16.1257C11.8928 15.2068 12.8079 14.7177 13.5414 15.0324C14.276 15.3478 14.5521 16.3491 14.1574 17.2686Z" fill="#D1D1D1"/>
<path d="M17.5 0.857422C8.32409 0.857422 0.859131 8.82193 0.859131 18.6131C0.859131 24.9247 2.30128 32.2949 6.36804 32.2949C6.42238 32.2949 6.47818 32.2935 6.53399 32.2913C7.44764 32.25 8.63047 32.0646 9.07872 31.4188C9.61561 30.6435 9.13379 29.1578 8.74718 27.9633C8.49442 27.1851 8.27704 26.5116 8.27048 25.9279C8.2526 24.4443 8.71691 23.182 9.61232 22.2752C10.5212 21.3546 11.8445 20.8468 13.3366 20.8468C14.7116 20.8468 16.0006 21.3871 16.9649 22.3665C17.9111 23.3269 18.4213 24.5925 18.4024 25.9304C18.3856 27.0913 17.7765 28.2258 17.1327 29.4268C15.7967 31.9138 14.6431 34.0625 18.0081 36.5353C18.646 37.0044 19.393 37.242 20.2289 37.242C22.8718 37.242 26.3272 34.9076 29.2447 31.1516C32.3114 27.203 34.142 22.5151 34.142 18.6124C34.142 8.82194 26.6763 0.857422 17.5 0.857422ZM14.7434 17.5195C14.1755 18.8438 12.8581 19.5487 11.8003 19.0946C10.7426 18.6405 10.3462 17.1993 10.9137 15.8749C11.4816 14.5502 12.7993 13.8449 13.856 14.2987C14.9137 14.7532 15.3113 16.1947 14.7434 17.5195Z" fill="#F0F0FA"/>
<path d="M23.9909 33.4289C23.9369 33.4848 23.8684 33.5282 23.7888 33.5516C23.7538 33.5611 23.7206 33.5673 23.6871 33.5695C23.5747 33.5987 23.2658 33.6972 23.0539 33.7644C22.2453 34.0221 22.2139 34.032 22.0239 33.9305C21.9149 33.8721 21.8328 33.7717 21.7985 33.653C21.7132 33.3585 21.7132 33.3585 23.0043 32.1976C23.1637 32.0549 23.3472 31.8888 23.5383 31.7172C23.3202 31.7873 23.1042 31.8578 22.9044 31.9227C20.4472 32.7211 20.4231 32.708 20.1908 32.5857C20.0806 32.5273 19.9945 32.4229 19.9603 32.3024C19.8607 31.9585 19.8443 31.903 22.0768 30.3859C19.9143 31.0408 19.9026 31.0346 19.7108 30.9309C19.6043 30.8725 19.5233 30.7729 19.489 30.6557C19.4004 30.3483 19.4004 30.3483 20.8579 29.1345C21.0052 29.0126 21.1672 28.8783 21.3324 28.7392C20.8436 28.8892 20.8207 28.8768 20.6711 28.7965L20.8881 28.3924L20.794 27.9452C20.8462 27.931 21.1303 27.843 21.382 27.7638C23.194 27.1962 23.2024 27.2009 23.4139 27.3141C23.5222 27.3728 23.605 27.4747 23.6389 27.593C23.7309 27.9098 23.7374 27.9306 21.8609 29.4926C21.9907 29.4536 22.1184 29.4149 22.242 29.3769C24.7656 28.6114 24.7656 28.6114 24.9669 28.721C25.0753 28.779 25.1559 28.8787 25.1894 28.9966C25.2835 29.3211 25.0753 29.4631 24.7605 29.6766C24.604 29.7836 24.3819 29.9329 24.1207 30.1096C23.7976 30.3279 23.3231 30.648 22.8325 30.9828C25.1369 30.2355 25.1715 30.2527 25.3966 30.3728C25.5053 30.4297 25.5917 30.5356 25.6264 30.6557C25.7201 30.9769 25.7223 30.9882 23.8348 32.685C23.8476 32.6912 23.8622 32.6985 23.8764 32.7061C23.9851 32.7653 24.0668 32.8664 24.1014 32.9843C24.1477 33.1464 24.1007 33.3154 23.9909 33.4289ZM23.2213 33.2398C23.2483 33.3311 23.2976 33.4019 23.357 33.4545C23.2939 33.399 23.2458 33.3256 23.2213 33.2398Z" fill="#FFDB2F"/>
<path d="M29.9542 25.925C29.9006 25.9808 29.8313 26.0235 29.7515 26.0476C29.7172 26.0571 29.6836 26.0626 29.6508 26.0648C29.5381 26.094 29.2284 26.1929 29.0169 26.2597C28.2086 26.5185 28.1765 26.5273 27.9869 26.4265C27.8782 26.3681 27.7961 26.2674 27.7622 26.1491C27.6765 25.8538 27.6765 25.8538 28.9676 24.6933C29.1263 24.5509 29.3112 24.3852 29.5012 24.2136C29.2831 24.2837 29.0672 24.3542 28.8677 24.4192C26.4105 25.2171 26.3857 25.2047 26.1537 25.0813C26.044 25.0229 25.9575 24.9178 25.9236 24.7984C25.8237 24.4542 25.808 24.3987 28.0398 22.8812C25.8773 23.5368 25.8656 23.5299 25.6745 23.427C25.5669 23.3686 25.4863 23.2682 25.452 23.151C25.3637 22.8447 25.3637 22.8447 26.8212 21.631C26.9686 21.509 27.1301 21.3736 27.2964 21.2352C26.8066 21.3849 26.7836 21.3729 26.6341 21.2922L26.8511 20.8885L27.2895 20.7607L26.8496 20.8877L26.7552 20.4409C26.8073 20.4274 27.0922 20.3383 27.3435 20.2591C29.1566 19.6926 29.1642 19.697 29.3758 19.8101C29.4841 19.8682 29.5665 19.9707 29.6005 20.089C29.6927 20.4051 29.6993 20.4263 27.8228 21.9883C27.9522 21.9496 28.0803 21.9106 28.2043 21.8733C30.7275 21.1078 30.7275 21.1078 30.9292 21.217C31.036 21.275 31.117 21.3754 31.1509 21.493C31.245 21.8164 31.0371 21.9584 30.722 22.1723C30.5655 22.2789 30.3434 22.4286 30.0823 22.6049C29.7587 22.8243 29.2846 23.1441 28.794 23.4781C31.0984 22.7316 31.1327 22.7494 31.3585 22.8692C31.4668 22.9265 31.5536 23.032 31.5879 23.1514C31.682 23.4722 31.6842 23.4832 29.7963 25.1803C29.8091 25.1865 29.8229 25.1941 29.8379 25.2018C29.9469 25.2602 30.0286 25.361 30.0626 25.48C30.1111 25.6424 30.0629 25.8103 29.9542 25.925ZM29.1839 25.7348C29.2109 25.8268 29.2602 25.8979 29.3196 25.9494C29.2576 25.8943 29.2087 25.8217 29.1839 25.7348Z" fill="#FF9D00"/>
<path d="M29.9542 16.7427C29.9006 16.7993 29.8313 16.8427 29.7515 16.8661C29.7172 16.8748 29.6836 16.881 29.6508 16.8832C29.5381 16.9117 29.2284 17.0114 29.0169 17.0774C28.2086 17.3363 28.1765 17.3458 27.9869 17.245C27.8782 17.1866 27.7961 17.0855 27.7622 16.9668C27.6765 16.6722 27.6765 16.6722 28.9676 15.5118C29.1263 15.3694 29.3112 15.2037 29.5012 15.031C29.2831 15.1015 29.0672 15.1719 28.8677 15.2369C26.4105 16.036 26.3857 16.0232 26.1537 15.8998C26.044 15.8414 25.9575 15.7363 25.9236 15.6173C25.8237 15.2723 25.808 15.2164 28.0398 13.6993C25.8773 14.3549 25.8656 14.3487 25.6745 14.2451C25.5669 14.1867 25.4863 14.087 25.452 13.9698C25.3637 13.6625 25.3637 13.6625 26.8212 12.4487C26.9686 12.3271 27.1301 12.1917 27.2964 12.0533C26.8066 12.2037 26.7836 12.191 26.6341 12.111L26.8511 11.7066L26.7566 11.2586C26.8088 11.2462 27.0937 11.1572 27.345 11.078C29.158 10.5107 29.1657 10.5151 29.3772 10.6289C29.4856 10.687 29.568 10.7888 29.6019 10.9071C29.6942 11.224 29.7008 11.2444 27.8242 12.8072C27.9537 12.7677 28.0817 12.7294 28.2057 12.6922C30.7289 11.9259 30.7289 11.926 30.9306 12.0351C31.0375 12.0931 31.1185 12.1935 31.1524 12.3111C31.2465 12.6352 31.0386 12.7772 30.7235 12.9901C30.567 13.0977 30.3449 13.2481 30.0837 13.4237C29.7602 13.6424 29.2861 13.9622 28.7955 14.2969C31.0999 13.5497 31.1342 13.5676 31.3599 13.6873C31.4682 13.7446 31.5551 13.8508 31.5893 13.9702C31.6834 14.2903 31.6856 14.302 29.7978 15.9991C29.8105 16.0049 29.8244 16.0122 29.8394 16.0199C29.9484 16.079 30.0301 16.1798 30.064 16.2988C30.1111 16.4602 30.0629 16.6284 29.9542 16.7427ZM29.1839 16.5529C29.2109 16.6449 29.2602 16.7168 29.3196 16.7683C29.2576 16.7128 29.2087 16.6397 29.1839 16.5529Z" fill="#CB100B"/>
<path d="M22.9931 8.4205C22.9399 8.47635 22.8706 8.51979 22.79 8.54316C22.7564 8.55265 22.7228 8.55812 22.6897 8.56031C22.577 8.58952 22.2677 8.68844 22.0557 8.75561C21.2471 9.01406 21.2154 9.02355 21.0261 8.92207C20.9167 8.86476 20.835 8.76365 20.8007 8.64464C20.7146 8.34932 20.7146 8.34932 22.0069 7.18957C22.1648 7.04757 22.3501 6.88075 22.5401 6.70918C22.3227 6.77927 22.1061 6.84972 21.9069 6.9147C19.4494 7.71341 19.4242 7.70027 19.1926 7.57725C19.0832 7.51994 18.9967 7.41445 18.9617 7.29471C18.8625 6.95011 18.8465 6.89535 21.0786 5.37713C18.9165 6.03275 18.9048 6.02691 18.7133 5.92287C18.6047 5.86483 18.5251 5.76518 18.4909 5.64691C18.4022 5.34063 18.4022 5.34063 19.8608 4.12687C20.0074 4.00494 20.1694 3.86951 20.3349 3.73152C19.8458 3.88155 19.8225 3.86951 19.6737 3.78884L19.89 3.38474L19.7951 2.93682C19.848 2.92404 20.1329 2.83534 20.3842 2.75576C22.1962 2.18848 22.2042 2.19323 22.4161 2.30603C22.5244 2.36516 22.6069 2.46665 22.6408 2.58492C22.7334 2.90178 22.7396 2.92222 20.8631 4.48497C20.9926 4.44591 21.1209 4.40722 21.245 4.36962C23.7678 3.60413 23.7678 3.60412 23.9691 3.71254C24.0764 3.77094 24.1573 3.87134 24.1913 3.98852C24.2857 4.31304 24.0775 4.45395 23.7627 4.66859C23.6066 4.77555 23.3841 4.92557 23.1226 5.10153C22.7987 5.31982 22.3256 5.6396 21.8336 5.97398C24.1387 5.22711 24.173 5.245 24.3981 5.364C24.5067 5.42204 24.5939 5.52827 24.6286 5.64691C24.7219 5.96778 24.7249 5.97946 22.837 7.67655C22.8498 7.68275 22.8636 7.69006 22.8782 7.69772C22.9876 7.75577 23.069 7.85688 23.1036 7.97588C23.1496 8.13796 23.1025 8.30588 22.9931 8.4205ZM22.2228 8.23141C22.2494 8.32267 22.2994 8.39349 22.3581 8.44569C22.2957 8.3902 22.2476 8.31719 22.2228 8.23141Z" fill="#346D0A"/>
<path d="M10.7459 2.95624C10.8089 2.90988 10.8841 2.87994 10.9669 2.87118C11.0015 2.8679 11.0354 2.8679 11.0694 2.87264C11.1854 2.86461 11.5067 2.8208 11.7277 2.79342C12.5688 2.68245 12.6012 2.67844 12.7708 2.81205C12.8675 2.88834 12.9306 3.00186 12.9434 3.12525C12.9751 3.43079 12.9751 3.43079 11.4983 4.3434C11.3174 4.45583 11.1058 4.58579 10.8885 4.72085C11.1153 4.69092 11.3404 4.65952 11.5486 4.63105C14.1087 4.28207 14.1302 4.2985 14.337 4.46167C14.4347 4.5376 14.5011 4.6566 14.5139 4.78072C14.5507 5.13737 14.5569 5.19395 12.0913 6.292C14.3344 6.02954 14.3454 6.03902 14.5154 6.17482C14.6109 6.25111 14.6726 6.36428 14.6857 6.48511C14.7185 6.80343 14.7185 6.80342 13.0681 7.73866C12.9021 7.83321 12.7194 7.93688 12.5312 8.04384C13.0393 7.98251 13.0593 7.99968 13.1925 8.10518L12.908 8.46365L12.4521 8.51146L12.908 8.46437L12.9207 8.92104C12.8671 8.92433 12.5713 8.96229 12.3102 8.99515C10.4256 9.23133 10.418 9.22549 10.2305 9.07655C10.1346 8.99989 10.0707 8.88563 10.0583 8.76297C10.024 8.4359 10.0215 8.414 12.1446 7.20899C12.0096 7.22469 11.878 7.23965 11.7489 7.25462C9.13046 7.56016 9.13046 7.56016 8.95101 7.4167C8.85545 7.34041 8.79417 7.22725 8.78104 7.10569C8.74603 6.76985 8.97581 6.6669 9.32376 6.51285C9.49701 6.43582 9.74175 6.32814 10.0292 6.20074C10.3873 6.04231 10.91 5.81234 11.4531 5.56995C9.0524 5.89593 9.0214 5.87257 8.82153 5.71596C8.72342 5.63894 8.65703 5.5192 8.64463 5.39582C8.60962 5.06399 8.60852 5.05231 10.7674 3.71698C10.7557 3.70859 10.7433 3.6991 10.7305 3.68888C10.6328 3.61258 10.5704 3.4976 10.5584 3.37494C10.5409 3.20666 10.6175 3.04896 10.7459 2.95624ZM11.4691 3.2793C11.46 3.18476 11.4235 3.10554 11.3739 3.04421C11.4264 3.10956 11.4604 3.19023 11.4691 3.2793Z" fill="#1CB6FD"/>
<path d="M3.84575 10.8886C3.90046 10.8335 3.97049 10.7908 4.05109 10.7689C4.08428 10.7602 4.11857 10.755 4.15103 10.7532C4.26519 10.7266 4.57594 10.6339 4.78785 10.5696C5.60157 10.3258 5.6333 10.3163 5.82113 10.4199C5.92946 10.4805 6.00897 10.5827 6.04253 10.7018C6.1224 10.9985 6.1224 10.9985 4.81119 12.136C4.65108 12.2751 4.46251 12.4386 4.26993 12.6076C4.48877 12.5412 4.70615 12.4748 4.90712 12.4127C7.37817 11.6571 7.40152 11.6698 7.63203 11.7972C7.74108 11.8564 7.82497 11.9641 7.85743 12.0838C7.95153 12.4302 7.96685 12.4861 5.7088 13.9641C7.88187 13.3461 7.89281 13.3527 8.08283 13.4596C8.1897 13.5192 8.26848 13.6206 8.30058 13.7385C8.3841 14.0474 8.3841 14.0474 6.90512 15.2356C6.75667 15.3553 6.59254 15.4867 6.4244 15.6229C6.91679 15.4802 6.93904 15.4944 7.08712 15.5773L6.86354 15.9774L6.94998 16.4264C6.89746 16.4384 6.61041 16.5231 6.35838 16.5976C4.53692 17.1338 4.52853 17.1283 4.31917 17.0119C4.21157 16.952 4.1306 16.8491 4.09887 16.7304C4.01207 16.411 4.00587 16.3917 5.9083 14.861C5.77883 14.8986 5.64971 14.9341 5.52534 14.9702C2.98972 15.6923 2.98972 15.6923 2.79022 15.5795C2.68335 15.5189 2.60457 15.4181 2.57211 15.3006C2.48348 14.9742 2.69429 14.8366 3.01234 14.6267C3.171 14.523 3.39603 14.377 3.65901 14.2062C3.9869 13.993 4.46652 13.6809 4.96256 13.3549C2.64578 14.062 2.61186 14.0441 2.38901 13.9207C2.27996 13.8616 2.1957 13.7542 2.16324 13.6345C2.07571 13.3114 2.07279 13.3005 3.98909 11.6366C3.97705 11.6293 3.96356 11.6224 3.94897 11.614C3.84101 11.5541 3.76004 11.4512 3.72867 11.3322C3.68417 11.1683 3.73451 11.0007 3.84575 10.8886ZM4.61314 11.0912C4.58725 10.9993 4.53947 10.9277 4.48111 10.8737C4.54275 10.9303 4.58944 11.0044 4.61314 11.0912Z" fill="#004BA3"/>
<path d="M22.1246 17.349C22.0707 17.4048 22.0021 17.4483 21.9218 17.4713C21.8879 17.4811 21.8544 17.487 21.8215 17.4888C21.7085 17.5176 21.3992 17.6165 21.1884 17.6837C20.379 17.9414 20.3473 17.9509 20.1576 17.8513C20.0486 17.7921 19.9669 17.6921 19.9319 17.5731C19.8469 17.2774 19.8469 17.2774 21.1388 16.1169C21.2963 15.9749 21.4816 15.8088 21.672 15.6373C21.4543 15.7074 21.2383 15.7771 21.0385 15.8428C18.5805 16.6411 18.5568 16.628 18.3249 16.5046C18.2147 16.4473 18.129 16.3411 18.0944 16.2224C17.9941 15.8778 17.9776 15.8231 20.2105 14.3052C18.048 14.9608 18.0367 14.9546 17.8452 14.8506C17.738 14.7926 17.6567 14.6922 17.6231 14.5757C17.5341 14.2676 17.5341 14.2676 18.9923 13.0539C19.1393 12.9319 19.3009 12.7976 19.4672 12.6592C18.9777 12.8093 18.9544 12.7969 18.8049 12.7158L19.0219 12.3128L19.4621 12.1851L19.0219 12.3114L18.9281 11.8649C18.9799 11.8514 19.2648 11.762 19.5157 11.6835C21.3284 11.1158 21.3365 11.1206 21.5476 11.2345C21.6556 11.2918 21.7384 11.3936 21.773 11.5127C21.8646 11.8284 21.8715 11.8496 19.9946 13.4123C20.1248 13.3736 20.2517 13.3339 20.3765 13.2966C22.8993 12.5311 22.8993 12.5311 23.1007 12.6403C23.2093 12.6987 23.2892 12.7991 23.3231 12.9162C23.4169 13.24 23.209 13.3817 22.8942 13.5956C22.7374 13.7025 22.5164 13.8526 22.2556 14.0293C21.9317 14.2468 21.4575 14.5677 20.9663 14.9024C23.271 14.1541 23.3053 14.1731 23.5299 14.2925C23.6401 14.3501 23.7258 14.4553 23.7608 14.575C23.8535 14.8955 23.8567 14.9068 21.9685 16.6043C21.9817 16.6105 21.9952 16.6178 22.0097 16.6262C22.1192 16.6835 22.2009 16.7846 22.2352 16.9036C22.2822 17.0664 22.2344 17.2347 22.1246 17.349ZM21.3551 17.1599C21.3817 17.2511 21.4313 17.3219 21.4911 17.3745C21.428 17.319 21.3806 17.2449 21.3551 17.1599Z" fill="#787374"/>
<path opacity="0.1" d="M9.24149 26.6289L6.99693 33.119C11.9339 32.6817 9.78603 28.7958 9.24149 26.6289Z" fill="#201C1D"/>
<path d="M21.0979 23.2701C21.4827 22.6714 21.8372 22.0983 22.1556 21.5628C22.171 21.5376 22.1848 21.5135 22.1998 21.4876C22.2311 21.4394 22.2607 21.3901 22.2869 21.3401C22.3012 21.3157 22.326 21.2635 22.326 21.2635C22.6053 20.6823 22.5557 20.0701 22.1724 19.8058C21.7898 19.5419 21.2004 19.7131 20.758 20.1818C20.758 20.1818 20.7171 20.2235 20.7 20.2468C20.6631 20.2895 20.6278 20.3333 20.5931 20.3804C20.5745 20.4031 20.557 20.4246 20.5391 20.4487C20.1529 20.9367 19.7437 21.473 19.3213 22.0469C18.8986 22.6192 18.4645 23.2321 18.0247 23.8721C17.1471 25.1534 16.2138 26.5226 15.2969 27.9032C14.3763 29.2805 13.4728 30.6699 12.6332 31.9782C12.2134 32.6313 11.8111 33.2657 11.4325 33.8699C11.055 34.474 10.6969 35.0449 10.3744 35.5772C10.052 36.1094 9.75622 36.5967 9.49288 37.029C9.23429 37.4637 9.00925 37.8434 8.82323 38.1562C8.64123 38.4709 8.49862 38.7184 8.40124 38.8863C8.30532 39.056 8.25425 39.1466 8.25425 39.1466C8.10107 39.4163 8.1018 39.7288 8.27358 39.8942C8.47565 40.0891 8.83491 40.0088 9.07855 39.7157C9.07855 39.7157 9.1442 39.6346 9.2693 39.4846C9.39076 39.3327 9.5713 39.1104 9.79998 38.829C10.0254 38.5442 10.2989 38.1978 10.6141 37.8018C10.9241 37.4017 11.2731 36.9512 11.6536 36.4599C12.0369 35.9689 12.4414 35.4301 12.871 34.8621C13.2996 34.293 13.7486 33.6899 14.2092 33.0649C15.1316 31.8128 16.1062 30.4735 17.064 29.1214C18.0261 27.7715 18.9723 26.4128 19.8549 25.1344C20.2955 24.4948 20.7135 23.8706 21.0979 23.2701Z" fill="#636363"/>
<path d="M22.9434 19.8032C22.9868 19.7412 23.0035 19.6758 23.0002 19.6222L23.1647 19.3502C23.1994 19.3279 23.2329 19.2969 23.2614 19.256C23.3008 19.1983 23.3205 19.1396 23.323 19.0885L23.9785 18.0039L23.2111 17.4746L22.4324 18.4748C22.3864 18.4942 22.3383 18.5347 22.2985 18.5913C22.2701 18.6329 22.2547 18.6749 22.2453 18.7147L22.0494 18.9658C21.9976 18.9826 21.9436 19.022 21.9006 19.0841C21.867 19.1334 21.8488 19.1841 21.844 19.2305L21.4702 19.7101L22.513 20.4293L22.8281 19.908C22.8689 19.8879 22.9105 19.8518 22.9434 19.8032Z" fill="#C7B595"/>
<path opacity="0.2" d="M23.1666 19.3504C23.1659 19.3511 23.1651 19.3518 23.1644 19.3518L22.9999 19.6238C23.001 19.6271 22.9992 19.6314 22.9988 19.6344L22.0392 18.9722C22.0429 18.9722 22.0462 18.9693 22.0487 18.9674L22.2446 18.7163C22.2446 18.7163 22.2446 18.7155 22.2446 18.7148L23.1666 19.3504ZM22.7789 19.991L22.8278 19.91C22.8278 19.91 22.8278 19.91 22.8278 19.9092L21.8434 19.2314C21.8434 19.2321 21.8437 19.2321 21.8437 19.2321L21.7854 19.3058L22.7789 19.991ZM23.372 19.0101L22.4897 18.4023L22.432 18.4764C22.432 18.4764 22.4317 18.4764 22.4309 18.4772L23.3223 19.0915C23.3223 19.0915 23.3231 19.0908 23.3227 19.0901L23.372 19.0101Z" fill="#C7B595"/>
<path opacity="0.2" d="M23.1666 19.3504C23.1659 19.3511 23.1651 19.3518 23.1644 19.3518L22.9999 19.6238C23.001 19.6271 22.9992 19.6314 22.9988 19.6344L22.0392 18.9722C22.0429 18.9722 22.0462 18.9693 22.0487 18.9674L22.2446 18.7163C22.2446 18.7163 22.2446 18.7155 22.2446 18.7148L23.1666 19.3504ZM22.7789 19.991L22.8278 19.91C22.8278 19.91 22.8278 19.91 22.8278 19.9092L21.8434 19.2314C21.8434 19.2321 21.8437 19.2321 21.8437 19.2321L21.7854 19.3058L22.7789 19.991ZM23.372 19.0101L22.4897 18.4023L22.432 18.4764C22.432 18.4764 22.4317 18.4764 22.4309 18.4772L23.3223 19.0915C23.3223 19.0915 23.3231 19.0908 23.3227 19.0901L23.372 19.0101Z" fill="#C7B595"/>
<path opacity="0.3" d="M22.6131 18.6068L22.442 18.8555L22.5611 18.9375L22.7322 18.6888L22.6131 18.6068Z" fill="#C7B595"/>
<path opacity="0.3" d="M22.3537 18.7873L22.4132 18.8293L22.5852 18.5807L22.5249 18.5391L22.3537 18.7873Z" fill="#C7B595"/>
<path opacity="0.3" d="M22.0433 19.3674L22.2269 19.0998L22.1678 19.0586L21.9834 19.3265L22.0433 19.3674Z" fill="#C7B595"/>
<path opacity="0.3" d="M22.3811 19.206L22.2624 19.125L22.0781 19.3915L22.1967 19.4732L22.3811 19.206Z" fill="#C7B595"/>
<path opacity="0.3" d="M21.9307 19.4043L21.639 19.8277L21.6992 19.8679L21.9905 19.4455L21.9307 19.4043Z" fill="#C7B595"/>
<path opacity="0.3" d="M22.0242 19.4688L21.7332 19.8918L21.8523 19.9743L22.1432 19.552L22.0242 19.4688Z" fill="#C7B595"/>
<path opacity="0.3" d="M22.7918 18.6098L23.4573 17.6446L23.3375 17.5625L22.6728 18.5284L22.7918 18.6098Z" fill="#C7B595"/>
<path opacity="0.3" d="M22.6389 18.5029L23.3025 17.5381L23.2434 17.4961L22.5786 18.4624L22.6389 18.5029Z" fill="#C7B595"/>
<path d="M21.2482 20.1758C21.1701 20.2356 21.095 20.3021 21.0235 20.3791C21.0235 20.3791 20.9841 20.4226 20.9659 20.4452C20.9294 20.4883 20.8948 20.5332 20.8608 20.581C20.8426 20.6033 20.8255 20.6259 20.8072 20.6489C20.4261 21.1424 20.0234 21.6819 19.6069 22.2602C19.19 22.838 18.7633 23.4561 18.3303 24.1007C17.4663 25.3904 16.5479 26.7703 15.6474 28.16C14.9365 29.2478 19.4741 23.0242 19.8914 22.4456C20.3068 21.8681 20.7098 21.3271 21.0906 20.835C21.1089 20.8113 21.1267 20.7894 21.1446 20.7661C21.1778 20.7182 21.2132 20.6733 21.2493 20.631C21.2671 20.608 21.3069 20.5649 21.3069 20.5649C21.3689 20.4985 21.4342 20.4393 21.5002 20.385C21.4094 20.3196 21.3248 20.2495 21.2482 20.1758Z" fill="#201C1D"/>
<path d="M24.8449 17.1364C24.4153 17.7621 23.8109 18.0921 23.4947 17.8753C23.1803 17.6577 23.2733 16.974 23.7033 16.349C24.1341 15.7233 25.1991 15.3984 25.1991 15.3984C25.1991 15.3984 25.276 16.5111 24.8449 17.1364Z" fill="#434041"/>
<g opacity="0.5">
<path d="M16.1488 27.4802C16.1488 27.4802 16.2232 27.3608 16.3512 27.1524C16.4792 26.9432 16.6663 26.6468 16.8925 26.2913C17.1175 25.9346 17.383 25.5217 17.6737 25.0808C17.963 24.6398 18.2785 24.1725 18.598 23.7082C18.9156 23.2428 19.2454 22.7828 19.5576 22.3539C19.7144 22.1392 19.8665 21.9323 20.016 21.7392C20.1627 21.545 20.3089 21.3643 20.4417 21.1967C20.5781 21.0303 20.7036 20.8784 20.8206 20.7455C20.9344 20.6126 21.0449 20.4973 21.1369 20.4046C21.2353 20.3133 21.321 20.2699 21.3878 20.2589C21.4509 20.2461 21.4801 20.2618 21.4801 20.2618C21.5147 20.2815 21.5202 20.3334 21.4987 20.3925L21.491 20.4111C21.491 20.4111 21.4699 20.4681 21.4381 20.5301C21.4089 20.5867 21.3623 20.6751 21.2915 20.7462C21.2182 20.824 21.1252 20.916 21.0201 21.0394C20.9133 21.1573 20.7958 21.3004 20.6667 21.4559C20.5387 21.6158 20.3997 21.7866 20.2553 21.9753C20.1109 22.1644 19.9588 22.3627 19.8019 22.5689C19.4894 22.9829 19.1618 23.4326 18.8347 23.8849C18.5075 24.3361 18.1854 24.7928 17.8813 25.2206C17.5785 25.6488 17.2959 26.0492 17.053 26.3924C16.8126 26.737 16.6102 27.0228 16.4701 27.2243C16.3268 27.4247 16.2469 27.5397 16.2469 27.5397C16.2144 27.5861 16.1667 27.608 16.1415 27.5883C16.1181 27.5707 16.1222 27.5236 16.1488 27.4802Z" fill="#201C1D"/>
</g>
<path d="M22.1556 21.5628C22.1709 21.5376 22.1848 21.5135 22.1997 21.4876C22.2311 21.4394 22.2606 21.3902 22.2869 21.3402C22.3011 21.3157 22.3259 21.2635 22.3259 21.2635C22.4652 20.974 22.5229 20.6776 22.4977 20.4191L22.5123 20.4297L22.7786 19.9895L22.8274 19.9085C22.8683 19.8877 22.9102 19.8519 22.9427 19.8033C22.9861 19.7413 23.0029 19.6759 22.9996 19.6223L23.1641 19.3503C23.1987 19.328 23.2323 19.297 23.2607 19.2561C23.3001 19.1984 23.3198 19.1397 23.3224 19.0886L23.9778 18.004L23.8625 17.9248C24.1718 17.8547 24.5493 17.5645 24.844 17.1356C25.2522 16.542 25.2051 15.5137 25.1993 15.4082L8.32278 39.9296C8.52959 40.0727 8.85383 39.9866 9.07851 39.7146C9.07851 39.7146 9.14416 39.6336 9.26926 39.4835C9.39072 39.3317 9.57126 39.1094 9.79995 38.8279C10.0254 38.5432 10.2989 38.1968 10.614 37.8007C10.924 37.4006 11.2731 36.9501 11.6535 36.4588C12.0368 35.9678 12.4413 35.429 12.871 34.861C13.2995 34.2919 13.7485 33.6888 14.2092 33.0639C15.1316 31.8118 16.1062 30.4724 17.0639 29.1203C18.0261 27.7704 18.9722 26.4117 19.8549 25.1333C20.2947 24.4938 20.7127 23.8695 21.0971 23.269C21.4823 22.6715 21.8372 22.098 22.1556 21.5628Z" fill="#636363"/>
</svg>
